G04 MADE WITH FRITZING*
G04 WWW.FRITZING.ORG*
G04 DOUBLE SIDED*
G04 HOLES PLATED*
G04 CONTOUR ON CENTER OF CONTOUR VECTOR*
%ASAXBY*%
%FSLAX23Y23*%
%MOIN*%
%OFA0B0*%
%SFA1.0B1.0*%
%ADD10C,0.067717*%
%ADD11C,0.075000*%
%ADD12R,0.067716X0.067716*%
%ADD13C,0.024000*%
%ADD14C,0.048000*%
%LNCOPPER0*%
G90*
G70*
G54D10*
X1758Y1502D03*
X2958Y1602D03*
X2858Y1602D03*
X2258Y302D03*
X2958Y1002D03*
X2858Y1002D03*
X2958Y1302D03*
X2858Y1302D03*
X1958Y202D03*
X558Y502D03*
X358Y502D03*
X558Y302D03*
X358Y302D03*
X2558Y102D03*
X2458Y1102D03*
X358Y1002D03*
X358Y1102D03*
X358Y1202D03*
X358Y1302D03*
X658Y1802D03*
X758Y1802D03*
X858Y1802D03*
X958Y1802D03*
X1058Y1802D03*
X1158Y1802D03*
X1258Y1802D03*
X1358Y1802D03*
X1458Y1802D03*
X1558Y1802D03*
X1658Y1802D03*
X1758Y1802D03*
X1858Y1802D03*
X1958Y1802D03*
X2058Y1802D03*
X658Y1202D03*
X758Y1202D03*
X858Y1202D03*
X958Y1202D03*
X1058Y1202D03*
X1158Y1202D03*
X1258Y1202D03*
X1358Y1202D03*
X1458Y1202D03*
X1558Y1202D03*
X1658Y1202D03*
X1758Y1202D03*
X1858Y1202D03*
X1958Y1202D03*
X2058Y1202D03*
X2558Y602D03*
X2458Y702D03*
X2558Y1002D03*
X2358Y602D03*
X2358Y1002D03*
G54D11*
X1958Y902D03*
X1558Y902D03*
X2158Y702D03*
X1758Y702D03*
X1858Y1002D03*
X1458Y1002D03*
X2058Y802D03*
X1658Y802D03*
X1058Y1002D03*
X658Y1002D03*
X1358Y702D03*
X958Y702D03*
X1158Y902D03*
X758Y902D03*
X1258Y802D03*
X858Y802D03*
G54D10*
X1058Y402D03*
X1058Y102D03*
X1158Y402D03*
X1158Y102D03*
X1258Y402D03*
X1258Y102D03*
X1358Y402D03*
X1358Y102D03*
X1458Y402D03*
X1458Y102D03*
X1558Y402D03*
X1558Y102D03*
X1658Y402D03*
X1658Y102D03*
X1758Y402D03*
X1758Y102D03*
X1058Y402D03*
X1058Y102D03*
X1158Y402D03*
X1158Y102D03*
X1258Y402D03*
X1258Y102D03*
X1358Y402D03*
X1358Y102D03*
X1458Y402D03*
X1458Y102D03*
X1558Y402D03*
X1558Y102D03*
X1658Y402D03*
X1658Y102D03*
X1758Y402D03*
X1758Y102D03*
G54D11*
X2258Y1702D03*
X2658Y1702D03*
X2258Y1302D03*
X2658Y1302D03*
X2258Y1502D03*
X2658Y1502D03*
X758Y102D03*
X758Y502D03*
G54D12*
X1058Y402D03*
X1058Y402D03*
G54D13*
X1358Y674D02*
X1358Y433D01*
D02*
X1358Y1172D02*
X1358Y731D01*
D02*
X1258Y831D02*
X1258Y1172D01*
D02*
X1258Y433D02*
X1258Y774D01*
D02*
X1158Y1172D02*
X1158Y931D01*
D02*
X1158Y433D02*
X1158Y874D01*
D02*
X1058Y1031D02*
X1058Y1172D01*
D02*
X1058Y433D02*
X1058Y974D01*
G54D14*
D02*
X878Y782D02*
X937Y723D01*
D02*
X837Y823D02*
X778Y882D01*
G54D13*
D02*
X737Y923D02*
X678Y982D01*
G54D14*
D02*
X958Y1172D02*
X959Y1100D01*
D02*
X959Y1100D02*
X866Y1014D01*
D02*
X866Y1014D02*
X697Y1005D01*
G54D13*
D02*
X1327Y102D02*
X1288Y102D01*
D02*
X1427Y102D02*
X1388Y102D01*
D02*
X1527Y102D02*
X1488Y102D01*
D02*
X1627Y102D02*
X1588Y102D01*
D02*
X1727Y102D02*
X1688Y102D01*
D02*
X1127Y102D02*
X1088Y102D01*
D02*
X1227Y102D02*
X1188Y102D01*
D02*
X1458Y1031D02*
X1458Y1172D01*
D02*
X1458Y974D02*
X1458Y433D01*
D02*
X1758Y674D02*
X1758Y433D01*
D02*
X1658Y774D02*
X1658Y433D01*
D02*
X1558Y874D02*
X1558Y433D01*
D02*
X1558Y931D02*
X1558Y1172D01*
D02*
X1658Y831D02*
X1658Y1172D01*
D02*
X1758Y731D02*
X1758Y1172D01*
D02*
X1937Y923D02*
X1878Y982D01*
D02*
X1978Y882D02*
X2037Y823D01*
D02*
X2078Y782D02*
X2137Y723D01*
G54D14*
D02*
X926Y514D02*
X957Y304D01*
D02*
X957Y304D02*
X1059Y202D01*
D02*
X1059Y202D02*
X1877Y205D01*
D02*
X1877Y205D02*
X2143Y677D01*
D02*
X953Y674D02*
X926Y514D01*
D02*
X259Y1103D02*
X259Y1501D01*
D02*
X357Y503D02*
X259Y803D01*
D02*
X856Y202D02*
X657Y401D01*
D02*
X556Y503D02*
X458Y503D01*
D02*
X259Y1501D02*
X357Y1602D01*
D02*
X458Y503D02*
X357Y503D01*
D02*
X657Y401D02*
X556Y503D01*
D02*
X1027Y102D02*
X957Y101D01*
D02*
X957Y101D02*
X856Y202D01*
D02*
X856Y1602D02*
X957Y1703D01*
D02*
X957Y1703D02*
X957Y1772D01*
D02*
X259Y803D02*
X259Y1103D01*
D02*
X357Y1602D02*
X856Y1602D01*
D02*
X629Y1002D02*
X388Y1002D01*
D02*
X259Y1103D02*
X327Y1103D01*
G54D13*
D02*
X556Y1302D02*
X636Y1224D01*
D02*
X388Y1302D02*
X556Y1302D01*
D02*
X758Y1103D02*
X758Y1172D01*
D02*
X556Y1103D02*
X758Y1103D01*
D02*
X458Y1200D02*
X556Y1103D01*
D02*
X388Y1202D02*
X458Y1200D01*
D02*
X2357Y1902D02*
X2458Y1703D01*
D02*
X2458Y1703D02*
X2458Y1200D01*
D02*
X2458Y1200D02*
X2458Y1133D01*
D02*
X1933Y1911D02*
X2357Y1902D01*
D02*
X2358Y633D02*
X2358Y972D01*
D02*
X2558Y633D02*
X2558Y972D01*
D02*
X2259Y604D02*
X2327Y603D01*
D02*
X2178Y683D02*
X2259Y604D01*
D02*
X2556Y304D02*
X2557Y572D01*
D02*
X2057Y101D02*
X2556Y304D01*
D02*
X1788Y102D02*
X2057Y101D01*
D02*
X2458Y503D02*
X2279Y324D01*
D02*
X2458Y672D02*
X2458Y503D01*
D02*
X2830Y1616D02*
X2683Y1690D01*
D02*
X2836Y1324D02*
X2678Y1482D01*
D02*
X2840Y1028D02*
X2673Y1279D01*
D02*
X2085Y1216D02*
X2232Y1290D01*
D02*
X1959Y1302D02*
X1958Y1233D01*
D02*
X2234Y1486D02*
X1959Y1302D01*
D02*
X1858Y1403D02*
X1858Y1233D01*
D02*
X2235Y1685D02*
X1858Y1403D01*
D02*
X2958Y1333D02*
X2958Y1572D01*
D02*
X2958Y1033D02*
X2958Y1272D01*
D02*
X556Y202D02*
X557Y272D01*
D02*
X732Y115D02*
X556Y202D01*
G54D14*
D02*
X926Y514D02*
X786Y504D01*
G54D13*
D02*
X527Y302D02*
X388Y302D01*
D02*
X158Y503D02*
X259Y304D01*
D02*
X158Y1703D02*
X158Y503D01*
D02*
X259Y304D02*
X327Y303D01*
D02*
X1058Y1833D02*
X1059Y1902D01*
D02*
X357Y1902D02*
X158Y1703D01*
D02*
X1059Y1902D02*
X357Y1902D01*
D02*
X2957Y501D02*
X2958Y972D01*
D02*
X2579Y124D02*
X2957Y501D01*
G54D14*
D02*
X1877Y205D02*
X1927Y204D01*
D02*
X866Y1014D02*
X778Y923D01*
G54D13*
D02*
X1657Y1772D02*
X1656Y1704D01*
D02*
X1656Y1704D02*
X1744Y1530D01*
D02*
X1933Y1911D02*
X1759Y1902D01*
D02*
X1759Y1902D02*
X1758Y1833D01*
G04 End of Copper0*
M02*