G04 MADE WITH FRITZING*
G04 WWW.FRITZING.ORG*
G04 DOUBLE SIDED*
G04 HOLES PLATED*
G04 CONTOUR ON CENTER OF CONTOUR VECTOR*
%ASAXBY*%
%FSLAX23Y23*%
%MOIN*%
%OFA0B0*%
%SFA1.0B1.0*%
%ADD10C,0.067717*%
%ADD11C,0.075000*%
%ADD12R,0.067716X0.067716*%
%LNCOPPER1*%
G90*
G70*
G54D10*
X658Y1802D03*
X758Y1802D03*
X858Y1802D03*
X958Y1802D03*
X1058Y1802D03*
X1158Y1802D03*
X1258Y1802D03*
X1358Y1802D03*
X1458Y1802D03*
X1558Y1802D03*
X1658Y1802D03*
X1758Y1802D03*
X1858Y1802D03*
X1958Y1802D03*
X2058Y1802D03*
X658Y1202D03*
X758Y1202D03*
X858Y1202D03*
X958Y1202D03*
X1058Y1202D03*
X1158Y1202D03*
X1258Y1202D03*
X1358Y1202D03*
X1458Y1202D03*
X1558Y1202D03*
X1658Y1202D03*
X1758Y1202D03*
X1858Y1202D03*
X1958Y1202D03*
X2058Y1202D03*
G54D11*
X1058Y1002D03*
X658Y1002D03*
G54D10*
X1058Y402D03*
X1058Y102D03*
X1158Y402D03*
X1158Y102D03*
X1258Y402D03*
X1258Y102D03*
X1358Y402D03*
X1358Y102D03*
X1458Y402D03*
X1458Y102D03*
X1558Y402D03*
X1558Y102D03*
X1658Y402D03*
X1658Y102D03*
X1758Y402D03*
X1758Y102D03*
X1058Y402D03*
X1058Y102D03*
X1158Y402D03*
X1158Y102D03*
X1258Y402D03*
X1258Y102D03*
X1358Y402D03*
X1358Y102D03*
X1458Y402D03*
X1458Y102D03*
X1558Y402D03*
X1558Y102D03*
X1658Y402D03*
X1658Y102D03*
X1758Y402D03*
X1758Y102D03*
G54D11*
X1158Y902D03*
X758Y902D03*
X1258Y802D03*
X858Y802D03*
X1358Y702D03*
X958Y702D03*
X1858Y1002D03*
X1458Y1002D03*
X1958Y902D03*
X1558Y902D03*
X2058Y802D03*
X1658Y802D03*
X2158Y702D03*
X1758Y702D03*
G54D10*
X358Y1002D03*
X358Y1102D03*
X358Y1202D03*
X358Y1302D03*
X2458Y1102D03*
X2558Y1002D03*
X2358Y1002D03*
X2358Y602D03*
X2458Y702D03*
X2558Y602D03*
X2258Y302D03*
X1758Y1502D03*
X2958Y1602D03*
X2858Y1602D03*
X2958Y1002D03*
X2858Y1002D03*
X2958Y1302D03*
X2858Y1302D03*
G54D11*
X2258Y1502D03*
X2658Y1502D03*
X2258Y1702D03*
X2658Y1702D03*
X2258Y1302D03*
X2658Y1302D03*
G54D10*
X558Y502D03*
X358Y502D03*
X558Y302D03*
X358Y302D03*
G54D11*
X758Y102D03*
X758Y502D03*
G54D10*
X2558Y102D03*
X1958Y202D03*
G54D12*
X1058Y402D03*
X1058Y402D03*
G04 End of Copper1*
M02*