; NON-PLATED HOLES START AT T1
; THROUGH (PLATED) HOLES START AT T100
M48
INCH
T1C0.125984
T100C0.039370
T101C0.035000
%
T1
X001575Y001024
X001575Y019024
X029575Y001024
X029575Y019024
T100
X013575Y018024
X029575Y013024
X010575Y001024
X003575Y013024
X023575Y010024
X007575Y018024
X023575Y006024
X003575Y012024
X013575Y001024
X016575Y018024
X005575Y005024
X012575Y012024
X011575Y004024
X003575Y011024
X006575Y012024
X019575Y018024
X016575Y001024
X015575Y012024
X019575Y002024
X025575Y001024
X014575Y004024
X029575Y010024
X003575Y010024
X011575Y018024
X005575Y003024
X020575Y018024
X009575Y012024
X018575Y012024
X024575Y011024
X017575Y004024
X014575Y018024
X024575Y007024
X011575Y001024
X003575Y005024
X028575Y016024
X010575Y012024
X008575Y018024
X017575Y018024
X014575Y001024
X013575Y012024
X012575Y004024
X003575Y003024
X007575Y012024
X017575Y001024
X015575Y004024
X016575Y012024
X028575Y013024
X012575Y018024
X019575Y012024
X017575Y015024
X006575Y018024
X015575Y018024
X012575Y001024
X029575Y016024
X010575Y004024
X011575Y012024
X025575Y010024
X020575Y012024
X009575Y018024
X025575Y006024
X018575Y018024
X015575Y001024
X013575Y004024
X014575Y012024
X028575Y010024
X010575Y018024
X008575Y012024
X017575Y012024
X022575Y003024
X016575Y004024
T101
X013575Y007024
X026575Y017024
X016575Y008024
X006575Y010024
X022575Y017024
X012575Y008024
X008575Y008024
X007575Y001024
X021575Y007024
X014575Y010024
X011575Y009024
X007575Y009024
X026575Y013024
X020575Y008024
X009575Y007024
X010575Y010024
X019575Y009024
X022575Y013024
X015575Y009024
X018575Y010024
X026575Y015024
X007575Y005024
X017575Y007024
X022575Y015024
T00
M30
