G04 MADE WITH FRITZING*
G04 WWW.FRITZING.ORG*
G04 DOUBLE SIDED*
G04 HOLES PLATED*
G04 CONTOUR ON CENTER OF CONTOUR VECTOR*
%ASAXBY*%
%FSLAX23Y23*%
%MOIN*%
%OFA0B0*%
%SFA1.0B1.0*%
%ADD10C,0.010000*%
%ADD11R,0.001000X0.001000*%
%LNSILK0*%
G90*
G70*
G54D10*
X1008Y452D02*
X1808Y452D01*
D02*
X1808Y452D02*
X1808Y52D01*
D02*
X1808Y52D02*
X1008Y52D01*
D02*
X1008Y452D02*
X1008Y302D01*
D02*
X1008Y202D02*
X1008Y52D01*
D02*
X2548Y1535D02*
X2348Y1535D01*
D02*
X2348Y1535D02*
X2348Y1469D01*
D02*
X2348Y1469D02*
X2548Y1469D01*
D02*
X2548Y1469D02*
X2548Y1535D01*
D02*
X2548Y1735D02*
X2348Y1735D01*
D02*
X2348Y1735D02*
X2348Y1669D01*
D02*
X2348Y1669D02*
X2548Y1669D01*
D02*
X2548Y1669D02*
X2548Y1735D01*
D02*
X2548Y1335D02*
X2348Y1335D01*
D02*
X2348Y1335D02*
X2348Y1269D01*
D02*
X2348Y1269D02*
X2548Y1269D01*
D02*
X2548Y1269D02*
X2548Y1335D01*
D02*
X725Y393D02*
X725Y193D01*
D02*
X725Y193D02*
X791Y193D01*
D02*
X791Y193D02*
X791Y393D01*
D02*
X791Y393D02*
X725Y393D01*
G54D11*
X0Y2000D02*
X3155Y2000D01*
X0Y1999D02*
X3155Y1999D01*
X0Y1998D02*
X3155Y1998D01*
X0Y1997D02*
X3155Y1997D01*
X0Y1996D02*
X3155Y1996D01*
X0Y1995D02*
X3155Y1995D01*
X0Y1994D02*
X3155Y1994D01*
X0Y1993D02*
X3155Y1993D01*
X0Y1992D02*
X7Y1992D01*
X3148Y1992D02*
X3155Y1992D01*
X0Y1991D02*
X7Y1991D01*
X3148Y1991D02*
X3155Y1991D01*
X0Y1990D02*
X7Y1990D01*
X3148Y1990D02*
X3155Y1990D01*
X0Y1989D02*
X7Y1989D01*
X3148Y1989D02*
X3155Y1989D01*
X0Y1988D02*
X7Y1988D01*
X3148Y1988D02*
X3155Y1988D01*
X0Y1987D02*
X7Y1987D01*
X3148Y1987D02*
X3155Y1987D01*
X0Y1986D02*
X7Y1986D01*
X3148Y1986D02*
X3155Y1986D01*
X0Y1985D02*
X7Y1985D01*
X3148Y1985D02*
X3155Y1985D01*
X0Y1984D02*
X7Y1984D01*
X3148Y1984D02*
X3155Y1984D01*
X0Y1983D02*
X7Y1983D01*
X3148Y1983D02*
X3155Y1983D01*
X0Y1982D02*
X7Y1982D01*
X3148Y1982D02*
X3155Y1982D01*
X0Y1981D02*
X7Y1981D01*
X3148Y1981D02*
X3155Y1981D01*
X0Y1980D02*
X7Y1980D01*
X3148Y1980D02*
X3155Y1980D01*
X0Y1979D02*
X7Y1979D01*
X3148Y1979D02*
X3155Y1979D01*
X0Y1978D02*
X7Y1978D01*
X3148Y1978D02*
X3155Y1978D01*
X0Y1977D02*
X7Y1977D01*
X3148Y1977D02*
X3155Y1977D01*
X0Y1976D02*
X7Y1976D01*
X3148Y1976D02*
X3155Y1976D01*
X0Y1975D02*
X7Y1975D01*
X3148Y1975D02*
X3155Y1975D01*
X0Y1974D02*
X7Y1974D01*
X3148Y1974D02*
X3155Y1974D01*
X0Y1973D02*
X7Y1973D01*
X3148Y1973D02*
X3155Y1973D01*
X0Y1972D02*
X7Y1972D01*
X3148Y1972D02*
X3155Y1972D01*
X0Y1971D02*
X7Y1971D01*
X3148Y1971D02*
X3155Y1971D01*
X0Y1970D02*
X7Y1970D01*
X3148Y1970D02*
X3155Y1970D01*
X0Y1969D02*
X7Y1969D01*
X3148Y1969D02*
X3155Y1969D01*
X0Y1968D02*
X7Y1968D01*
X3148Y1968D02*
X3155Y1968D01*
X0Y1967D02*
X7Y1967D01*
X3148Y1967D02*
X3155Y1967D01*
X0Y1966D02*
X7Y1966D01*
X3148Y1966D02*
X3155Y1966D01*
X0Y1965D02*
X7Y1965D01*
X3148Y1965D02*
X3155Y1965D01*
X0Y1964D02*
X7Y1964D01*
X3148Y1964D02*
X3155Y1964D01*
X0Y1963D02*
X7Y1963D01*
X3148Y1963D02*
X3155Y1963D01*
X0Y1962D02*
X7Y1962D01*
X3148Y1962D02*
X3155Y1962D01*
X0Y1961D02*
X7Y1961D01*
X3148Y1961D02*
X3155Y1961D01*
X0Y1960D02*
X7Y1960D01*
X3148Y1960D02*
X3155Y1960D01*
X0Y1959D02*
X7Y1959D01*
X3148Y1959D02*
X3155Y1959D01*
X0Y1958D02*
X7Y1958D01*
X3148Y1958D02*
X3155Y1958D01*
X0Y1957D02*
X7Y1957D01*
X3148Y1957D02*
X3155Y1957D01*
X0Y1956D02*
X7Y1956D01*
X3148Y1956D02*
X3155Y1956D01*
X0Y1955D02*
X7Y1955D01*
X3148Y1955D02*
X3155Y1955D01*
X0Y1954D02*
X7Y1954D01*
X3148Y1954D02*
X3155Y1954D01*
X0Y1953D02*
X7Y1953D01*
X3148Y1953D02*
X3155Y1953D01*
X0Y1952D02*
X7Y1952D01*
X3148Y1952D02*
X3155Y1952D01*
X0Y1951D02*
X7Y1951D01*
X3148Y1951D02*
X3155Y1951D01*
X0Y1950D02*
X7Y1950D01*
X3148Y1950D02*
X3155Y1950D01*
X0Y1949D02*
X7Y1949D01*
X3148Y1949D02*
X3155Y1949D01*
X0Y1948D02*
X7Y1948D01*
X3148Y1948D02*
X3155Y1948D01*
X0Y1947D02*
X7Y1947D01*
X3148Y1947D02*
X3155Y1947D01*
X0Y1946D02*
X7Y1946D01*
X3148Y1946D02*
X3155Y1946D01*
X0Y1945D02*
X7Y1945D01*
X3148Y1945D02*
X3155Y1945D01*
X0Y1944D02*
X7Y1944D01*
X3148Y1944D02*
X3155Y1944D01*
X0Y1943D02*
X7Y1943D01*
X3148Y1943D02*
X3155Y1943D01*
X0Y1942D02*
X7Y1942D01*
X3148Y1942D02*
X3155Y1942D01*
X0Y1941D02*
X7Y1941D01*
X3148Y1941D02*
X3155Y1941D01*
X0Y1940D02*
X7Y1940D01*
X3148Y1940D02*
X3155Y1940D01*
X0Y1939D02*
X7Y1939D01*
X3148Y1939D02*
X3155Y1939D01*
X0Y1938D02*
X7Y1938D01*
X3148Y1938D02*
X3155Y1938D01*
X0Y1937D02*
X7Y1937D01*
X3148Y1937D02*
X3155Y1937D01*
X0Y1936D02*
X7Y1936D01*
X3148Y1936D02*
X3155Y1936D01*
X0Y1935D02*
X7Y1935D01*
X3148Y1935D02*
X3155Y1935D01*
X0Y1934D02*
X7Y1934D01*
X3148Y1934D02*
X3155Y1934D01*
X0Y1933D02*
X7Y1933D01*
X3148Y1933D02*
X3155Y1933D01*
X0Y1932D02*
X7Y1932D01*
X3148Y1932D02*
X3155Y1932D01*
X0Y1931D02*
X7Y1931D01*
X3148Y1931D02*
X3155Y1931D01*
X0Y1930D02*
X7Y1930D01*
X3148Y1930D02*
X3155Y1930D01*
X0Y1929D02*
X7Y1929D01*
X3148Y1929D02*
X3155Y1929D01*
X0Y1928D02*
X7Y1928D01*
X3148Y1928D02*
X3155Y1928D01*
X0Y1927D02*
X7Y1927D01*
X3148Y1927D02*
X3155Y1927D01*
X0Y1926D02*
X7Y1926D01*
X3148Y1926D02*
X3155Y1926D01*
X0Y1925D02*
X7Y1925D01*
X3148Y1925D02*
X3155Y1925D01*
X0Y1924D02*
X7Y1924D01*
X3148Y1924D02*
X3155Y1924D01*
X0Y1923D02*
X7Y1923D01*
X3148Y1923D02*
X3155Y1923D01*
X0Y1922D02*
X7Y1922D01*
X3148Y1922D02*
X3155Y1922D01*
X0Y1921D02*
X7Y1921D01*
X3148Y1921D02*
X3155Y1921D01*
X0Y1920D02*
X7Y1920D01*
X3148Y1920D02*
X3155Y1920D01*
X0Y1919D02*
X7Y1919D01*
X3148Y1919D02*
X3155Y1919D01*
X0Y1918D02*
X7Y1918D01*
X3148Y1918D02*
X3155Y1918D01*
X0Y1917D02*
X7Y1917D01*
X3148Y1917D02*
X3155Y1917D01*
X0Y1916D02*
X7Y1916D01*
X3148Y1916D02*
X3155Y1916D01*
X0Y1915D02*
X7Y1915D01*
X3148Y1915D02*
X3155Y1915D01*
X0Y1914D02*
X7Y1914D01*
X3148Y1914D02*
X3155Y1914D01*
X0Y1913D02*
X7Y1913D01*
X3148Y1913D02*
X3155Y1913D01*
X0Y1912D02*
X7Y1912D01*
X3148Y1912D02*
X3155Y1912D01*
X0Y1911D02*
X7Y1911D01*
X3148Y1911D02*
X3155Y1911D01*
X0Y1910D02*
X7Y1910D01*
X3148Y1910D02*
X3155Y1910D01*
X0Y1909D02*
X7Y1909D01*
X3148Y1909D02*
X3155Y1909D01*
X0Y1908D02*
X7Y1908D01*
X3148Y1908D02*
X3155Y1908D01*
X0Y1907D02*
X7Y1907D01*
X3148Y1907D02*
X3155Y1907D01*
X0Y1906D02*
X7Y1906D01*
X3148Y1906D02*
X3155Y1906D01*
X0Y1905D02*
X7Y1905D01*
X3148Y1905D02*
X3155Y1905D01*
X0Y1904D02*
X7Y1904D01*
X3148Y1904D02*
X3155Y1904D01*
X0Y1903D02*
X7Y1903D01*
X3148Y1903D02*
X3155Y1903D01*
X0Y1902D02*
X7Y1902D01*
X3148Y1902D02*
X3155Y1902D01*
X0Y1901D02*
X7Y1901D01*
X3148Y1901D02*
X3155Y1901D01*
X0Y1900D02*
X7Y1900D01*
X3148Y1900D02*
X3155Y1900D01*
X0Y1899D02*
X7Y1899D01*
X3148Y1899D02*
X3155Y1899D01*
X0Y1898D02*
X7Y1898D01*
X3148Y1898D02*
X3155Y1898D01*
X0Y1897D02*
X7Y1897D01*
X3148Y1897D02*
X3155Y1897D01*
X0Y1896D02*
X7Y1896D01*
X3148Y1896D02*
X3155Y1896D01*
X0Y1895D02*
X7Y1895D01*
X3148Y1895D02*
X3155Y1895D01*
X0Y1894D02*
X7Y1894D01*
X3148Y1894D02*
X3155Y1894D01*
X0Y1893D02*
X7Y1893D01*
X3148Y1893D02*
X3155Y1893D01*
X0Y1892D02*
X7Y1892D01*
X3148Y1892D02*
X3155Y1892D01*
X0Y1891D02*
X7Y1891D01*
X3148Y1891D02*
X3155Y1891D01*
X0Y1890D02*
X7Y1890D01*
X3148Y1890D02*
X3155Y1890D01*
X0Y1889D02*
X7Y1889D01*
X3148Y1889D02*
X3155Y1889D01*
X0Y1888D02*
X7Y1888D01*
X3148Y1888D02*
X3155Y1888D01*
X0Y1887D02*
X7Y1887D01*
X3148Y1887D02*
X3155Y1887D01*
X0Y1886D02*
X7Y1886D01*
X3148Y1886D02*
X3155Y1886D01*
X0Y1885D02*
X7Y1885D01*
X3148Y1885D02*
X3155Y1885D01*
X0Y1884D02*
X7Y1884D01*
X3148Y1884D02*
X3155Y1884D01*
X0Y1883D02*
X7Y1883D01*
X3148Y1883D02*
X3155Y1883D01*
X0Y1882D02*
X7Y1882D01*
X3148Y1882D02*
X3155Y1882D01*
X0Y1881D02*
X7Y1881D01*
X3148Y1881D02*
X3155Y1881D01*
X0Y1880D02*
X7Y1880D01*
X3148Y1880D02*
X3155Y1880D01*
X0Y1879D02*
X7Y1879D01*
X3148Y1879D02*
X3155Y1879D01*
X0Y1878D02*
X7Y1878D01*
X3148Y1878D02*
X3155Y1878D01*
X0Y1877D02*
X7Y1877D01*
X3148Y1877D02*
X3155Y1877D01*
X0Y1876D02*
X7Y1876D01*
X3148Y1876D02*
X3155Y1876D01*
X0Y1875D02*
X7Y1875D01*
X3148Y1875D02*
X3155Y1875D01*
X0Y1874D02*
X7Y1874D01*
X3148Y1874D02*
X3155Y1874D01*
X0Y1873D02*
X7Y1873D01*
X3148Y1873D02*
X3155Y1873D01*
X0Y1872D02*
X7Y1872D01*
X3148Y1872D02*
X3155Y1872D01*
X0Y1871D02*
X7Y1871D01*
X3148Y1871D02*
X3155Y1871D01*
X0Y1870D02*
X7Y1870D01*
X3148Y1870D02*
X3155Y1870D01*
X0Y1869D02*
X7Y1869D01*
X3148Y1869D02*
X3155Y1869D01*
X0Y1868D02*
X7Y1868D01*
X3148Y1868D02*
X3155Y1868D01*
X0Y1867D02*
X7Y1867D01*
X3148Y1867D02*
X3155Y1867D01*
X0Y1866D02*
X7Y1866D01*
X3148Y1866D02*
X3155Y1866D01*
X0Y1865D02*
X7Y1865D01*
X3148Y1865D02*
X3155Y1865D01*
X0Y1864D02*
X7Y1864D01*
X3148Y1864D02*
X3155Y1864D01*
X0Y1863D02*
X7Y1863D01*
X3148Y1863D02*
X3155Y1863D01*
X0Y1862D02*
X7Y1862D01*
X3148Y1862D02*
X3155Y1862D01*
X0Y1861D02*
X7Y1861D01*
X3148Y1861D02*
X3155Y1861D01*
X0Y1860D02*
X7Y1860D01*
X3148Y1860D02*
X3155Y1860D01*
X0Y1859D02*
X7Y1859D01*
X3148Y1859D02*
X3155Y1859D01*
X0Y1858D02*
X7Y1858D01*
X3148Y1858D02*
X3155Y1858D01*
X0Y1857D02*
X7Y1857D01*
X3148Y1857D02*
X3155Y1857D01*
X0Y1856D02*
X7Y1856D01*
X3148Y1856D02*
X3155Y1856D01*
X0Y1855D02*
X7Y1855D01*
X3148Y1855D02*
X3155Y1855D01*
X0Y1854D02*
X7Y1854D01*
X3148Y1854D02*
X3155Y1854D01*
X0Y1853D02*
X7Y1853D01*
X3148Y1853D02*
X3155Y1853D01*
X0Y1852D02*
X7Y1852D01*
X3148Y1852D02*
X3155Y1852D01*
X0Y1851D02*
X7Y1851D01*
X3148Y1851D02*
X3155Y1851D01*
X0Y1850D02*
X7Y1850D01*
X3148Y1850D02*
X3155Y1850D01*
X0Y1849D02*
X7Y1849D01*
X3148Y1849D02*
X3155Y1849D01*
X0Y1848D02*
X7Y1848D01*
X3148Y1848D02*
X3155Y1848D01*
X0Y1847D02*
X7Y1847D01*
X3148Y1847D02*
X3155Y1847D01*
X0Y1846D02*
X7Y1846D01*
X3148Y1846D02*
X3155Y1846D01*
X0Y1845D02*
X7Y1845D01*
X3148Y1845D02*
X3155Y1845D01*
X0Y1844D02*
X7Y1844D01*
X3148Y1844D02*
X3155Y1844D01*
X0Y1843D02*
X7Y1843D01*
X3148Y1843D02*
X3155Y1843D01*
X0Y1842D02*
X7Y1842D01*
X3148Y1842D02*
X3155Y1842D01*
X0Y1841D02*
X7Y1841D01*
X3148Y1841D02*
X3155Y1841D01*
X0Y1840D02*
X7Y1840D01*
X3148Y1840D02*
X3155Y1840D01*
X0Y1839D02*
X7Y1839D01*
X3148Y1839D02*
X3155Y1839D01*
X0Y1838D02*
X7Y1838D01*
X3148Y1838D02*
X3155Y1838D01*
X0Y1837D02*
X7Y1837D01*
X3148Y1837D02*
X3155Y1837D01*
X0Y1836D02*
X7Y1836D01*
X3148Y1836D02*
X3155Y1836D01*
X0Y1835D02*
X7Y1835D01*
X3148Y1835D02*
X3155Y1835D01*
X0Y1834D02*
X7Y1834D01*
X3148Y1834D02*
X3155Y1834D01*
X0Y1833D02*
X7Y1833D01*
X3148Y1833D02*
X3155Y1833D01*
X0Y1832D02*
X7Y1832D01*
X3148Y1832D02*
X3155Y1832D01*
X0Y1831D02*
X7Y1831D01*
X3148Y1831D02*
X3155Y1831D01*
X0Y1830D02*
X7Y1830D01*
X3148Y1830D02*
X3155Y1830D01*
X0Y1829D02*
X7Y1829D01*
X3148Y1829D02*
X3155Y1829D01*
X0Y1828D02*
X7Y1828D01*
X3148Y1828D02*
X3155Y1828D01*
X0Y1827D02*
X7Y1827D01*
X3148Y1827D02*
X3155Y1827D01*
X0Y1826D02*
X7Y1826D01*
X3148Y1826D02*
X3155Y1826D01*
X0Y1825D02*
X7Y1825D01*
X2089Y1825D02*
X2107Y1825D01*
X2141Y1825D02*
X2159Y1825D01*
X2184Y1825D02*
X2211Y1825D01*
X3148Y1825D02*
X3155Y1825D01*
X0Y1824D02*
X7Y1824D01*
X2090Y1824D02*
X2108Y1824D01*
X2141Y1824D02*
X2160Y1824D01*
X2182Y1824D02*
X2211Y1824D01*
X3148Y1824D02*
X3155Y1824D01*
X0Y1823D02*
X7Y1823D01*
X2090Y1823D02*
X2109Y1823D01*
X2141Y1823D02*
X2161Y1823D01*
X2181Y1823D02*
X2211Y1823D01*
X3148Y1823D02*
X3155Y1823D01*
X0Y1822D02*
X7Y1822D01*
X2091Y1822D02*
X2110Y1822D01*
X2141Y1822D02*
X2161Y1822D01*
X2180Y1822D02*
X2211Y1822D01*
X3148Y1822D02*
X3155Y1822D01*
X0Y1821D02*
X7Y1821D01*
X2092Y1821D02*
X2110Y1821D01*
X2141Y1821D02*
X2161Y1821D01*
X2179Y1821D02*
X2211Y1821D01*
X3148Y1821D02*
X3155Y1821D01*
X0Y1820D02*
X7Y1820D01*
X2092Y1820D02*
X2111Y1820D01*
X2141Y1820D02*
X2160Y1820D01*
X2179Y1820D02*
X2211Y1820D01*
X3148Y1820D02*
X3155Y1820D01*
X0Y1819D02*
X7Y1819D01*
X2093Y1819D02*
X2111Y1819D01*
X2141Y1819D02*
X2159Y1819D01*
X2178Y1819D02*
X2211Y1819D01*
X3148Y1819D02*
X3155Y1819D01*
X0Y1818D02*
X7Y1818D01*
X2105Y1818D02*
X2111Y1818D01*
X2141Y1818D02*
X2147Y1818D01*
X2178Y1818D02*
X2185Y1818D01*
X2205Y1818D02*
X2211Y1818D01*
X3148Y1818D02*
X3155Y1818D01*
X0Y1817D02*
X7Y1817D01*
X2105Y1817D02*
X2111Y1817D01*
X2141Y1817D02*
X2147Y1817D01*
X2178Y1817D02*
X2184Y1817D01*
X2205Y1817D02*
X2211Y1817D01*
X3148Y1817D02*
X3155Y1817D01*
X0Y1816D02*
X7Y1816D01*
X2105Y1816D02*
X2111Y1816D01*
X2141Y1816D02*
X2147Y1816D01*
X2178Y1816D02*
X2184Y1816D01*
X2205Y1816D02*
X2211Y1816D01*
X3148Y1816D02*
X3155Y1816D01*
X0Y1815D02*
X7Y1815D01*
X2105Y1815D02*
X2111Y1815D01*
X2141Y1815D02*
X2147Y1815D01*
X2178Y1815D02*
X2184Y1815D01*
X2205Y1815D02*
X2211Y1815D01*
X3148Y1815D02*
X3155Y1815D01*
X0Y1814D02*
X7Y1814D01*
X2105Y1814D02*
X2111Y1814D01*
X2141Y1814D02*
X2147Y1814D01*
X2178Y1814D02*
X2184Y1814D01*
X2205Y1814D02*
X2211Y1814D01*
X3148Y1814D02*
X3155Y1814D01*
X0Y1813D02*
X7Y1813D01*
X2105Y1813D02*
X2111Y1813D01*
X2141Y1813D02*
X2147Y1813D01*
X2178Y1813D02*
X2184Y1813D01*
X2205Y1813D02*
X2211Y1813D01*
X3148Y1813D02*
X3155Y1813D01*
X0Y1812D02*
X7Y1812D01*
X2105Y1812D02*
X2111Y1812D01*
X2141Y1812D02*
X2147Y1812D01*
X2178Y1812D02*
X2184Y1812D01*
X2205Y1812D02*
X2211Y1812D01*
X3148Y1812D02*
X3155Y1812D01*
X0Y1811D02*
X7Y1811D01*
X2105Y1811D02*
X2111Y1811D01*
X2141Y1811D02*
X2147Y1811D01*
X2178Y1811D02*
X2184Y1811D01*
X2205Y1811D02*
X2211Y1811D01*
X3148Y1811D02*
X3155Y1811D01*
X0Y1810D02*
X7Y1810D01*
X2105Y1810D02*
X2111Y1810D01*
X2141Y1810D02*
X2147Y1810D01*
X2178Y1810D02*
X2184Y1810D01*
X2205Y1810D02*
X2211Y1810D01*
X3148Y1810D02*
X3155Y1810D01*
X0Y1809D02*
X7Y1809D01*
X2105Y1809D02*
X2111Y1809D01*
X2141Y1809D02*
X2147Y1809D01*
X2178Y1809D02*
X2185Y1809D01*
X2205Y1809D02*
X2211Y1809D01*
X3148Y1809D02*
X3155Y1809D01*
X0Y1808D02*
X7Y1808D01*
X2105Y1808D02*
X2111Y1808D01*
X2141Y1808D02*
X2147Y1808D01*
X2178Y1808D02*
X2211Y1808D01*
X3148Y1808D02*
X3155Y1808D01*
X0Y1807D02*
X7Y1807D01*
X2105Y1807D02*
X2111Y1807D01*
X2141Y1807D02*
X2147Y1807D01*
X2179Y1807D02*
X2211Y1807D01*
X3148Y1807D02*
X3155Y1807D01*
X0Y1806D02*
X7Y1806D01*
X2105Y1806D02*
X2111Y1806D01*
X2141Y1806D02*
X2147Y1806D01*
X2179Y1806D02*
X2211Y1806D01*
X3148Y1806D02*
X3155Y1806D01*
X0Y1805D02*
X7Y1805D01*
X2105Y1805D02*
X2111Y1805D01*
X2141Y1805D02*
X2147Y1805D01*
X2180Y1805D02*
X2211Y1805D01*
X3148Y1805D02*
X3155Y1805D01*
X0Y1804D02*
X7Y1804D01*
X2105Y1804D02*
X2111Y1804D01*
X2141Y1804D02*
X2147Y1804D01*
X2181Y1804D02*
X2211Y1804D01*
X3148Y1804D02*
X3155Y1804D01*
X0Y1803D02*
X7Y1803D01*
X2105Y1803D02*
X2111Y1803D01*
X2141Y1803D02*
X2147Y1803D01*
X2182Y1803D02*
X2211Y1803D01*
X3148Y1803D02*
X3155Y1803D01*
X0Y1802D02*
X7Y1802D01*
X2105Y1802D02*
X2111Y1802D01*
X2141Y1802D02*
X2147Y1802D01*
X2184Y1802D02*
X2211Y1802D01*
X3148Y1802D02*
X3155Y1802D01*
X0Y1801D02*
X7Y1801D01*
X2105Y1801D02*
X2111Y1801D01*
X2141Y1801D02*
X2147Y1801D01*
X2192Y1801D02*
X2200Y1801D01*
X2205Y1801D02*
X2211Y1801D01*
X3148Y1801D02*
X3155Y1801D01*
X0Y1800D02*
X7Y1800D01*
X2105Y1800D02*
X2111Y1800D01*
X2141Y1800D02*
X2147Y1800D01*
X2191Y1800D02*
X2199Y1800D01*
X2205Y1800D02*
X2211Y1800D01*
X3148Y1800D02*
X3155Y1800D01*
X0Y1799D02*
X7Y1799D01*
X2105Y1799D02*
X2111Y1799D01*
X2141Y1799D02*
X2147Y1799D01*
X2191Y1799D02*
X2198Y1799D01*
X2205Y1799D02*
X2211Y1799D01*
X3148Y1799D02*
X3155Y1799D01*
X0Y1798D02*
X7Y1798D01*
X2105Y1798D02*
X2111Y1798D01*
X2141Y1798D02*
X2147Y1798D01*
X2190Y1798D02*
X2198Y1798D01*
X2205Y1798D02*
X2211Y1798D01*
X3148Y1798D02*
X3155Y1798D01*
X0Y1797D02*
X7Y1797D01*
X2105Y1797D02*
X2111Y1797D01*
X2141Y1797D02*
X2147Y1797D01*
X2190Y1797D02*
X2197Y1797D01*
X2205Y1797D02*
X2211Y1797D01*
X3148Y1797D02*
X3155Y1797D01*
X0Y1796D02*
X7Y1796D01*
X2105Y1796D02*
X2111Y1796D01*
X2129Y1796D02*
X2131Y1796D01*
X2141Y1796D02*
X2147Y1796D01*
X2189Y1796D02*
X2196Y1796D01*
X2205Y1796D02*
X2211Y1796D01*
X3148Y1796D02*
X3155Y1796D01*
X0Y1795D02*
X7Y1795D01*
X2105Y1795D02*
X2111Y1795D01*
X2128Y1795D02*
X2132Y1795D01*
X2141Y1795D02*
X2147Y1795D01*
X2189Y1795D02*
X2196Y1795D01*
X2205Y1795D02*
X2211Y1795D01*
X3148Y1795D02*
X3155Y1795D01*
X0Y1794D02*
X7Y1794D01*
X2105Y1794D02*
X2111Y1794D01*
X2128Y1794D02*
X2133Y1794D01*
X2141Y1794D02*
X2147Y1794D01*
X2188Y1794D02*
X2195Y1794D01*
X2205Y1794D02*
X2211Y1794D01*
X3148Y1794D02*
X3155Y1794D01*
X0Y1793D02*
X7Y1793D01*
X2105Y1793D02*
X2111Y1793D01*
X2127Y1793D02*
X2133Y1793D01*
X2141Y1793D02*
X2147Y1793D01*
X2187Y1793D02*
X2195Y1793D01*
X2205Y1793D02*
X2211Y1793D01*
X3148Y1793D02*
X3155Y1793D01*
X0Y1792D02*
X7Y1792D01*
X2105Y1792D02*
X2111Y1792D01*
X2127Y1792D02*
X2133Y1792D01*
X2141Y1792D02*
X2147Y1792D01*
X2187Y1792D02*
X2194Y1792D01*
X2205Y1792D02*
X2211Y1792D01*
X3148Y1792D02*
X3155Y1792D01*
X0Y1791D02*
X7Y1791D01*
X2105Y1791D02*
X2111Y1791D01*
X2127Y1791D02*
X2133Y1791D01*
X2141Y1791D02*
X2147Y1791D01*
X2186Y1791D02*
X2193Y1791D01*
X2205Y1791D02*
X2211Y1791D01*
X3148Y1791D02*
X3155Y1791D01*
X0Y1790D02*
X7Y1790D01*
X2105Y1790D02*
X2111Y1790D01*
X2127Y1790D02*
X2133Y1790D01*
X2141Y1790D02*
X2147Y1790D01*
X2186Y1790D02*
X2193Y1790D01*
X2205Y1790D02*
X2211Y1790D01*
X3148Y1790D02*
X3155Y1790D01*
X0Y1789D02*
X7Y1789D01*
X2105Y1789D02*
X2111Y1789D01*
X2127Y1789D02*
X2133Y1789D01*
X2141Y1789D02*
X2147Y1789D01*
X2185Y1789D02*
X2192Y1789D01*
X2205Y1789D02*
X2211Y1789D01*
X3148Y1789D02*
X3155Y1789D01*
X0Y1788D02*
X7Y1788D01*
X2105Y1788D02*
X2111Y1788D01*
X2127Y1788D02*
X2133Y1788D01*
X2141Y1788D02*
X2147Y1788D01*
X2184Y1788D02*
X2192Y1788D01*
X2205Y1788D02*
X2211Y1788D01*
X3148Y1788D02*
X3155Y1788D01*
X0Y1787D02*
X7Y1787D01*
X2105Y1787D02*
X2111Y1787D01*
X2127Y1787D02*
X2133Y1787D01*
X2141Y1787D02*
X2147Y1787D01*
X2184Y1787D02*
X2191Y1787D01*
X2205Y1787D02*
X2211Y1787D01*
X3148Y1787D02*
X3155Y1787D01*
X0Y1786D02*
X7Y1786D01*
X2105Y1786D02*
X2111Y1786D01*
X2127Y1786D02*
X2133Y1786D01*
X2141Y1786D02*
X2147Y1786D01*
X2183Y1786D02*
X2191Y1786D01*
X2205Y1786D02*
X2211Y1786D01*
X3148Y1786D02*
X3155Y1786D01*
X0Y1785D02*
X7Y1785D01*
X2105Y1785D02*
X2111Y1785D01*
X2127Y1785D02*
X2133Y1785D01*
X2141Y1785D02*
X2147Y1785D01*
X2183Y1785D02*
X2190Y1785D01*
X2205Y1785D02*
X2211Y1785D01*
X3148Y1785D02*
X3155Y1785D01*
X0Y1784D02*
X7Y1784D01*
X2105Y1784D02*
X2111Y1784D01*
X2127Y1784D02*
X2133Y1784D01*
X2141Y1784D02*
X2147Y1784D01*
X2182Y1784D02*
X2189Y1784D01*
X2205Y1784D02*
X2211Y1784D01*
X3148Y1784D02*
X3155Y1784D01*
X0Y1783D02*
X7Y1783D01*
X2105Y1783D02*
X2111Y1783D01*
X2127Y1783D02*
X2133Y1783D01*
X2141Y1783D02*
X2147Y1783D01*
X2182Y1783D02*
X2189Y1783D01*
X2205Y1783D02*
X2211Y1783D01*
X3148Y1783D02*
X3155Y1783D01*
X0Y1782D02*
X7Y1782D01*
X2105Y1782D02*
X2111Y1782D01*
X2127Y1782D02*
X2133Y1782D01*
X2141Y1782D02*
X2147Y1782D01*
X2181Y1782D02*
X2188Y1782D01*
X2205Y1782D02*
X2211Y1782D01*
X3148Y1782D02*
X3155Y1782D01*
X0Y1781D02*
X7Y1781D01*
X2105Y1781D02*
X2111Y1781D01*
X2127Y1781D02*
X2133Y1781D01*
X2141Y1781D02*
X2147Y1781D01*
X2180Y1781D02*
X2188Y1781D01*
X2205Y1781D02*
X2211Y1781D01*
X3148Y1781D02*
X3155Y1781D01*
X0Y1780D02*
X7Y1780D01*
X2105Y1780D02*
X2111Y1780D01*
X2127Y1780D02*
X2133Y1780D01*
X2141Y1780D02*
X2147Y1780D01*
X2180Y1780D02*
X2187Y1780D01*
X2205Y1780D02*
X2211Y1780D01*
X3148Y1780D02*
X3155Y1780D01*
X0Y1779D02*
X7Y1779D01*
X2105Y1779D02*
X2111Y1779D01*
X2127Y1779D02*
X2133Y1779D01*
X2141Y1779D02*
X2147Y1779D01*
X2179Y1779D02*
X2186Y1779D01*
X2205Y1779D02*
X2211Y1779D01*
X3148Y1779D02*
X3155Y1779D01*
X0Y1778D02*
X7Y1778D01*
X2087Y1778D02*
X2111Y1778D01*
X2127Y1778D02*
X2159Y1778D01*
X2179Y1778D02*
X2186Y1778D01*
X2205Y1778D02*
X2211Y1778D01*
X3148Y1778D02*
X3155Y1778D01*
X0Y1777D02*
X7Y1777D01*
X2086Y1777D02*
X2110Y1777D01*
X2127Y1777D02*
X2160Y1777D01*
X2178Y1777D02*
X2185Y1777D01*
X2205Y1777D02*
X2211Y1777D01*
X3148Y1777D02*
X3155Y1777D01*
X0Y1776D02*
X7Y1776D01*
X2085Y1776D02*
X2110Y1776D01*
X2127Y1776D02*
X2161Y1776D01*
X2178Y1776D02*
X2185Y1776D01*
X2205Y1776D02*
X2211Y1776D01*
X3148Y1776D02*
X3155Y1776D01*
X0Y1775D02*
X7Y1775D01*
X2084Y1775D02*
X2110Y1775D01*
X2127Y1775D02*
X2161Y1775D01*
X2178Y1775D02*
X2184Y1775D01*
X2205Y1775D02*
X2211Y1775D01*
X3148Y1775D02*
X3155Y1775D01*
X0Y1774D02*
X7Y1774D01*
X2083Y1774D02*
X2109Y1774D01*
X2128Y1774D02*
X2161Y1774D01*
X2178Y1774D02*
X2184Y1774D01*
X2205Y1774D02*
X2211Y1774D01*
X3148Y1774D02*
X3155Y1774D01*
X0Y1773D02*
X7Y1773D01*
X2082Y1773D02*
X2108Y1773D01*
X2128Y1773D02*
X2160Y1773D01*
X2178Y1773D02*
X2183Y1773D01*
X2206Y1773D02*
X2210Y1773D01*
X3148Y1773D02*
X3155Y1773D01*
X0Y1772D02*
X7Y1772D01*
X2082Y1772D02*
X2106Y1772D01*
X2129Y1772D02*
X2159Y1772D01*
X2180Y1772D02*
X2182Y1772D01*
X2207Y1772D02*
X2209Y1772D01*
X3148Y1772D02*
X3155Y1772D01*
X0Y1771D02*
X7Y1771D01*
X3148Y1771D02*
X3155Y1771D01*
X0Y1770D02*
X7Y1770D01*
X3148Y1770D02*
X3155Y1770D01*
X0Y1769D02*
X7Y1769D01*
X3148Y1769D02*
X3155Y1769D01*
X0Y1768D02*
X7Y1768D01*
X3148Y1768D02*
X3155Y1768D01*
X0Y1767D02*
X7Y1767D01*
X3148Y1767D02*
X3155Y1767D01*
X0Y1766D02*
X7Y1766D01*
X3148Y1766D02*
X3155Y1766D01*
X0Y1765D02*
X7Y1765D01*
X3148Y1765D02*
X3155Y1765D01*
X0Y1764D02*
X7Y1764D01*
X3148Y1764D02*
X3155Y1764D01*
X0Y1763D02*
X7Y1763D01*
X3148Y1763D02*
X3155Y1763D01*
X0Y1762D02*
X7Y1762D01*
X3148Y1762D02*
X3155Y1762D01*
X0Y1761D02*
X7Y1761D01*
X3148Y1761D02*
X3155Y1761D01*
X0Y1760D02*
X7Y1760D01*
X3148Y1760D02*
X3155Y1760D01*
X0Y1759D02*
X7Y1759D01*
X3148Y1759D02*
X3155Y1759D01*
X0Y1758D02*
X7Y1758D01*
X3148Y1758D02*
X3155Y1758D01*
X0Y1757D02*
X7Y1757D01*
X3148Y1757D02*
X3155Y1757D01*
X0Y1756D02*
X7Y1756D01*
X3148Y1756D02*
X3155Y1756D01*
X0Y1755D02*
X7Y1755D01*
X3148Y1755D02*
X3155Y1755D01*
X0Y1754D02*
X7Y1754D01*
X3148Y1754D02*
X3155Y1754D01*
X0Y1753D02*
X7Y1753D01*
X3148Y1753D02*
X3155Y1753D01*
X0Y1752D02*
X7Y1752D01*
X3148Y1752D02*
X3155Y1752D01*
X0Y1751D02*
X7Y1751D01*
X3148Y1751D02*
X3155Y1751D01*
X0Y1750D02*
X7Y1750D01*
X3148Y1750D02*
X3155Y1750D01*
X0Y1749D02*
X7Y1749D01*
X3148Y1749D02*
X3155Y1749D01*
X0Y1748D02*
X7Y1748D01*
X3148Y1748D02*
X3155Y1748D01*
X0Y1747D02*
X7Y1747D01*
X3148Y1747D02*
X3155Y1747D01*
X0Y1746D02*
X7Y1746D01*
X3148Y1746D02*
X3155Y1746D01*
X0Y1745D02*
X7Y1745D01*
X3148Y1745D02*
X3155Y1745D01*
X0Y1744D02*
X7Y1744D01*
X3148Y1744D02*
X3155Y1744D01*
X0Y1743D02*
X7Y1743D01*
X3148Y1743D02*
X3155Y1743D01*
X0Y1742D02*
X7Y1742D01*
X3148Y1742D02*
X3155Y1742D01*
X0Y1741D02*
X7Y1741D01*
X3148Y1741D02*
X3155Y1741D01*
X0Y1740D02*
X7Y1740D01*
X3148Y1740D02*
X3155Y1740D01*
X0Y1739D02*
X7Y1739D01*
X3148Y1739D02*
X3155Y1739D01*
X0Y1738D02*
X7Y1738D01*
X3148Y1738D02*
X3155Y1738D01*
X0Y1737D02*
X7Y1737D01*
X3148Y1737D02*
X3155Y1737D01*
X0Y1736D02*
X7Y1736D01*
X3148Y1736D02*
X3155Y1736D01*
X0Y1735D02*
X7Y1735D01*
X3148Y1735D02*
X3155Y1735D01*
X0Y1734D02*
X7Y1734D01*
X3148Y1734D02*
X3155Y1734D01*
X0Y1733D02*
X7Y1733D01*
X3148Y1733D02*
X3155Y1733D01*
X0Y1732D02*
X7Y1732D01*
X3148Y1732D02*
X3155Y1732D01*
X0Y1731D02*
X7Y1731D01*
X3148Y1731D02*
X3155Y1731D01*
X0Y1730D02*
X7Y1730D01*
X3148Y1730D02*
X3155Y1730D01*
X0Y1729D02*
X7Y1729D01*
X3148Y1729D02*
X3155Y1729D01*
X0Y1728D02*
X7Y1728D01*
X3148Y1728D02*
X3155Y1728D01*
X0Y1727D02*
X7Y1727D01*
X3148Y1727D02*
X3155Y1727D01*
X0Y1726D02*
X7Y1726D01*
X3148Y1726D02*
X3155Y1726D01*
X0Y1725D02*
X7Y1725D01*
X3148Y1725D02*
X3155Y1725D01*
X0Y1724D02*
X7Y1724D01*
X3148Y1724D02*
X3155Y1724D01*
X0Y1723D02*
X7Y1723D01*
X3148Y1723D02*
X3155Y1723D01*
X0Y1722D02*
X7Y1722D01*
X3148Y1722D02*
X3155Y1722D01*
X0Y1721D02*
X7Y1721D01*
X3148Y1721D02*
X3155Y1721D01*
X0Y1720D02*
X7Y1720D01*
X3148Y1720D02*
X3155Y1720D01*
X0Y1719D02*
X7Y1719D01*
X3148Y1719D02*
X3155Y1719D01*
X0Y1718D02*
X7Y1718D01*
X3148Y1718D02*
X3155Y1718D01*
X0Y1717D02*
X7Y1717D01*
X3148Y1717D02*
X3155Y1717D01*
X0Y1716D02*
X7Y1716D01*
X3148Y1716D02*
X3155Y1716D01*
X0Y1715D02*
X7Y1715D01*
X3148Y1715D02*
X3155Y1715D01*
X0Y1714D02*
X7Y1714D01*
X3148Y1714D02*
X3155Y1714D01*
X0Y1713D02*
X7Y1713D01*
X3148Y1713D02*
X3155Y1713D01*
X0Y1712D02*
X7Y1712D01*
X3148Y1712D02*
X3155Y1712D01*
X0Y1711D02*
X7Y1711D01*
X3148Y1711D02*
X3155Y1711D01*
X0Y1710D02*
X7Y1710D01*
X3148Y1710D02*
X3155Y1710D01*
X0Y1709D02*
X7Y1709D01*
X3148Y1709D02*
X3155Y1709D01*
X0Y1708D02*
X7Y1708D01*
X3148Y1708D02*
X3155Y1708D01*
X0Y1707D02*
X7Y1707D01*
X2300Y1707D02*
X2347Y1707D01*
X2548Y1707D02*
X2614Y1707D01*
X3148Y1707D02*
X3155Y1707D01*
X0Y1706D02*
X7Y1706D01*
X2300Y1706D02*
X2347Y1706D01*
X2548Y1706D02*
X2614Y1706D01*
X3148Y1706D02*
X3155Y1706D01*
X0Y1705D02*
X7Y1705D01*
X2300Y1705D02*
X2347Y1705D01*
X2548Y1705D02*
X2614Y1705D01*
X3148Y1705D02*
X3155Y1705D01*
X0Y1704D02*
X7Y1704D01*
X2300Y1704D02*
X2347Y1704D01*
X2548Y1704D02*
X2614Y1704D01*
X3148Y1704D02*
X3155Y1704D01*
X0Y1703D02*
X7Y1703D01*
X2300Y1703D02*
X2347Y1703D01*
X2548Y1703D02*
X2614Y1703D01*
X3148Y1703D02*
X3155Y1703D01*
X0Y1702D02*
X7Y1702D01*
X2300Y1702D02*
X2347Y1702D01*
X2548Y1702D02*
X2614Y1702D01*
X3148Y1702D02*
X3155Y1702D01*
X0Y1701D02*
X7Y1701D01*
X2300Y1701D02*
X2347Y1701D01*
X2548Y1701D02*
X2614Y1701D01*
X3148Y1701D02*
X3155Y1701D01*
X0Y1700D02*
X7Y1700D01*
X2300Y1700D02*
X2347Y1700D01*
X2548Y1700D02*
X2614Y1700D01*
X3148Y1700D02*
X3155Y1700D01*
X0Y1699D02*
X7Y1699D01*
X2300Y1699D02*
X2347Y1699D01*
X2548Y1699D02*
X2614Y1699D01*
X3148Y1699D02*
X3155Y1699D01*
X0Y1698D02*
X7Y1698D01*
X2300Y1698D02*
X2347Y1698D01*
X2548Y1698D02*
X2614Y1698D01*
X3148Y1698D02*
X3155Y1698D01*
X0Y1697D02*
X7Y1697D01*
X3148Y1697D02*
X3155Y1697D01*
X0Y1696D02*
X7Y1696D01*
X3148Y1696D02*
X3155Y1696D01*
X0Y1695D02*
X7Y1695D01*
X3148Y1695D02*
X3155Y1695D01*
X0Y1694D02*
X7Y1694D01*
X3148Y1694D02*
X3155Y1694D01*
X0Y1693D02*
X7Y1693D01*
X3148Y1693D02*
X3155Y1693D01*
X0Y1692D02*
X7Y1692D01*
X3148Y1692D02*
X3155Y1692D01*
X0Y1691D02*
X7Y1691D01*
X3148Y1691D02*
X3155Y1691D01*
X0Y1690D02*
X7Y1690D01*
X3148Y1690D02*
X3155Y1690D01*
X0Y1689D02*
X7Y1689D01*
X3148Y1689D02*
X3155Y1689D01*
X0Y1688D02*
X7Y1688D01*
X3148Y1688D02*
X3155Y1688D01*
X0Y1687D02*
X7Y1687D01*
X3148Y1687D02*
X3155Y1687D01*
X0Y1686D02*
X7Y1686D01*
X3148Y1686D02*
X3155Y1686D01*
X0Y1685D02*
X7Y1685D01*
X3148Y1685D02*
X3155Y1685D01*
X0Y1684D02*
X7Y1684D01*
X3148Y1684D02*
X3155Y1684D01*
X0Y1683D02*
X7Y1683D01*
X3148Y1683D02*
X3155Y1683D01*
X0Y1682D02*
X7Y1682D01*
X3148Y1682D02*
X3155Y1682D01*
X0Y1681D02*
X7Y1681D01*
X3148Y1681D02*
X3155Y1681D01*
X0Y1680D02*
X7Y1680D01*
X3148Y1680D02*
X3155Y1680D01*
X0Y1679D02*
X7Y1679D01*
X3148Y1679D02*
X3155Y1679D01*
X0Y1678D02*
X7Y1678D01*
X3148Y1678D02*
X3155Y1678D01*
X0Y1677D02*
X7Y1677D01*
X3148Y1677D02*
X3155Y1677D01*
X0Y1676D02*
X7Y1676D01*
X3148Y1676D02*
X3155Y1676D01*
X0Y1675D02*
X7Y1675D01*
X3148Y1675D02*
X3155Y1675D01*
X0Y1674D02*
X7Y1674D01*
X3148Y1674D02*
X3155Y1674D01*
X0Y1673D02*
X7Y1673D01*
X3148Y1673D02*
X3155Y1673D01*
X0Y1672D02*
X7Y1672D01*
X3148Y1672D02*
X3155Y1672D01*
X0Y1671D02*
X7Y1671D01*
X3148Y1671D02*
X3155Y1671D01*
X0Y1670D02*
X7Y1670D01*
X3148Y1670D02*
X3155Y1670D01*
X0Y1669D02*
X7Y1669D01*
X3148Y1669D02*
X3155Y1669D01*
X0Y1668D02*
X7Y1668D01*
X3148Y1668D02*
X3155Y1668D01*
X0Y1667D02*
X7Y1667D01*
X3148Y1667D02*
X3155Y1667D01*
X0Y1666D02*
X7Y1666D01*
X3148Y1666D02*
X3155Y1666D01*
X0Y1665D02*
X7Y1665D01*
X3148Y1665D02*
X3155Y1665D01*
X0Y1664D02*
X7Y1664D01*
X3148Y1664D02*
X3155Y1664D01*
X0Y1663D02*
X7Y1663D01*
X3148Y1663D02*
X3155Y1663D01*
X0Y1662D02*
X7Y1662D01*
X3148Y1662D02*
X3155Y1662D01*
X0Y1661D02*
X7Y1661D01*
X3148Y1661D02*
X3155Y1661D01*
X0Y1660D02*
X7Y1660D01*
X3148Y1660D02*
X3155Y1660D01*
X0Y1659D02*
X7Y1659D01*
X3148Y1659D02*
X3155Y1659D01*
X0Y1658D02*
X7Y1658D01*
X3148Y1658D02*
X3155Y1658D01*
X0Y1657D02*
X7Y1657D01*
X3148Y1657D02*
X3155Y1657D01*
X0Y1656D02*
X7Y1656D01*
X3148Y1656D02*
X3155Y1656D01*
X0Y1655D02*
X7Y1655D01*
X3148Y1655D02*
X3155Y1655D01*
X0Y1654D02*
X7Y1654D01*
X3148Y1654D02*
X3155Y1654D01*
X0Y1653D02*
X7Y1653D01*
X3148Y1653D02*
X3155Y1653D01*
X0Y1652D02*
X7Y1652D01*
X3148Y1652D02*
X3155Y1652D01*
X0Y1651D02*
X7Y1651D01*
X3148Y1651D02*
X3155Y1651D01*
X0Y1650D02*
X7Y1650D01*
X3148Y1650D02*
X3155Y1650D01*
X0Y1649D02*
X7Y1649D01*
X3148Y1649D02*
X3155Y1649D01*
X0Y1648D02*
X7Y1648D01*
X3148Y1648D02*
X3155Y1648D01*
X0Y1647D02*
X7Y1647D01*
X3148Y1647D02*
X3155Y1647D01*
X0Y1646D02*
X7Y1646D01*
X3148Y1646D02*
X3155Y1646D01*
X0Y1645D02*
X7Y1645D01*
X3148Y1645D02*
X3155Y1645D01*
X0Y1644D02*
X7Y1644D01*
X3148Y1644D02*
X3155Y1644D01*
X0Y1643D02*
X7Y1643D01*
X3148Y1643D02*
X3155Y1643D01*
X0Y1642D02*
X7Y1642D01*
X3148Y1642D02*
X3155Y1642D01*
X0Y1641D02*
X7Y1641D01*
X3148Y1641D02*
X3155Y1641D01*
X0Y1640D02*
X7Y1640D01*
X3148Y1640D02*
X3155Y1640D01*
X0Y1639D02*
X7Y1639D01*
X3148Y1639D02*
X3155Y1639D01*
X0Y1638D02*
X7Y1638D01*
X3148Y1638D02*
X3155Y1638D01*
X0Y1637D02*
X7Y1637D01*
X3148Y1637D02*
X3155Y1637D01*
X0Y1636D02*
X7Y1636D01*
X3148Y1636D02*
X3155Y1636D01*
X0Y1635D02*
X7Y1635D01*
X3148Y1635D02*
X3155Y1635D01*
X0Y1634D02*
X7Y1634D01*
X3148Y1634D02*
X3155Y1634D01*
X0Y1633D02*
X7Y1633D01*
X3148Y1633D02*
X3155Y1633D01*
X0Y1632D02*
X7Y1632D01*
X3148Y1632D02*
X3155Y1632D01*
X0Y1631D02*
X7Y1631D01*
X3148Y1631D02*
X3155Y1631D01*
X0Y1630D02*
X7Y1630D01*
X3148Y1630D02*
X3155Y1630D01*
X0Y1629D02*
X7Y1629D01*
X3148Y1629D02*
X3155Y1629D01*
X0Y1628D02*
X7Y1628D01*
X3148Y1628D02*
X3155Y1628D01*
X0Y1627D02*
X7Y1627D01*
X3148Y1627D02*
X3155Y1627D01*
X0Y1626D02*
X7Y1626D01*
X3148Y1626D02*
X3155Y1626D01*
X0Y1625D02*
X7Y1625D01*
X2129Y1625D02*
X2159Y1625D01*
X2184Y1625D02*
X2211Y1625D01*
X3148Y1625D02*
X3155Y1625D01*
X0Y1624D02*
X7Y1624D01*
X2128Y1624D02*
X2160Y1624D01*
X2182Y1624D02*
X2211Y1624D01*
X3148Y1624D02*
X3155Y1624D01*
X0Y1623D02*
X7Y1623D01*
X2127Y1623D02*
X2161Y1623D01*
X2181Y1623D02*
X2211Y1623D01*
X3148Y1623D02*
X3155Y1623D01*
X0Y1622D02*
X7Y1622D01*
X2127Y1622D02*
X2161Y1622D01*
X2180Y1622D02*
X2211Y1622D01*
X3148Y1622D02*
X3155Y1622D01*
X0Y1621D02*
X7Y1621D01*
X2127Y1621D02*
X2161Y1621D01*
X2179Y1621D02*
X2211Y1621D01*
X3148Y1621D02*
X3155Y1621D01*
X0Y1620D02*
X7Y1620D01*
X2127Y1620D02*
X2161Y1620D01*
X2179Y1620D02*
X2211Y1620D01*
X3148Y1620D02*
X3155Y1620D01*
X0Y1619D02*
X7Y1619D01*
X2127Y1619D02*
X2161Y1619D01*
X2178Y1619D02*
X2211Y1619D01*
X3148Y1619D02*
X3155Y1619D01*
X0Y1618D02*
X7Y1618D01*
X2127Y1618D02*
X2133Y1618D01*
X2155Y1618D02*
X2161Y1618D01*
X2178Y1618D02*
X2185Y1618D01*
X2205Y1618D02*
X2211Y1618D01*
X3148Y1618D02*
X3155Y1618D01*
X0Y1617D02*
X7Y1617D01*
X2127Y1617D02*
X2133Y1617D01*
X2155Y1617D02*
X2161Y1617D01*
X2178Y1617D02*
X2184Y1617D01*
X2205Y1617D02*
X2211Y1617D01*
X3148Y1617D02*
X3155Y1617D01*
X0Y1616D02*
X7Y1616D01*
X2127Y1616D02*
X2133Y1616D01*
X2155Y1616D02*
X2161Y1616D01*
X2178Y1616D02*
X2184Y1616D01*
X2205Y1616D02*
X2211Y1616D01*
X3148Y1616D02*
X3155Y1616D01*
X0Y1615D02*
X7Y1615D01*
X2127Y1615D02*
X2133Y1615D01*
X2155Y1615D02*
X2161Y1615D01*
X2178Y1615D02*
X2184Y1615D01*
X2205Y1615D02*
X2211Y1615D01*
X3148Y1615D02*
X3155Y1615D01*
X0Y1614D02*
X7Y1614D01*
X2127Y1614D02*
X2133Y1614D01*
X2155Y1614D02*
X2161Y1614D01*
X2178Y1614D02*
X2184Y1614D01*
X2205Y1614D02*
X2211Y1614D01*
X3148Y1614D02*
X3155Y1614D01*
X0Y1613D02*
X7Y1613D01*
X2127Y1613D02*
X2133Y1613D01*
X2155Y1613D02*
X2161Y1613D01*
X2178Y1613D02*
X2184Y1613D01*
X2205Y1613D02*
X2211Y1613D01*
X3148Y1613D02*
X3155Y1613D01*
X0Y1612D02*
X7Y1612D01*
X2127Y1612D02*
X2133Y1612D01*
X2155Y1612D02*
X2161Y1612D01*
X2178Y1612D02*
X2184Y1612D01*
X2205Y1612D02*
X2211Y1612D01*
X3148Y1612D02*
X3155Y1612D01*
X0Y1611D02*
X7Y1611D01*
X2127Y1611D02*
X2133Y1611D01*
X2155Y1611D02*
X2161Y1611D01*
X2178Y1611D02*
X2184Y1611D01*
X2205Y1611D02*
X2211Y1611D01*
X3148Y1611D02*
X3155Y1611D01*
X0Y1610D02*
X7Y1610D01*
X2127Y1610D02*
X2133Y1610D01*
X2155Y1610D02*
X2161Y1610D01*
X2178Y1610D02*
X2184Y1610D01*
X2205Y1610D02*
X2211Y1610D01*
X3148Y1610D02*
X3155Y1610D01*
X0Y1609D02*
X7Y1609D01*
X2127Y1609D02*
X2133Y1609D01*
X2155Y1609D02*
X2161Y1609D01*
X2178Y1609D02*
X2185Y1609D01*
X2205Y1609D02*
X2211Y1609D01*
X3148Y1609D02*
X3155Y1609D01*
X0Y1608D02*
X7Y1608D01*
X2127Y1608D02*
X2161Y1608D01*
X2178Y1608D02*
X2211Y1608D01*
X3148Y1608D02*
X3155Y1608D01*
X0Y1607D02*
X7Y1607D01*
X2127Y1607D02*
X2161Y1607D01*
X2179Y1607D02*
X2211Y1607D01*
X3148Y1607D02*
X3155Y1607D01*
X0Y1606D02*
X7Y1606D01*
X2127Y1606D02*
X2161Y1606D01*
X2179Y1606D02*
X2211Y1606D01*
X3148Y1606D02*
X3155Y1606D01*
X0Y1605D02*
X7Y1605D01*
X2127Y1605D02*
X2161Y1605D01*
X2180Y1605D02*
X2211Y1605D01*
X3148Y1605D02*
X3155Y1605D01*
X0Y1604D02*
X7Y1604D01*
X2127Y1604D02*
X2161Y1604D01*
X2181Y1604D02*
X2211Y1604D01*
X3148Y1604D02*
X3155Y1604D01*
X0Y1603D02*
X7Y1603D01*
X2127Y1603D02*
X2160Y1603D01*
X2182Y1603D02*
X2211Y1603D01*
X3148Y1603D02*
X3155Y1603D01*
X0Y1602D02*
X7Y1602D01*
X2127Y1602D02*
X2160Y1602D01*
X2184Y1602D02*
X2211Y1602D01*
X3148Y1602D02*
X3155Y1602D01*
X0Y1601D02*
X7Y1601D01*
X2127Y1601D02*
X2134Y1601D01*
X2192Y1601D02*
X2200Y1601D01*
X2205Y1601D02*
X2211Y1601D01*
X3148Y1601D02*
X3155Y1601D01*
X0Y1600D02*
X7Y1600D01*
X2127Y1600D02*
X2133Y1600D01*
X2191Y1600D02*
X2199Y1600D01*
X2205Y1600D02*
X2211Y1600D01*
X3148Y1600D02*
X3155Y1600D01*
X0Y1599D02*
X7Y1599D01*
X2127Y1599D02*
X2133Y1599D01*
X2191Y1599D02*
X2198Y1599D01*
X2205Y1599D02*
X2211Y1599D01*
X3148Y1599D02*
X3155Y1599D01*
X0Y1598D02*
X7Y1598D01*
X2127Y1598D02*
X2133Y1598D01*
X2190Y1598D02*
X2198Y1598D01*
X2205Y1598D02*
X2211Y1598D01*
X3148Y1598D02*
X3155Y1598D01*
X0Y1597D02*
X7Y1597D01*
X2127Y1597D02*
X2133Y1597D01*
X2190Y1597D02*
X2197Y1597D01*
X2205Y1597D02*
X2211Y1597D01*
X3148Y1597D02*
X3155Y1597D01*
X0Y1596D02*
X7Y1596D01*
X2127Y1596D02*
X2133Y1596D01*
X2189Y1596D02*
X2196Y1596D01*
X2205Y1596D02*
X2211Y1596D01*
X3148Y1596D02*
X3155Y1596D01*
X0Y1595D02*
X7Y1595D01*
X2127Y1595D02*
X2133Y1595D01*
X2189Y1595D02*
X2196Y1595D01*
X2205Y1595D02*
X2211Y1595D01*
X3148Y1595D02*
X3155Y1595D01*
X0Y1594D02*
X7Y1594D01*
X2127Y1594D02*
X2133Y1594D01*
X2188Y1594D02*
X2195Y1594D01*
X2205Y1594D02*
X2211Y1594D01*
X3148Y1594D02*
X3155Y1594D01*
X0Y1593D02*
X7Y1593D01*
X2127Y1593D02*
X2133Y1593D01*
X2187Y1593D02*
X2195Y1593D01*
X2205Y1593D02*
X2211Y1593D01*
X3148Y1593D02*
X3155Y1593D01*
X0Y1592D02*
X7Y1592D01*
X2127Y1592D02*
X2133Y1592D01*
X2187Y1592D02*
X2194Y1592D01*
X2205Y1592D02*
X2211Y1592D01*
X3148Y1592D02*
X3155Y1592D01*
X0Y1591D02*
X7Y1591D01*
X2127Y1591D02*
X2133Y1591D01*
X2186Y1591D02*
X2193Y1591D01*
X2205Y1591D02*
X2211Y1591D01*
X3148Y1591D02*
X3155Y1591D01*
X0Y1590D02*
X7Y1590D01*
X2127Y1590D02*
X2133Y1590D01*
X2186Y1590D02*
X2193Y1590D01*
X2205Y1590D02*
X2211Y1590D01*
X3148Y1590D02*
X3155Y1590D01*
X0Y1589D02*
X7Y1589D01*
X2127Y1589D02*
X2133Y1589D01*
X2185Y1589D02*
X2192Y1589D01*
X2205Y1589D02*
X2211Y1589D01*
X3148Y1589D02*
X3155Y1589D01*
X0Y1588D02*
X7Y1588D01*
X2127Y1588D02*
X2133Y1588D01*
X2184Y1588D02*
X2192Y1588D01*
X2205Y1588D02*
X2211Y1588D01*
X3148Y1588D02*
X3155Y1588D01*
X0Y1587D02*
X7Y1587D01*
X2127Y1587D02*
X2133Y1587D01*
X2184Y1587D02*
X2191Y1587D01*
X2205Y1587D02*
X2211Y1587D01*
X3148Y1587D02*
X3155Y1587D01*
X0Y1586D02*
X7Y1586D01*
X2127Y1586D02*
X2133Y1586D01*
X2183Y1586D02*
X2191Y1586D01*
X2205Y1586D02*
X2211Y1586D01*
X3148Y1586D02*
X3155Y1586D01*
X0Y1585D02*
X7Y1585D01*
X2127Y1585D02*
X2133Y1585D01*
X2183Y1585D02*
X2190Y1585D01*
X2205Y1585D02*
X2211Y1585D01*
X3148Y1585D02*
X3155Y1585D01*
X0Y1584D02*
X7Y1584D01*
X2127Y1584D02*
X2133Y1584D01*
X2182Y1584D02*
X2189Y1584D01*
X2205Y1584D02*
X2211Y1584D01*
X3148Y1584D02*
X3155Y1584D01*
X0Y1583D02*
X7Y1583D01*
X2127Y1583D02*
X2133Y1583D01*
X2182Y1583D02*
X2189Y1583D01*
X2205Y1583D02*
X2211Y1583D01*
X3148Y1583D02*
X3155Y1583D01*
X0Y1582D02*
X7Y1582D01*
X2127Y1582D02*
X2133Y1582D01*
X2181Y1582D02*
X2188Y1582D01*
X2205Y1582D02*
X2211Y1582D01*
X3148Y1582D02*
X3155Y1582D01*
X0Y1581D02*
X7Y1581D01*
X2127Y1581D02*
X2133Y1581D01*
X2180Y1581D02*
X2188Y1581D01*
X2205Y1581D02*
X2211Y1581D01*
X3148Y1581D02*
X3155Y1581D01*
X0Y1580D02*
X7Y1580D01*
X2127Y1580D02*
X2133Y1580D01*
X2180Y1580D02*
X2187Y1580D01*
X2205Y1580D02*
X2211Y1580D01*
X3148Y1580D02*
X3155Y1580D01*
X0Y1579D02*
X7Y1579D01*
X2127Y1579D02*
X2133Y1579D01*
X2179Y1579D02*
X2186Y1579D01*
X2205Y1579D02*
X2211Y1579D01*
X3148Y1579D02*
X3155Y1579D01*
X0Y1578D02*
X7Y1578D01*
X2127Y1578D02*
X2135Y1578D01*
X2179Y1578D02*
X2186Y1578D01*
X2205Y1578D02*
X2211Y1578D01*
X3148Y1578D02*
X3155Y1578D01*
X0Y1577D02*
X7Y1577D01*
X2127Y1577D02*
X2136Y1577D01*
X2178Y1577D02*
X2185Y1577D01*
X2205Y1577D02*
X2211Y1577D01*
X3148Y1577D02*
X3155Y1577D01*
X0Y1576D02*
X7Y1576D01*
X2127Y1576D02*
X2137Y1576D01*
X2178Y1576D02*
X2185Y1576D01*
X2205Y1576D02*
X2211Y1576D01*
X3148Y1576D02*
X3155Y1576D01*
X0Y1575D02*
X7Y1575D01*
X2127Y1575D02*
X2137Y1575D01*
X2178Y1575D02*
X2184Y1575D01*
X2205Y1575D02*
X2211Y1575D01*
X3148Y1575D02*
X3155Y1575D01*
X0Y1574D02*
X7Y1574D01*
X2128Y1574D02*
X2137Y1574D01*
X2178Y1574D02*
X2184Y1574D01*
X2205Y1574D02*
X2211Y1574D01*
X3148Y1574D02*
X3155Y1574D01*
X0Y1573D02*
X7Y1573D01*
X2128Y1573D02*
X2136Y1573D01*
X2178Y1573D02*
X2183Y1573D01*
X2206Y1573D02*
X2210Y1573D01*
X3148Y1573D02*
X3155Y1573D01*
X0Y1572D02*
X7Y1572D01*
X2129Y1572D02*
X2135Y1572D01*
X2180Y1572D02*
X2182Y1572D01*
X2207Y1572D02*
X2209Y1572D01*
X3148Y1572D02*
X3155Y1572D01*
X0Y1571D02*
X7Y1571D01*
X3148Y1571D02*
X3155Y1571D01*
X0Y1570D02*
X7Y1570D01*
X3148Y1570D02*
X3155Y1570D01*
X0Y1569D02*
X7Y1569D01*
X3148Y1569D02*
X3155Y1569D01*
X0Y1568D02*
X7Y1568D01*
X3148Y1568D02*
X3155Y1568D01*
X0Y1567D02*
X7Y1567D01*
X3148Y1567D02*
X3155Y1567D01*
X0Y1566D02*
X7Y1566D01*
X3148Y1566D02*
X3155Y1566D01*
X0Y1565D02*
X7Y1565D01*
X3148Y1565D02*
X3155Y1565D01*
X0Y1564D02*
X7Y1564D01*
X3148Y1564D02*
X3155Y1564D01*
X0Y1563D02*
X7Y1563D01*
X3148Y1563D02*
X3155Y1563D01*
X0Y1562D02*
X7Y1562D01*
X3148Y1562D02*
X3155Y1562D01*
X0Y1561D02*
X7Y1561D01*
X3148Y1561D02*
X3155Y1561D01*
X0Y1560D02*
X7Y1560D01*
X3148Y1560D02*
X3155Y1560D01*
X0Y1559D02*
X7Y1559D01*
X3148Y1559D02*
X3155Y1559D01*
X0Y1558D02*
X7Y1558D01*
X3148Y1558D02*
X3155Y1558D01*
X0Y1557D02*
X7Y1557D01*
X3148Y1557D02*
X3155Y1557D01*
X0Y1556D02*
X7Y1556D01*
X3148Y1556D02*
X3155Y1556D01*
X0Y1555D02*
X7Y1555D01*
X3148Y1555D02*
X3155Y1555D01*
X0Y1554D02*
X7Y1554D01*
X3148Y1554D02*
X3155Y1554D01*
X0Y1553D02*
X7Y1553D01*
X3148Y1553D02*
X3155Y1553D01*
X0Y1552D02*
X7Y1552D01*
X3148Y1552D02*
X3155Y1552D01*
X0Y1551D02*
X7Y1551D01*
X3148Y1551D02*
X3155Y1551D01*
X0Y1550D02*
X7Y1550D01*
X3148Y1550D02*
X3155Y1550D01*
X0Y1549D02*
X7Y1549D01*
X3148Y1549D02*
X3155Y1549D01*
X0Y1548D02*
X7Y1548D01*
X3148Y1548D02*
X3155Y1548D01*
X0Y1547D02*
X7Y1547D01*
X3148Y1547D02*
X3155Y1547D01*
X0Y1546D02*
X7Y1546D01*
X3148Y1546D02*
X3155Y1546D01*
X0Y1545D02*
X7Y1545D01*
X3148Y1545D02*
X3155Y1545D01*
X0Y1544D02*
X7Y1544D01*
X3148Y1544D02*
X3155Y1544D01*
X0Y1543D02*
X7Y1543D01*
X3148Y1543D02*
X3155Y1543D01*
X0Y1542D02*
X7Y1542D01*
X3148Y1542D02*
X3155Y1542D01*
X0Y1541D02*
X7Y1541D01*
X3148Y1541D02*
X3155Y1541D01*
X0Y1540D02*
X7Y1540D01*
X3148Y1540D02*
X3155Y1540D01*
X0Y1539D02*
X7Y1539D01*
X3148Y1539D02*
X3155Y1539D01*
X0Y1538D02*
X7Y1538D01*
X3148Y1538D02*
X3155Y1538D01*
X0Y1537D02*
X7Y1537D01*
X3148Y1537D02*
X3155Y1537D01*
X0Y1536D02*
X7Y1536D01*
X3148Y1536D02*
X3155Y1536D01*
X0Y1535D02*
X7Y1535D01*
X3148Y1535D02*
X3155Y1535D01*
X0Y1534D02*
X7Y1534D01*
X3148Y1534D02*
X3155Y1534D01*
X0Y1533D02*
X7Y1533D01*
X3148Y1533D02*
X3155Y1533D01*
X0Y1532D02*
X7Y1532D01*
X3148Y1532D02*
X3155Y1532D01*
X0Y1531D02*
X7Y1531D01*
X3148Y1531D02*
X3155Y1531D01*
X0Y1530D02*
X7Y1530D01*
X3148Y1530D02*
X3155Y1530D01*
X0Y1529D02*
X7Y1529D01*
X3148Y1529D02*
X3155Y1529D01*
X0Y1528D02*
X7Y1528D01*
X3148Y1528D02*
X3155Y1528D01*
X0Y1527D02*
X7Y1527D01*
X3148Y1527D02*
X3155Y1527D01*
X0Y1526D02*
X7Y1526D01*
X3148Y1526D02*
X3155Y1526D01*
X0Y1525D02*
X7Y1525D01*
X3148Y1525D02*
X3155Y1525D01*
X0Y1524D02*
X7Y1524D01*
X3148Y1524D02*
X3155Y1524D01*
X0Y1523D02*
X7Y1523D01*
X3148Y1523D02*
X3155Y1523D01*
X0Y1522D02*
X7Y1522D01*
X3148Y1522D02*
X3155Y1522D01*
X0Y1521D02*
X7Y1521D01*
X3148Y1521D02*
X3155Y1521D01*
X0Y1520D02*
X7Y1520D01*
X3148Y1520D02*
X3155Y1520D01*
X0Y1519D02*
X7Y1519D01*
X3148Y1519D02*
X3155Y1519D01*
X0Y1518D02*
X7Y1518D01*
X3148Y1518D02*
X3155Y1518D01*
X0Y1517D02*
X7Y1517D01*
X3148Y1517D02*
X3155Y1517D01*
X0Y1516D02*
X7Y1516D01*
X3148Y1516D02*
X3155Y1516D01*
X0Y1515D02*
X7Y1515D01*
X3148Y1515D02*
X3155Y1515D01*
X0Y1514D02*
X7Y1514D01*
X3148Y1514D02*
X3155Y1514D01*
X0Y1513D02*
X7Y1513D01*
X3148Y1513D02*
X3155Y1513D01*
X0Y1512D02*
X7Y1512D01*
X3148Y1512D02*
X3155Y1512D01*
X0Y1511D02*
X7Y1511D01*
X3148Y1511D02*
X3155Y1511D01*
X0Y1510D02*
X7Y1510D01*
X3148Y1510D02*
X3155Y1510D01*
X0Y1509D02*
X7Y1509D01*
X3148Y1509D02*
X3155Y1509D01*
X0Y1508D02*
X7Y1508D01*
X3148Y1508D02*
X3155Y1508D01*
X0Y1507D02*
X7Y1507D01*
X2300Y1507D02*
X2347Y1507D01*
X2548Y1507D02*
X2614Y1507D01*
X3148Y1507D02*
X3155Y1507D01*
X0Y1506D02*
X7Y1506D01*
X2300Y1506D02*
X2347Y1506D01*
X2548Y1506D02*
X2614Y1506D01*
X3148Y1506D02*
X3155Y1506D01*
X0Y1505D02*
X7Y1505D01*
X2300Y1505D02*
X2347Y1505D01*
X2548Y1505D02*
X2614Y1505D01*
X3148Y1505D02*
X3155Y1505D01*
X0Y1504D02*
X7Y1504D01*
X2300Y1504D02*
X2347Y1504D01*
X2548Y1504D02*
X2614Y1504D01*
X3148Y1504D02*
X3155Y1504D01*
X0Y1503D02*
X7Y1503D01*
X2300Y1503D02*
X2347Y1503D01*
X2548Y1503D02*
X2614Y1503D01*
X3148Y1503D02*
X3155Y1503D01*
X0Y1502D02*
X7Y1502D01*
X2300Y1502D02*
X2347Y1502D01*
X2548Y1502D02*
X2614Y1502D01*
X3148Y1502D02*
X3155Y1502D01*
X0Y1501D02*
X7Y1501D01*
X2300Y1501D02*
X2347Y1501D01*
X2548Y1501D02*
X2614Y1501D01*
X3148Y1501D02*
X3155Y1501D01*
X0Y1500D02*
X7Y1500D01*
X2300Y1500D02*
X2347Y1500D01*
X2548Y1500D02*
X2614Y1500D01*
X3148Y1500D02*
X3155Y1500D01*
X0Y1499D02*
X7Y1499D01*
X2300Y1499D02*
X2347Y1499D01*
X2548Y1499D02*
X2614Y1499D01*
X3148Y1499D02*
X3155Y1499D01*
X0Y1498D02*
X7Y1498D01*
X2300Y1498D02*
X2347Y1498D01*
X2548Y1498D02*
X2614Y1498D01*
X3148Y1498D02*
X3155Y1498D01*
X0Y1497D02*
X7Y1497D01*
X3148Y1497D02*
X3155Y1497D01*
X0Y1496D02*
X7Y1496D01*
X3148Y1496D02*
X3155Y1496D01*
X0Y1495D02*
X7Y1495D01*
X3148Y1495D02*
X3155Y1495D01*
X0Y1494D02*
X7Y1494D01*
X3148Y1494D02*
X3155Y1494D01*
X0Y1493D02*
X7Y1493D01*
X3148Y1493D02*
X3155Y1493D01*
X0Y1492D02*
X7Y1492D01*
X3148Y1492D02*
X3155Y1492D01*
X0Y1491D02*
X7Y1491D01*
X3148Y1491D02*
X3155Y1491D01*
X0Y1490D02*
X7Y1490D01*
X3148Y1490D02*
X3155Y1490D01*
X0Y1489D02*
X7Y1489D01*
X3148Y1489D02*
X3155Y1489D01*
X0Y1488D02*
X7Y1488D01*
X3148Y1488D02*
X3155Y1488D01*
X0Y1487D02*
X7Y1487D01*
X3148Y1487D02*
X3155Y1487D01*
X0Y1486D02*
X7Y1486D01*
X3148Y1486D02*
X3155Y1486D01*
X0Y1485D02*
X7Y1485D01*
X3148Y1485D02*
X3155Y1485D01*
X0Y1484D02*
X7Y1484D01*
X3148Y1484D02*
X3155Y1484D01*
X0Y1483D02*
X7Y1483D01*
X3148Y1483D02*
X3155Y1483D01*
X0Y1482D02*
X7Y1482D01*
X3148Y1482D02*
X3155Y1482D01*
X0Y1481D02*
X7Y1481D01*
X3148Y1481D02*
X3155Y1481D01*
X0Y1480D02*
X7Y1480D01*
X3148Y1480D02*
X3155Y1480D01*
X0Y1479D02*
X7Y1479D01*
X3148Y1479D02*
X3155Y1479D01*
X0Y1478D02*
X7Y1478D01*
X3148Y1478D02*
X3155Y1478D01*
X0Y1477D02*
X7Y1477D01*
X3148Y1477D02*
X3155Y1477D01*
X0Y1476D02*
X7Y1476D01*
X3148Y1476D02*
X3155Y1476D01*
X0Y1475D02*
X7Y1475D01*
X3148Y1475D02*
X3155Y1475D01*
X0Y1474D02*
X7Y1474D01*
X3148Y1474D02*
X3155Y1474D01*
X0Y1473D02*
X7Y1473D01*
X3148Y1473D02*
X3155Y1473D01*
X0Y1472D02*
X7Y1472D01*
X3148Y1472D02*
X3155Y1472D01*
X0Y1471D02*
X7Y1471D01*
X3148Y1471D02*
X3155Y1471D01*
X0Y1470D02*
X7Y1470D01*
X3148Y1470D02*
X3155Y1470D01*
X0Y1469D02*
X7Y1469D01*
X3148Y1469D02*
X3155Y1469D01*
X0Y1468D02*
X7Y1468D01*
X3148Y1468D02*
X3155Y1468D01*
X0Y1467D02*
X7Y1467D01*
X3148Y1467D02*
X3155Y1467D01*
X0Y1466D02*
X7Y1466D01*
X3148Y1466D02*
X3155Y1466D01*
X0Y1465D02*
X7Y1465D01*
X3148Y1465D02*
X3155Y1465D01*
X0Y1464D02*
X7Y1464D01*
X3148Y1464D02*
X3155Y1464D01*
X0Y1463D02*
X7Y1463D01*
X3148Y1463D02*
X3155Y1463D01*
X0Y1462D02*
X7Y1462D01*
X3148Y1462D02*
X3155Y1462D01*
X0Y1461D02*
X7Y1461D01*
X3148Y1461D02*
X3155Y1461D01*
X0Y1460D02*
X7Y1460D01*
X3148Y1460D02*
X3155Y1460D01*
X0Y1459D02*
X7Y1459D01*
X3148Y1459D02*
X3155Y1459D01*
X0Y1458D02*
X7Y1458D01*
X3148Y1458D02*
X3155Y1458D01*
X0Y1457D02*
X7Y1457D01*
X3148Y1457D02*
X3155Y1457D01*
X0Y1456D02*
X7Y1456D01*
X3148Y1456D02*
X3155Y1456D01*
X0Y1455D02*
X7Y1455D01*
X3148Y1455D02*
X3155Y1455D01*
X0Y1454D02*
X7Y1454D01*
X3148Y1454D02*
X3155Y1454D01*
X0Y1453D02*
X7Y1453D01*
X3148Y1453D02*
X3155Y1453D01*
X0Y1452D02*
X7Y1452D01*
X3148Y1452D02*
X3155Y1452D01*
X0Y1451D02*
X7Y1451D01*
X3148Y1451D02*
X3155Y1451D01*
X0Y1450D02*
X7Y1450D01*
X3148Y1450D02*
X3155Y1450D01*
X0Y1449D02*
X7Y1449D01*
X3148Y1449D02*
X3155Y1449D01*
X0Y1448D02*
X7Y1448D01*
X3148Y1448D02*
X3155Y1448D01*
X0Y1447D02*
X7Y1447D01*
X3148Y1447D02*
X3155Y1447D01*
X0Y1446D02*
X7Y1446D01*
X3148Y1446D02*
X3155Y1446D01*
X0Y1445D02*
X7Y1445D01*
X3148Y1445D02*
X3155Y1445D01*
X0Y1444D02*
X7Y1444D01*
X3148Y1444D02*
X3155Y1444D01*
X0Y1443D02*
X7Y1443D01*
X3148Y1443D02*
X3155Y1443D01*
X0Y1442D02*
X7Y1442D01*
X3148Y1442D02*
X3155Y1442D01*
X0Y1441D02*
X7Y1441D01*
X3148Y1441D02*
X3155Y1441D01*
X0Y1440D02*
X7Y1440D01*
X3148Y1440D02*
X3155Y1440D01*
X0Y1439D02*
X7Y1439D01*
X3148Y1439D02*
X3155Y1439D01*
X0Y1438D02*
X7Y1438D01*
X3148Y1438D02*
X3155Y1438D01*
X0Y1437D02*
X7Y1437D01*
X3148Y1437D02*
X3155Y1437D01*
X0Y1436D02*
X7Y1436D01*
X3148Y1436D02*
X3155Y1436D01*
X0Y1435D02*
X7Y1435D01*
X3148Y1435D02*
X3155Y1435D01*
X0Y1434D02*
X7Y1434D01*
X3148Y1434D02*
X3155Y1434D01*
X0Y1433D02*
X7Y1433D01*
X3148Y1433D02*
X3155Y1433D01*
X0Y1432D02*
X7Y1432D01*
X3148Y1432D02*
X3155Y1432D01*
X0Y1431D02*
X7Y1431D01*
X3148Y1431D02*
X3155Y1431D01*
X0Y1430D02*
X7Y1430D01*
X3148Y1430D02*
X3155Y1430D01*
X0Y1429D02*
X7Y1429D01*
X3148Y1429D02*
X3155Y1429D01*
X0Y1428D02*
X7Y1428D01*
X3148Y1428D02*
X3155Y1428D01*
X0Y1427D02*
X7Y1427D01*
X3148Y1427D02*
X3155Y1427D01*
X0Y1426D02*
X7Y1426D01*
X3148Y1426D02*
X3155Y1426D01*
X0Y1425D02*
X7Y1425D01*
X2091Y1425D02*
X2109Y1425D01*
X2141Y1425D02*
X2159Y1425D01*
X2184Y1425D02*
X2211Y1425D01*
X3148Y1425D02*
X3155Y1425D01*
X0Y1424D02*
X7Y1424D01*
X2091Y1424D02*
X2110Y1424D01*
X2141Y1424D02*
X2160Y1424D01*
X2182Y1424D02*
X2211Y1424D01*
X3148Y1424D02*
X3155Y1424D01*
X0Y1423D02*
X7Y1423D01*
X2091Y1423D02*
X2111Y1423D01*
X2141Y1423D02*
X2161Y1423D01*
X2181Y1423D02*
X2211Y1423D01*
X3148Y1423D02*
X3155Y1423D01*
X0Y1422D02*
X7Y1422D01*
X2091Y1422D02*
X2111Y1422D01*
X2141Y1422D02*
X2161Y1422D01*
X2180Y1422D02*
X2211Y1422D01*
X3148Y1422D02*
X3155Y1422D01*
X0Y1421D02*
X7Y1421D01*
X2091Y1421D02*
X2110Y1421D01*
X2141Y1421D02*
X2161Y1421D01*
X2179Y1421D02*
X2211Y1421D01*
X3148Y1421D02*
X3155Y1421D01*
X0Y1420D02*
X7Y1420D01*
X2091Y1420D02*
X2110Y1420D01*
X2141Y1420D02*
X2160Y1420D01*
X2179Y1420D02*
X2211Y1420D01*
X3148Y1420D02*
X3155Y1420D01*
X0Y1419D02*
X7Y1419D01*
X2091Y1419D02*
X2108Y1419D01*
X2141Y1419D02*
X2159Y1419D01*
X2178Y1419D02*
X2211Y1419D01*
X3148Y1419D02*
X3155Y1419D01*
X0Y1418D02*
X7Y1418D01*
X2091Y1418D02*
X2097Y1418D01*
X2141Y1418D02*
X2147Y1418D01*
X2178Y1418D02*
X2185Y1418D01*
X2205Y1418D02*
X2211Y1418D01*
X3148Y1418D02*
X3155Y1418D01*
X0Y1417D02*
X7Y1417D01*
X2091Y1417D02*
X2097Y1417D01*
X2141Y1417D02*
X2147Y1417D01*
X2178Y1417D02*
X2184Y1417D01*
X2205Y1417D02*
X2211Y1417D01*
X3148Y1417D02*
X3155Y1417D01*
X0Y1416D02*
X7Y1416D01*
X2091Y1416D02*
X2097Y1416D01*
X2141Y1416D02*
X2147Y1416D01*
X2178Y1416D02*
X2184Y1416D01*
X2205Y1416D02*
X2211Y1416D01*
X3148Y1416D02*
X3155Y1416D01*
X0Y1415D02*
X7Y1415D01*
X2091Y1415D02*
X2097Y1415D01*
X2141Y1415D02*
X2147Y1415D01*
X2178Y1415D02*
X2184Y1415D01*
X2205Y1415D02*
X2211Y1415D01*
X3148Y1415D02*
X3155Y1415D01*
X0Y1414D02*
X7Y1414D01*
X2091Y1414D02*
X2097Y1414D01*
X2141Y1414D02*
X2147Y1414D01*
X2178Y1414D02*
X2184Y1414D01*
X2205Y1414D02*
X2211Y1414D01*
X3148Y1414D02*
X3155Y1414D01*
X0Y1413D02*
X7Y1413D01*
X2091Y1413D02*
X2097Y1413D01*
X2141Y1413D02*
X2147Y1413D01*
X2178Y1413D02*
X2184Y1413D01*
X2205Y1413D02*
X2211Y1413D01*
X3148Y1413D02*
X3155Y1413D01*
X0Y1412D02*
X7Y1412D01*
X2091Y1412D02*
X2097Y1412D01*
X2141Y1412D02*
X2147Y1412D01*
X2178Y1412D02*
X2184Y1412D01*
X2205Y1412D02*
X2211Y1412D01*
X3148Y1412D02*
X3155Y1412D01*
X0Y1411D02*
X7Y1411D01*
X2091Y1411D02*
X2097Y1411D01*
X2141Y1411D02*
X2147Y1411D01*
X2178Y1411D02*
X2184Y1411D01*
X2205Y1411D02*
X2211Y1411D01*
X3148Y1411D02*
X3155Y1411D01*
X0Y1410D02*
X7Y1410D01*
X2091Y1410D02*
X2097Y1410D01*
X2141Y1410D02*
X2147Y1410D01*
X2178Y1410D02*
X2184Y1410D01*
X2205Y1410D02*
X2211Y1410D01*
X3148Y1410D02*
X3155Y1410D01*
X0Y1409D02*
X7Y1409D01*
X2091Y1409D02*
X2097Y1409D01*
X2141Y1409D02*
X2147Y1409D01*
X2178Y1409D02*
X2185Y1409D01*
X2205Y1409D02*
X2211Y1409D01*
X3148Y1409D02*
X3155Y1409D01*
X0Y1408D02*
X7Y1408D01*
X2091Y1408D02*
X2097Y1408D01*
X2141Y1408D02*
X2147Y1408D01*
X2178Y1408D02*
X2211Y1408D01*
X3148Y1408D02*
X3155Y1408D01*
X0Y1407D02*
X7Y1407D01*
X2091Y1407D02*
X2097Y1407D01*
X2141Y1407D02*
X2147Y1407D01*
X2179Y1407D02*
X2211Y1407D01*
X3148Y1407D02*
X3155Y1407D01*
X0Y1406D02*
X7Y1406D01*
X2091Y1406D02*
X2097Y1406D01*
X2141Y1406D02*
X2147Y1406D01*
X2179Y1406D02*
X2211Y1406D01*
X3148Y1406D02*
X3155Y1406D01*
X0Y1405D02*
X7Y1405D01*
X2091Y1405D02*
X2097Y1405D01*
X2141Y1405D02*
X2147Y1405D01*
X2180Y1405D02*
X2211Y1405D01*
X3148Y1405D02*
X3155Y1405D01*
X0Y1404D02*
X7Y1404D01*
X2091Y1404D02*
X2097Y1404D01*
X2141Y1404D02*
X2147Y1404D01*
X2181Y1404D02*
X2211Y1404D01*
X3148Y1404D02*
X3155Y1404D01*
X0Y1403D02*
X7Y1403D01*
X2091Y1403D02*
X2097Y1403D01*
X2141Y1403D02*
X2147Y1403D01*
X2182Y1403D02*
X2211Y1403D01*
X3148Y1403D02*
X3155Y1403D01*
X0Y1402D02*
X7Y1402D01*
X2091Y1402D02*
X2097Y1402D01*
X2141Y1402D02*
X2147Y1402D01*
X2184Y1402D02*
X2211Y1402D01*
X3148Y1402D02*
X3155Y1402D01*
X0Y1401D02*
X7Y1401D01*
X2091Y1401D02*
X2097Y1401D01*
X2141Y1401D02*
X2147Y1401D01*
X2192Y1401D02*
X2200Y1401D01*
X2205Y1401D02*
X2211Y1401D01*
X3148Y1401D02*
X3155Y1401D01*
X0Y1400D02*
X7Y1400D01*
X2091Y1400D02*
X2097Y1400D01*
X2141Y1400D02*
X2147Y1400D01*
X2191Y1400D02*
X2199Y1400D01*
X2205Y1400D02*
X2211Y1400D01*
X3148Y1400D02*
X3155Y1400D01*
X0Y1399D02*
X7Y1399D01*
X2091Y1399D02*
X2097Y1399D01*
X2141Y1399D02*
X2147Y1399D01*
X2191Y1399D02*
X2198Y1399D01*
X2205Y1399D02*
X2211Y1399D01*
X3148Y1399D02*
X3155Y1399D01*
X0Y1398D02*
X7Y1398D01*
X2091Y1398D02*
X2097Y1398D01*
X2141Y1398D02*
X2147Y1398D01*
X2190Y1398D02*
X2198Y1398D01*
X2205Y1398D02*
X2211Y1398D01*
X3148Y1398D02*
X3155Y1398D01*
X0Y1397D02*
X7Y1397D01*
X2091Y1397D02*
X2097Y1397D01*
X2141Y1397D02*
X2147Y1397D01*
X2190Y1397D02*
X2197Y1397D01*
X2205Y1397D02*
X2211Y1397D01*
X3148Y1397D02*
X3155Y1397D01*
X0Y1396D02*
X7Y1396D01*
X2079Y1396D02*
X2081Y1396D01*
X2091Y1396D02*
X2097Y1396D01*
X2129Y1396D02*
X2131Y1396D01*
X2141Y1396D02*
X2147Y1396D01*
X2189Y1396D02*
X2196Y1396D01*
X2205Y1396D02*
X2211Y1396D01*
X3148Y1396D02*
X3155Y1396D01*
X0Y1395D02*
X7Y1395D01*
X2078Y1395D02*
X2082Y1395D01*
X2091Y1395D02*
X2097Y1395D01*
X2128Y1395D02*
X2132Y1395D01*
X2141Y1395D02*
X2147Y1395D01*
X2189Y1395D02*
X2196Y1395D01*
X2205Y1395D02*
X2211Y1395D01*
X3148Y1395D02*
X3155Y1395D01*
X0Y1394D02*
X7Y1394D01*
X2077Y1394D02*
X2083Y1394D01*
X2091Y1394D02*
X2097Y1394D01*
X2128Y1394D02*
X2133Y1394D01*
X2141Y1394D02*
X2147Y1394D01*
X2188Y1394D02*
X2195Y1394D01*
X2205Y1394D02*
X2211Y1394D01*
X3148Y1394D02*
X3155Y1394D01*
X0Y1393D02*
X7Y1393D01*
X2077Y1393D02*
X2083Y1393D01*
X2091Y1393D02*
X2097Y1393D01*
X2127Y1393D02*
X2133Y1393D01*
X2141Y1393D02*
X2147Y1393D01*
X2187Y1393D02*
X2195Y1393D01*
X2205Y1393D02*
X2211Y1393D01*
X3148Y1393D02*
X3155Y1393D01*
X0Y1392D02*
X7Y1392D01*
X2077Y1392D02*
X2083Y1392D01*
X2091Y1392D02*
X2097Y1392D01*
X2127Y1392D02*
X2133Y1392D01*
X2141Y1392D02*
X2147Y1392D01*
X2187Y1392D02*
X2194Y1392D01*
X2205Y1392D02*
X2211Y1392D01*
X3148Y1392D02*
X3155Y1392D01*
X0Y1391D02*
X7Y1391D01*
X2077Y1391D02*
X2083Y1391D01*
X2091Y1391D02*
X2097Y1391D01*
X2127Y1391D02*
X2133Y1391D01*
X2141Y1391D02*
X2147Y1391D01*
X2186Y1391D02*
X2193Y1391D01*
X2205Y1391D02*
X2211Y1391D01*
X3148Y1391D02*
X3155Y1391D01*
X0Y1390D02*
X7Y1390D01*
X2077Y1390D02*
X2083Y1390D01*
X2091Y1390D02*
X2097Y1390D01*
X2127Y1390D02*
X2133Y1390D01*
X2141Y1390D02*
X2147Y1390D01*
X2186Y1390D02*
X2193Y1390D01*
X2205Y1390D02*
X2211Y1390D01*
X3148Y1390D02*
X3155Y1390D01*
X0Y1389D02*
X7Y1389D01*
X2077Y1389D02*
X2083Y1389D01*
X2091Y1389D02*
X2097Y1389D01*
X2127Y1389D02*
X2133Y1389D01*
X2141Y1389D02*
X2147Y1389D01*
X2185Y1389D02*
X2192Y1389D01*
X2205Y1389D02*
X2211Y1389D01*
X3148Y1389D02*
X3155Y1389D01*
X0Y1388D02*
X7Y1388D01*
X2077Y1388D02*
X2083Y1388D01*
X2091Y1388D02*
X2097Y1388D01*
X2127Y1388D02*
X2133Y1388D01*
X2141Y1388D02*
X2147Y1388D01*
X2184Y1388D02*
X2192Y1388D01*
X2205Y1388D02*
X2211Y1388D01*
X3148Y1388D02*
X3155Y1388D01*
X0Y1387D02*
X7Y1387D01*
X2077Y1387D02*
X2083Y1387D01*
X2091Y1387D02*
X2097Y1387D01*
X2127Y1387D02*
X2133Y1387D01*
X2141Y1387D02*
X2147Y1387D01*
X2184Y1387D02*
X2191Y1387D01*
X2205Y1387D02*
X2211Y1387D01*
X3148Y1387D02*
X3155Y1387D01*
X0Y1386D02*
X7Y1386D01*
X2077Y1386D02*
X2083Y1386D01*
X2091Y1386D02*
X2097Y1386D01*
X2127Y1386D02*
X2133Y1386D01*
X2141Y1386D02*
X2147Y1386D01*
X2183Y1386D02*
X2191Y1386D01*
X2205Y1386D02*
X2211Y1386D01*
X3148Y1386D02*
X3155Y1386D01*
X0Y1385D02*
X7Y1385D01*
X2077Y1385D02*
X2083Y1385D01*
X2091Y1385D02*
X2097Y1385D01*
X2127Y1385D02*
X2133Y1385D01*
X2141Y1385D02*
X2147Y1385D01*
X2183Y1385D02*
X2190Y1385D01*
X2205Y1385D02*
X2211Y1385D01*
X3148Y1385D02*
X3155Y1385D01*
X0Y1384D02*
X7Y1384D01*
X2077Y1384D02*
X2083Y1384D01*
X2091Y1384D02*
X2097Y1384D01*
X2127Y1384D02*
X2133Y1384D01*
X2141Y1384D02*
X2147Y1384D01*
X2182Y1384D02*
X2189Y1384D01*
X2205Y1384D02*
X2211Y1384D01*
X3148Y1384D02*
X3155Y1384D01*
X0Y1383D02*
X7Y1383D01*
X2077Y1383D02*
X2083Y1383D01*
X2091Y1383D02*
X2097Y1383D01*
X2127Y1383D02*
X2133Y1383D01*
X2141Y1383D02*
X2147Y1383D01*
X2182Y1383D02*
X2189Y1383D01*
X2205Y1383D02*
X2211Y1383D01*
X3148Y1383D02*
X3155Y1383D01*
X0Y1382D02*
X7Y1382D01*
X2077Y1382D02*
X2083Y1382D01*
X2091Y1382D02*
X2097Y1382D01*
X2127Y1382D02*
X2133Y1382D01*
X2141Y1382D02*
X2147Y1382D01*
X2181Y1382D02*
X2188Y1382D01*
X2205Y1382D02*
X2211Y1382D01*
X3148Y1382D02*
X3155Y1382D01*
X0Y1381D02*
X7Y1381D01*
X2077Y1381D02*
X2083Y1381D01*
X2091Y1381D02*
X2097Y1381D01*
X2127Y1381D02*
X2133Y1381D01*
X2141Y1381D02*
X2147Y1381D01*
X2180Y1381D02*
X2188Y1381D01*
X2205Y1381D02*
X2211Y1381D01*
X3148Y1381D02*
X3155Y1381D01*
X0Y1380D02*
X7Y1380D01*
X2077Y1380D02*
X2083Y1380D01*
X2091Y1380D02*
X2097Y1380D01*
X2127Y1380D02*
X2133Y1380D01*
X2141Y1380D02*
X2147Y1380D01*
X2180Y1380D02*
X2187Y1380D01*
X2205Y1380D02*
X2211Y1380D01*
X3148Y1380D02*
X3155Y1380D01*
X0Y1379D02*
X7Y1379D01*
X2077Y1379D02*
X2083Y1379D01*
X2091Y1379D02*
X2097Y1379D01*
X2127Y1379D02*
X2133Y1379D01*
X2141Y1379D02*
X2147Y1379D01*
X2179Y1379D02*
X2186Y1379D01*
X2205Y1379D02*
X2211Y1379D01*
X3148Y1379D02*
X3155Y1379D01*
X0Y1378D02*
X7Y1378D01*
X2077Y1378D02*
X2109Y1378D01*
X2127Y1378D02*
X2159Y1378D01*
X2179Y1378D02*
X2186Y1378D01*
X2205Y1378D02*
X2211Y1378D01*
X3148Y1378D02*
X3155Y1378D01*
X0Y1377D02*
X7Y1377D01*
X2077Y1377D02*
X2110Y1377D01*
X2127Y1377D02*
X2160Y1377D01*
X2178Y1377D02*
X2185Y1377D01*
X2205Y1377D02*
X2211Y1377D01*
X3148Y1377D02*
X3155Y1377D01*
X0Y1376D02*
X7Y1376D01*
X2077Y1376D02*
X2111Y1376D01*
X2127Y1376D02*
X2161Y1376D01*
X2178Y1376D02*
X2185Y1376D01*
X2205Y1376D02*
X2211Y1376D01*
X3148Y1376D02*
X3155Y1376D01*
X0Y1375D02*
X7Y1375D01*
X2077Y1375D02*
X2111Y1375D01*
X2127Y1375D02*
X2161Y1375D01*
X2178Y1375D02*
X2184Y1375D01*
X2205Y1375D02*
X2211Y1375D01*
X3148Y1375D02*
X3155Y1375D01*
X0Y1374D02*
X7Y1374D01*
X2077Y1374D02*
X2110Y1374D01*
X2128Y1374D02*
X2161Y1374D01*
X2178Y1374D02*
X2184Y1374D01*
X2205Y1374D02*
X2211Y1374D01*
X3148Y1374D02*
X3155Y1374D01*
X0Y1373D02*
X7Y1373D01*
X2078Y1373D02*
X2110Y1373D01*
X2128Y1373D02*
X2160Y1373D01*
X2178Y1373D02*
X2183Y1373D01*
X2206Y1373D02*
X2210Y1373D01*
X3148Y1373D02*
X3155Y1373D01*
X0Y1372D02*
X7Y1372D01*
X2079Y1372D02*
X2109Y1372D01*
X2129Y1372D02*
X2159Y1372D01*
X2180Y1372D02*
X2182Y1372D01*
X2207Y1372D02*
X2209Y1372D01*
X3148Y1372D02*
X3155Y1372D01*
X0Y1371D02*
X7Y1371D01*
X3148Y1371D02*
X3155Y1371D01*
X0Y1370D02*
X7Y1370D01*
X3148Y1370D02*
X3155Y1370D01*
X0Y1369D02*
X7Y1369D01*
X3148Y1369D02*
X3155Y1369D01*
X0Y1368D02*
X7Y1368D01*
X3148Y1368D02*
X3155Y1368D01*
X0Y1367D02*
X7Y1367D01*
X3148Y1367D02*
X3155Y1367D01*
X0Y1366D02*
X7Y1366D01*
X3148Y1366D02*
X3155Y1366D01*
X0Y1365D02*
X7Y1365D01*
X3148Y1365D02*
X3155Y1365D01*
X0Y1364D02*
X7Y1364D01*
X3148Y1364D02*
X3155Y1364D01*
X0Y1363D02*
X7Y1363D01*
X3148Y1363D02*
X3155Y1363D01*
X0Y1362D02*
X7Y1362D01*
X3148Y1362D02*
X3155Y1362D01*
X0Y1361D02*
X7Y1361D01*
X3148Y1361D02*
X3155Y1361D01*
X0Y1360D02*
X7Y1360D01*
X3148Y1360D02*
X3155Y1360D01*
X0Y1359D02*
X7Y1359D01*
X3148Y1359D02*
X3155Y1359D01*
X0Y1358D02*
X7Y1358D01*
X3148Y1358D02*
X3155Y1358D01*
X0Y1357D02*
X7Y1357D01*
X3148Y1357D02*
X3155Y1357D01*
X0Y1356D02*
X7Y1356D01*
X3148Y1356D02*
X3155Y1356D01*
X0Y1355D02*
X7Y1355D01*
X3148Y1355D02*
X3155Y1355D01*
X0Y1354D02*
X7Y1354D01*
X3148Y1354D02*
X3155Y1354D01*
X0Y1353D02*
X7Y1353D01*
X3148Y1353D02*
X3155Y1353D01*
X0Y1352D02*
X7Y1352D01*
X3148Y1352D02*
X3155Y1352D01*
X0Y1351D02*
X7Y1351D01*
X3148Y1351D02*
X3155Y1351D01*
X0Y1350D02*
X7Y1350D01*
X3148Y1350D02*
X3155Y1350D01*
X0Y1349D02*
X7Y1349D01*
X3148Y1349D02*
X3155Y1349D01*
X0Y1348D02*
X7Y1348D01*
X3148Y1348D02*
X3155Y1348D01*
X0Y1347D02*
X7Y1347D01*
X3148Y1347D02*
X3155Y1347D01*
X0Y1346D02*
X7Y1346D01*
X3148Y1346D02*
X3155Y1346D01*
X0Y1345D02*
X7Y1345D01*
X3148Y1345D02*
X3155Y1345D01*
X0Y1344D02*
X7Y1344D01*
X3148Y1344D02*
X3155Y1344D01*
X0Y1343D02*
X7Y1343D01*
X3148Y1343D02*
X3155Y1343D01*
X0Y1342D02*
X7Y1342D01*
X3148Y1342D02*
X3155Y1342D01*
X0Y1341D02*
X7Y1341D01*
X3148Y1341D02*
X3155Y1341D01*
X0Y1340D02*
X7Y1340D01*
X3148Y1340D02*
X3155Y1340D01*
X0Y1339D02*
X7Y1339D01*
X3148Y1339D02*
X3155Y1339D01*
X0Y1338D02*
X7Y1338D01*
X3148Y1338D02*
X3155Y1338D01*
X0Y1337D02*
X7Y1337D01*
X3148Y1337D02*
X3155Y1337D01*
X0Y1336D02*
X7Y1336D01*
X3148Y1336D02*
X3155Y1336D01*
X0Y1335D02*
X7Y1335D01*
X3148Y1335D02*
X3155Y1335D01*
X0Y1334D02*
X7Y1334D01*
X3148Y1334D02*
X3155Y1334D01*
X0Y1333D02*
X7Y1333D01*
X3148Y1333D02*
X3155Y1333D01*
X0Y1332D02*
X7Y1332D01*
X3148Y1332D02*
X3155Y1332D01*
X0Y1331D02*
X7Y1331D01*
X3148Y1331D02*
X3155Y1331D01*
X0Y1330D02*
X7Y1330D01*
X3148Y1330D02*
X3155Y1330D01*
X0Y1329D02*
X7Y1329D01*
X3148Y1329D02*
X3155Y1329D01*
X0Y1328D02*
X7Y1328D01*
X3148Y1328D02*
X3155Y1328D01*
X0Y1327D02*
X7Y1327D01*
X3148Y1327D02*
X3155Y1327D01*
X0Y1326D02*
X7Y1326D01*
X3148Y1326D02*
X3155Y1326D01*
X0Y1325D02*
X7Y1325D01*
X3148Y1325D02*
X3155Y1325D01*
X0Y1324D02*
X7Y1324D01*
X3148Y1324D02*
X3155Y1324D01*
X0Y1323D02*
X7Y1323D01*
X3148Y1323D02*
X3155Y1323D01*
X0Y1322D02*
X7Y1322D01*
X3148Y1322D02*
X3155Y1322D01*
X0Y1321D02*
X7Y1321D01*
X3148Y1321D02*
X3155Y1321D01*
X0Y1320D02*
X7Y1320D01*
X3148Y1320D02*
X3155Y1320D01*
X0Y1319D02*
X7Y1319D01*
X3148Y1319D02*
X3155Y1319D01*
X0Y1318D02*
X7Y1318D01*
X3148Y1318D02*
X3155Y1318D01*
X0Y1317D02*
X7Y1317D01*
X3148Y1317D02*
X3155Y1317D01*
X0Y1316D02*
X7Y1316D01*
X3148Y1316D02*
X3155Y1316D01*
X0Y1315D02*
X7Y1315D01*
X3148Y1315D02*
X3155Y1315D01*
X0Y1314D02*
X7Y1314D01*
X3148Y1314D02*
X3155Y1314D01*
X0Y1313D02*
X7Y1313D01*
X3148Y1313D02*
X3155Y1313D01*
X0Y1312D02*
X7Y1312D01*
X3148Y1312D02*
X3155Y1312D01*
X0Y1311D02*
X7Y1311D01*
X3148Y1311D02*
X3155Y1311D01*
X0Y1310D02*
X7Y1310D01*
X3148Y1310D02*
X3155Y1310D01*
X0Y1309D02*
X7Y1309D01*
X3148Y1309D02*
X3155Y1309D01*
X0Y1308D02*
X7Y1308D01*
X3148Y1308D02*
X3155Y1308D01*
X0Y1307D02*
X7Y1307D01*
X2300Y1307D02*
X2347Y1307D01*
X2548Y1307D02*
X2614Y1307D01*
X3148Y1307D02*
X3155Y1307D01*
X0Y1306D02*
X7Y1306D01*
X2300Y1306D02*
X2347Y1306D01*
X2548Y1306D02*
X2614Y1306D01*
X3148Y1306D02*
X3155Y1306D01*
X0Y1305D02*
X7Y1305D01*
X2300Y1305D02*
X2347Y1305D01*
X2548Y1305D02*
X2614Y1305D01*
X3148Y1305D02*
X3155Y1305D01*
X0Y1304D02*
X7Y1304D01*
X2300Y1304D02*
X2347Y1304D01*
X2548Y1304D02*
X2614Y1304D01*
X3148Y1304D02*
X3155Y1304D01*
X0Y1303D02*
X7Y1303D01*
X2300Y1303D02*
X2347Y1303D01*
X2548Y1303D02*
X2614Y1303D01*
X3148Y1303D02*
X3155Y1303D01*
X0Y1302D02*
X7Y1302D01*
X2300Y1302D02*
X2347Y1302D01*
X2548Y1302D02*
X2614Y1302D01*
X3148Y1302D02*
X3155Y1302D01*
X0Y1301D02*
X7Y1301D01*
X2300Y1301D02*
X2347Y1301D01*
X2548Y1301D02*
X2614Y1301D01*
X3148Y1301D02*
X3155Y1301D01*
X0Y1300D02*
X7Y1300D01*
X2300Y1300D02*
X2347Y1300D01*
X2548Y1300D02*
X2614Y1300D01*
X3148Y1300D02*
X3155Y1300D01*
X0Y1299D02*
X7Y1299D01*
X2300Y1299D02*
X2347Y1299D01*
X2548Y1299D02*
X2614Y1299D01*
X3148Y1299D02*
X3155Y1299D01*
X0Y1298D02*
X7Y1298D01*
X2300Y1298D02*
X2347Y1298D01*
X2548Y1298D02*
X2614Y1298D01*
X3148Y1298D02*
X3155Y1298D01*
X0Y1297D02*
X7Y1297D01*
X3148Y1297D02*
X3155Y1297D01*
X0Y1296D02*
X7Y1296D01*
X3148Y1296D02*
X3155Y1296D01*
X0Y1295D02*
X7Y1295D01*
X3148Y1295D02*
X3155Y1295D01*
X0Y1294D02*
X7Y1294D01*
X3148Y1294D02*
X3155Y1294D01*
X0Y1293D02*
X7Y1293D01*
X3148Y1293D02*
X3155Y1293D01*
X0Y1292D02*
X7Y1292D01*
X3148Y1292D02*
X3155Y1292D01*
X0Y1291D02*
X7Y1291D01*
X3148Y1291D02*
X3155Y1291D01*
X0Y1290D02*
X7Y1290D01*
X3148Y1290D02*
X3155Y1290D01*
X0Y1289D02*
X7Y1289D01*
X3148Y1289D02*
X3155Y1289D01*
X0Y1288D02*
X7Y1288D01*
X3148Y1288D02*
X3155Y1288D01*
X0Y1287D02*
X7Y1287D01*
X3148Y1287D02*
X3155Y1287D01*
X0Y1286D02*
X7Y1286D01*
X3148Y1286D02*
X3155Y1286D01*
X0Y1285D02*
X7Y1285D01*
X3148Y1285D02*
X3155Y1285D01*
X0Y1284D02*
X7Y1284D01*
X3148Y1284D02*
X3155Y1284D01*
X0Y1283D02*
X7Y1283D01*
X3148Y1283D02*
X3155Y1283D01*
X0Y1282D02*
X7Y1282D01*
X3148Y1282D02*
X3155Y1282D01*
X0Y1281D02*
X7Y1281D01*
X3148Y1281D02*
X3155Y1281D01*
X0Y1280D02*
X7Y1280D01*
X3148Y1280D02*
X3155Y1280D01*
X0Y1279D02*
X7Y1279D01*
X3148Y1279D02*
X3155Y1279D01*
X0Y1278D02*
X7Y1278D01*
X3148Y1278D02*
X3155Y1278D01*
X0Y1277D02*
X7Y1277D01*
X3148Y1277D02*
X3155Y1277D01*
X0Y1276D02*
X7Y1276D01*
X3148Y1276D02*
X3155Y1276D01*
X0Y1275D02*
X7Y1275D01*
X3148Y1275D02*
X3155Y1275D01*
X0Y1274D02*
X7Y1274D01*
X3148Y1274D02*
X3155Y1274D01*
X0Y1273D02*
X7Y1273D01*
X3148Y1273D02*
X3155Y1273D01*
X0Y1272D02*
X7Y1272D01*
X3148Y1272D02*
X3155Y1272D01*
X0Y1271D02*
X7Y1271D01*
X3148Y1271D02*
X3155Y1271D01*
X0Y1270D02*
X7Y1270D01*
X3148Y1270D02*
X3155Y1270D01*
X0Y1269D02*
X7Y1269D01*
X3148Y1269D02*
X3155Y1269D01*
X0Y1268D02*
X7Y1268D01*
X3148Y1268D02*
X3155Y1268D01*
X0Y1267D02*
X7Y1267D01*
X3148Y1267D02*
X3155Y1267D01*
X0Y1266D02*
X7Y1266D01*
X3148Y1266D02*
X3155Y1266D01*
X0Y1265D02*
X7Y1265D01*
X3148Y1265D02*
X3155Y1265D01*
X0Y1264D02*
X7Y1264D01*
X3148Y1264D02*
X3155Y1264D01*
X0Y1263D02*
X7Y1263D01*
X3148Y1263D02*
X3155Y1263D01*
X0Y1262D02*
X7Y1262D01*
X3148Y1262D02*
X3155Y1262D01*
X0Y1261D02*
X7Y1261D01*
X3148Y1261D02*
X3155Y1261D01*
X0Y1260D02*
X7Y1260D01*
X3148Y1260D02*
X3155Y1260D01*
X0Y1259D02*
X7Y1259D01*
X3148Y1259D02*
X3155Y1259D01*
X0Y1258D02*
X7Y1258D01*
X3148Y1258D02*
X3155Y1258D01*
X0Y1257D02*
X7Y1257D01*
X3148Y1257D02*
X3155Y1257D01*
X0Y1256D02*
X7Y1256D01*
X3148Y1256D02*
X3155Y1256D01*
X0Y1255D02*
X7Y1255D01*
X3148Y1255D02*
X3155Y1255D01*
X0Y1254D02*
X7Y1254D01*
X3148Y1254D02*
X3155Y1254D01*
X0Y1253D02*
X7Y1253D01*
X3148Y1253D02*
X3155Y1253D01*
X0Y1252D02*
X7Y1252D01*
X3148Y1252D02*
X3155Y1252D01*
X0Y1251D02*
X7Y1251D01*
X3148Y1251D02*
X3155Y1251D01*
X0Y1250D02*
X7Y1250D01*
X3148Y1250D02*
X3155Y1250D01*
X0Y1249D02*
X7Y1249D01*
X3148Y1249D02*
X3155Y1249D01*
X0Y1248D02*
X7Y1248D01*
X3148Y1248D02*
X3155Y1248D01*
X0Y1247D02*
X7Y1247D01*
X3148Y1247D02*
X3155Y1247D01*
X0Y1246D02*
X7Y1246D01*
X3148Y1246D02*
X3155Y1246D01*
X0Y1245D02*
X7Y1245D01*
X3148Y1245D02*
X3155Y1245D01*
X0Y1244D02*
X7Y1244D01*
X3148Y1244D02*
X3155Y1244D01*
X0Y1243D02*
X7Y1243D01*
X3148Y1243D02*
X3155Y1243D01*
X0Y1242D02*
X7Y1242D01*
X3148Y1242D02*
X3155Y1242D01*
X0Y1241D02*
X7Y1241D01*
X3148Y1241D02*
X3155Y1241D01*
X0Y1240D02*
X7Y1240D01*
X3148Y1240D02*
X3155Y1240D01*
X0Y1239D02*
X7Y1239D01*
X3148Y1239D02*
X3155Y1239D01*
X0Y1238D02*
X7Y1238D01*
X3148Y1238D02*
X3155Y1238D01*
X0Y1237D02*
X7Y1237D01*
X3148Y1237D02*
X3155Y1237D01*
X0Y1236D02*
X7Y1236D01*
X3148Y1236D02*
X3155Y1236D01*
X0Y1235D02*
X7Y1235D01*
X3148Y1235D02*
X3155Y1235D01*
X0Y1234D02*
X7Y1234D01*
X3148Y1234D02*
X3155Y1234D01*
X0Y1233D02*
X7Y1233D01*
X3148Y1233D02*
X3155Y1233D01*
X0Y1232D02*
X7Y1232D01*
X3148Y1232D02*
X3155Y1232D01*
X0Y1231D02*
X7Y1231D01*
X3148Y1231D02*
X3155Y1231D01*
X0Y1230D02*
X7Y1230D01*
X3148Y1230D02*
X3155Y1230D01*
X0Y1229D02*
X7Y1229D01*
X3148Y1229D02*
X3155Y1229D01*
X0Y1228D02*
X7Y1228D01*
X3148Y1228D02*
X3155Y1228D01*
X0Y1227D02*
X7Y1227D01*
X3148Y1227D02*
X3155Y1227D01*
X0Y1226D02*
X7Y1226D01*
X3148Y1226D02*
X3155Y1226D01*
X0Y1225D02*
X7Y1225D01*
X3148Y1225D02*
X3155Y1225D01*
X0Y1224D02*
X7Y1224D01*
X3148Y1224D02*
X3155Y1224D01*
X0Y1223D02*
X7Y1223D01*
X3148Y1223D02*
X3155Y1223D01*
X0Y1222D02*
X7Y1222D01*
X3148Y1222D02*
X3155Y1222D01*
X0Y1221D02*
X7Y1221D01*
X3148Y1221D02*
X3155Y1221D01*
X0Y1220D02*
X7Y1220D01*
X3148Y1220D02*
X3155Y1220D01*
X0Y1219D02*
X7Y1219D01*
X3148Y1219D02*
X3155Y1219D01*
X0Y1218D02*
X7Y1218D01*
X3148Y1218D02*
X3155Y1218D01*
X0Y1217D02*
X7Y1217D01*
X3148Y1217D02*
X3155Y1217D01*
X0Y1216D02*
X7Y1216D01*
X3148Y1216D02*
X3155Y1216D01*
X0Y1215D02*
X7Y1215D01*
X3148Y1215D02*
X3155Y1215D01*
X0Y1214D02*
X7Y1214D01*
X3148Y1214D02*
X3155Y1214D01*
X0Y1213D02*
X7Y1213D01*
X3148Y1213D02*
X3155Y1213D01*
X0Y1212D02*
X7Y1212D01*
X3148Y1212D02*
X3155Y1212D01*
X0Y1211D02*
X7Y1211D01*
X3148Y1211D02*
X3155Y1211D01*
X0Y1210D02*
X7Y1210D01*
X3148Y1210D02*
X3155Y1210D01*
X0Y1209D02*
X7Y1209D01*
X3148Y1209D02*
X3155Y1209D01*
X0Y1208D02*
X7Y1208D01*
X3148Y1208D02*
X3155Y1208D01*
X0Y1207D02*
X7Y1207D01*
X3148Y1207D02*
X3155Y1207D01*
X0Y1206D02*
X7Y1206D01*
X3148Y1206D02*
X3155Y1206D01*
X0Y1205D02*
X7Y1205D01*
X3148Y1205D02*
X3155Y1205D01*
X0Y1204D02*
X7Y1204D01*
X3148Y1204D02*
X3155Y1204D01*
X0Y1203D02*
X7Y1203D01*
X3148Y1203D02*
X3155Y1203D01*
X0Y1202D02*
X7Y1202D01*
X3148Y1202D02*
X3155Y1202D01*
X0Y1201D02*
X7Y1201D01*
X3148Y1201D02*
X3155Y1201D01*
X0Y1200D02*
X7Y1200D01*
X3148Y1200D02*
X3155Y1200D01*
X0Y1199D02*
X7Y1199D01*
X3148Y1199D02*
X3155Y1199D01*
X0Y1198D02*
X7Y1198D01*
X3148Y1198D02*
X3155Y1198D01*
X0Y1197D02*
X7Y1197D01*
X3148Y1197D02*
X3155Y1197D01*
X0Y1196D02*
X7Y1196D01*
X3148Y1196D02*
X3155Y1196D01*
X0Y1195D02*
X7Y1195D01*
X3148Y1195D02*
X3155Y1195D01*
X0Y1194D02*
X7Y1194D01*
X3148Y1194D02*
X3155Y1194D01*
X0Y1193D02*
X7Y1193D01*
X3148Y1193D02*
X3155Y1193D01*
X0Y1192D02*
X7Y1192D01*
X3148Y1192D02*
X3155Y1192D01*
X0Y1191D02*
X7Y1191D01*
X3148Y1191D02*
X3155Y1191D01*
X0Y1190D02*
X7Y1190D01*
X3148Y1190D02*
X3155Y1190D01*
X0Y1189D02*
X7Y1189D01*
X3148Y1189D02*
X3155Y1189D01*
X0Y1188D02*
X7Y1188D01*
X3148Y1188D02*
X3155Y1188D01*
X0Y1187D02*
X7Y1187D01*
X3148Y1187D02*
X3155Y1187D01*
X0Y1186D02*
X7Y1186D01*
X3148Y1186D02*
X3155Y1186D01*
X0Y1185D02*
X7Y1185D01*
X3148Y1185D02*
X3155Y1185D01*
X0Y1184D02*
X7Y1184D01*
X3148Y1184D02*
X3155Y1184D01*
X0Y1183D02*
X7Y1183D01*
X3148Y1183D02*
X3155Y1183D01*
X0Y1182D02*
X7Y1182D01*
X3148Y1182D02*
X3155Y1182D01*
X0Y1181D02*
X7Y1181D01*
X3148Y1181D02*
X3155Y1181D01*
X0Y1180D02*
X7Y1180D01*
X3148Y1180D02*
X3155Y1180D01*
X0Y1179D02*
X7Y1179D01*
X3148Y1179D02*
X3155Y1179D01*
X0Y1178D02*
X7Y1178D01*
X3148Y1178D02*
X3155Y1178D01*
X0Y1177D02*
X7Y1177D01*
X3148Y1177D02*
X3155Y1177D01*
X0Y1176D02*
X7Y1176D01*
X3148Y1176D02*
X3155Y1176D01*
X0Y1175D02*
X7Y1175D01*
X3148Y1175D02*
X3155Y1175D01*
X0Y1174D02*
X7Y1174D01*
X3148Y1174D02*
X3155Y1174D01*
X0Y1173D02*
X7Y1173D01*
X3148Y1173D02*
X3155Y1173D01*
X0Y1172D02*
X7Y1172D01*
X3148Y1172D02*
X3155Y1172D01*
X0Y1171D02*
X7Y1171D01*
X3148Y1171D02*
X3155Y1171D01*
X0Y1170D02*
X7Y1170D01*
X3148Y1170D02*
X3155Y1170D01*
X0Y1169D02*
X7Y1169D01*
X3148Y1169D02*
X3155Y1169D01*
X0Y1168D02*
X7Y1168D01*
X3148Y1168D02*
X3155Y1168D01*
X0Y1167D02*
X7Y1167D01*
X3148Y1167D02*
X3155Y1167D01*
X0Y1166D02*
X7Y1166D01*
X3148Y1166D02*
X3155Y1166D01*
X0Y1165D02*
X7Y1165D01*
X3148Y1165D02*
X3155Y1165D01*
X0Y1164D02*
X7Y1164D01*
X3148Y1164D02*
X3155Y1164D01*
X0Y1163D02*
X7Y1163D01*
X3148Y1163D02*
X3155Y1163D01*
X0Y1162D02*
X7Y1162D01*
X3148Y1162D02*
X3155Y1162D01*
X0Y1161D02*
X7Y1161D01*
X3148Y1161D02*
X3155Y1161D01*
X0Y1160D02*
X7Y1160D01*
X3148Y1160D02*
X3155Y1160D01*
X0Y1159D02*
X7Y1159D01*
X3148Y1159D02*
X3155Y1159D01*
X0Y1158D02*
X7Y1158D01*
X3148Y1158D02*
X3155Y1158D01*
X0Y1157D02*
X7Y1157D01*
X3148Y1157D02*
X3155Y1157D01*
X0Y1156D02*
X7Y1156D01*
X3148Y1156D02*
X3155Y1156D01*
X0Y1155D02*
X7Y1155D01*
X3148Y1155D02*
X3155Y1155D01*
X0Y1154D02*
X7Y1154D01*
X3148Y1154D02*
X3155Y1154D01*
X0Y1153D02*
X7Y1153D01*
X3148Y1153D02*
X3155Y1153D01*
X0Y1152D02*
X7Y1152D01*
X3148Y1152D02*
X3155Y1152D01*
X0Y1151D02*
X7Y1151D01*
X3148Y1151D02*
X3155Y1151D01*
X0Y1150D02*
X7Y1150D01*
X3148Y1150D02*
X3155Y1150D01*
X0Y1149D02*
X7Y1149D01*
X3148Y1149D02*
X3155Y1149D01*
X0Y1148D02*
X7Y1148D01*
X3148Y1148D02*
X3155Y1148D01*
X0Y1147D02*
X7Y1147D01*
X3148Y1147D02*
X3155Y1147D01*
X0Y1146D02*
X7Y1146D01*
X3148Y1146D02*
X3155Y1146D01*
X0Y1145D02*
X7Y1145D01*
X3148Y1145D02*
X3155Y1145D01*
X0Y1144D02*
X7Y1144D01*
X3148Y1144D02*
X3155Y1144D01*
X0Y1143D02*
X7Y1143D01*
X3148Y1143D02*
X3155Y1143D01*
X0Y1142D02*
X7Y1142D01*
X3148Y1142D02*
X3155Y1142D01*
X0Y1141D02*
X7Y1141D01*
X3148Y1141D02*
X3155Y1141D01*
X0Y1140D02*
X7Y1140D01*
X3148Y1140D02*
X3155Y1140D01*
X0Y1139D02*
X7Y1139D01*
X3148Y1139D02*
X3155Y1139D01*
X0Y1138D02*
X7Y1138D01*
X3148Y1138D02*
X3155Y1138D01*
X0Y1137D02*
X7Y1137D01*
X3148Y1137D02*
X3155Y1137D01*
X0Y1136D02*
X7Y1136D01*
X3148Y1136D02*
X3155Y1136D01*
X0Y1135D02*
X7Y1135D01*
X3148Y1135D02*
X3155Y1135D01*
X0Y1134D02*
X7Y1134D01*
X3148Y1134D02*
X3155Y1134D01*
X0Y1133D02*
X7Y1133D01*
X3148Y1133D02*
X3155Y1133D01*
X0Y1132D02*
X7Y1132D01*
X3148Y1132D02*
X3155Y1132D01*
X0Y1131D02*
X7Y1131D01*
X3148Y1131D02*
X3155Y1131D01*
X0Y1130D02*
X7Y1130D01*
X3148Y1130D02*
X3155Y1130D01*
X0Y1129D02*
X7Y1129D01*
X3148Y1129D02*
X3155Y1129D01*
X0Y1128D02*
X7Y1128D01*
X3148Y1128D02*
X3155Y1128D01*
X0Y1127D02*
X7Y1127D01*
X3148Y1127D02*
X3155Y1127D01*
X0Y1126D02*
X7Y1126D01*
X3148Y1126D02*
X3155Y1126D01*
X0Y1125D02*
X7Y1125D01*
X3148Y1125D02*
X3155Y1125D01*
X0Y1124D02*
X7Y1124D01*
X3148Y1124D02*
X3155Y1124D01*
X0Y1123D02*
X7Y1123D01*
X3148Y1123D02*
X3155Y1123D01*
X0Y1122D02*
X7Y1122D01*
X3148Y1122D02*
X3155Y1122D01*
X0Y1121D02*
X7Y1121D01*
X3148Y1121D02*
X3155Y1121D01*
X0Y1120D02*
X7Y1120D01*
X3148Y1120D02*
X3155Y1120D01*
X0Y1119D02*
X7Y1119D01*
X3148Y1119D02*
X3155Y1119D01*
X0Y1118D02*
X7Y1118D01*
X3148Y1118D02*
X3155Y1118D01*
X0Y1117D02*
X7Y1117D01*
X3148Y1117D02*
X3155Y1117D01*
X0Y1116D02*
X7Y1116D01*
X3148Y1116D02*
X3155Y1116D01*
X0Y1115D02*
X7Y1115D01*
X3148Y1115D02*
X3155Y1115D01*
X0Y1114D02*
X7Y1114D01*
X3148Y1114D02*
X3155Y1114D01*
X0Y1113D02*
X7Y1113D01*
X3148Y1113D02*
X3155Y1113D01*
X0Y1112D02*
X7Y1112D01*
X3148Y1112D02*
X3155Y1112D01*
X0Y1111D02*
X7Y1111D01*
X3148Y1111D02*
X3155Y1111D01*
X0Y1110D02*
X7Y1110D01*
X3148Y1110D02*
X3155Y1110D01*
X0Y1109D02*
X7Y1109D01*
X3148Y1109D02*
X3155Y1109D01*
X0Y1108D02*
X7Y1108D01*
X3148Y1108D02*
X3155Y1108D01*
X0Y1107D02*
X7Y1107D01*
X3148Y1107D02*
X3155Y1107D01*
X0Y1106D02*
X7Y1106D01*
X3148Y1106D02*
X3155Y1106D01*
X0Y1105D02*
X7Y1105D01*
X3148Y1105D02*
X3155Y1105D01*
X0Y1104D02*
X7Y1104D01*
X3148Y1104D02*
X3155Y1104D01*
X0Y1103D02*
X7Y1103D01*
X3148Y1103D02*
X3155Y1103D01*
X0Y1102D02*
X7Y1102D01*
X3148Y1102D02*
X3155Y1102D01*
X0Y1101D02*
X7Y1101D01*
X3148Y1101D02*
X3155Y1101D01*
X0Y1100D02*
X7Y1100D01*
X3148Y1100D02*
X3155Y1100D01*
X0Y1099D02*
X7Y1099D01*
X3148Y1099D02*
X3155Y1099D01*
X0Y1098D02*
X7Y1098D01*
X3148Y1098D02*
X3155Y1098D01*
X0Y1097D02*
X7Y1097D01*
X3148Y1097D02*
X3155Y1097D01*
X0Y1096D02*
X7Y1096D01*
X3148Y1096D02*
X3155Y1096D01*
X0Y1095D02*
X7Y1095D01*
X3148Y1095D02*
X3155Y1095D01*
X0Y1094D02*
X7Y1094D01*
X3148Y1094D02*
X3155Y1094D01*
X0Y1093D02*
X7Y1093D01*
X3148Y1093D02*
X3155Y1093D01*
X0Y1092D02*
X7Y1092D01*
X3148Y1092D02*
X3155Y1092D01*
X0Y1091D02*
X7Y1091D01*
X3148Y1091D02*
X3155Y1091D01*
X0Y1090D02*
X7Y1090D01*
X3148Y1090D02*
X3155Y1090D01*
X0Y1089D02*
X7Y1089D01*
X3148Y1089D02*
X3155Y1089D01*
X0Y1088D02*
X7Y1088D01*
X3148Y1088D02*
X3155Y1088D01*
X0Y1087D02*
X7Y1087D01*
X3148Y1087D02*
X3155Y1087D01*
X0Y1086D02*
X7Y1086D01*
X3148Y1086D02*
X3155Y1086D01*
X0Y1085D02*
X7Y1085D01*
X3148Y1085D02*
X3155Y1085D01*
X0Y1084D02*
X7Y1084D01*
X3148Y1084D02*
X3155Y1084D01*
X0Y1083D02*
X7Y1083D01*
X3148Y1083D02*
X3155Y1083D01*
X0Y1082D02*
X7Y1082D01*
X3148Y1082D02*
X3155Y1082D01*
X0Y1081D02*
X7Y1081D01*
X3148Y1081D02*
X3155Y1081D01*
X0Y1080D02*
X7Y1080D01*
X3148Y1080D02*
X3155Y1080D01*
X0Y1079D02*
X7Y1079D01*
X3148Y1079D02*
X3155Y1079D01*
X0Y1078D02*
X7Y1078D01*
X3148Y1078D02*
X3155Y1078D01*
X0Y1077D02*
X7Y1077D01*
X3148Y1077D02*
X3155Y1077D01*
X0Y1076D02*
X7Y1076D01*
X3148Y1076D02*
X3155Y1076D01*
X0Y1075D02*
X7Y1075D01*
X3148Y1075D02*
X3155Y1075D01*
X0Y1074D02*
X7Y1074D01*
X3148Y1074D02*
X3155Y1074D01*
X0Y1073D02*
X7Y1073D01*
X3148Y1073D02*
X3155Y1073D01*
X0Y1072D02*
X7Y1072D01*
X3148Y1072D02*
X3155Y1072D01*
X0Y1071D02*
X7Y1071D01*
X3148Y1071D02*
X3155Y1071D01*
X0Y1070D02*
X7Y1070D01*
X3148Y1070D02*
X3155Y1070D01*
X0Y1069D02*
X7Y1069D01*
X3148Y1069D02*
X3155Y1069D01*
X0Y1068D02*
X7Y1068D01*
X3148Y1068D02*
X3155Y1068D01*
X0Y1067D02*
X7Y1067D01*
X3148Y1067D02*
X3155Y1067D01*
X0Y1066D02*
X7Y1066D01*
X3148Y1066D02*
X3155Y1066D01*
X0Y1065D02*
X7Y1065D01*
X3148Y1065D02*
X3155Y1065D01*
X0Y1064D02*
X7Y1064D01*
X3148Y1064D02*
X3155Y1064D01*
X0Y1063D02*
X7Y1063D01*
X3148Y1063D02*
X3155Y1063D01*
X0Y1062D02*
X7Y1062D01*
X3148Y1062D02*
X3155Y1062D01*
X0Y1061D02*
X7Y1061D01*
X3148Y1061D02*
X3155Y1061D01*
X0Y1060D02*
X7Y1060D01*
X3148Y1060D02*
X3155Y1060D01*
X0Y1059D02*
X7Y1059D01*
X3148Y1059D02*
X3155Y1059D01*
X0Y1058D02*
X7Y1058D01*
X3148Y1058D02*
X3155Y1058D01*
X0Y1057D02*
X7Y1057D01*
X3148Y1057D02*
X3155Y1057D01*
X0Y1056D02*
X7Y1056D01*
X3148Y1056D02*
X3155Y1056D01*
X0Y1055D02*
X7Y1055D01*
X3148Y1055D02*
X3155Y1055D01*
X0Y1054D02*
X7Y1054D01*
X3148Y1054D02*
X3155Y1054D01*
X0Y1053D02*
X7Y1053D01*
X3148Y1053D02*
X3155Y1053D01*
X0Y1052D02*
X7Y1052D01*
X3148Y1052D02*
X3155Y1052D01*
X0Y1051D02*
X7Y1051D01*
X3148Y1051D02*
X3155Y1051D01*
X0Y1050D02*
X7Y1050D01*
X3148Y1050D02*
X3155Y1050D01*
X0Y1049D02*
X7Y1049D01*
X3148Y1049D02*
X3155Y1049D01*
X0Y1048D02*
X7Y1048D01*
X3148Y1048D02*
X3155Y1048D01*
X0Y1047D02*
X7Y1047D01*
X3148Y1047D02*
X3155Y1047D01*
X0Y1046D02*
X7Y1046D01*
X3148Y1046D02*
X3155Y1046D01*
X0Y1045D02*
X7Y1045D01*
X3148Y1045D02*
X3155Y1045D01*
X0Y1044D02*
X7Y1044D01*
X3148Y1044D02*
X3155Y1044D01*
X0Y1043D02*
X7Y1043D01*
X3148Y1043D02*
X3155Y1043D01*
X0Y1042D02*
X7Y1042D01*
X3148Y1042D02*
X3155Y1042D01*
X0Y1041D02*
X7Y1041D01*
X3148Y1041D02*
X3155Y1041D01*
X0Y1040D02*
X7Y1040D01*
X3148Y1040D02*
X3155Y1040D01*
X0Y1039D02*
X7Y1039D01*
X3148Y1039D02*
X3155Y1039D01*
X0Y1038D02*
X7Y1038D01*
X3148Y1038D02*
X3155Y1038D01*
X0Y1037D02*
X7Y1037D01*
X3148Y1037D02*
X3155Y1037D01*
X0Y1036D02*
X7Y1036D01*
X3148Y1036D02*
X3155Y1036D01*
X0Y1035D02*
X7Y1035D01*
X3148Y1035D02*
X3155Y1035D01*
X0Y1034D02*
X7Y1034D01*
X3148Y1034D02*
X3155Y1034D01*
X0Y1033D02*
X7Y1033D01*
X3148Y1033D02*
X3155Y1033D01*
X0Y1032D02*
X7Y1032D01*
X3148Y1032D02*
X3155Y1032D01*
X0Y1031D02*
X7Y1031D01*
X3148Y1031D02*
X3155Y1031D01*
X0Y1030D02*
X7Y1030D01*
X3148Y1030D02*
X3155Y1030D01*
X0Y1029D02*
X7Y1029D01*
X3148Y1029D02*
X3155Y1029D01*
X0Y1028D02*
X7Y1028D01*
X3148Y1028D02*
X3155Y1028D01*
X0Y1027D02*
X7Y1027D01*
X3148Y1027D02*
X3155Y1027D01*
X0Y1026D02*
X7Y1026D01*
X3148Y1026D02*
X3155Y1026D01*
X0Y1025D02*
X7Y1025D01*
X3148Y1025D02*
X3155Y1025D01*
X0Y1024D02*
X7Y1024D01*
X3148Y1024D02*
X3155Y1024D01*
X0Y1023D02*
X7Y1023D01*
X3148Y1023D02*
X3155Y1023D01*
X0Y1022D02*
X7Y1022D01*
X3148Y1022D02*
X3155Y1022D01*
X0Y1021D02*
X7Y1021D01*
X3148Y1021D02*
X3155Y1021D01*
X0Y1020D02*
X7Y1020D01*
X3148Y1020D02*
X3155Y1020D01*
X0Y1019D02*
X7Y1019D01*
X3148Y1019D02*
X3155Y1019D01*
X0Y1018D02*
X7Y1018D01*
X3148Y1018D02*
X3155Y1018D01*
X0Y1017D02*
X7Y1017D01*
X3148Y1017D02*
X3155Y1017D01*
X0Y1016D02*
X7Y1016D01*
X3148Y1016D02*
X3155Y1016D01*
X0Y1015D02*
X7Y1015D01*
X3148Y1015D02*
X3155Y1015D01*
X0Y1014D02*
X7Y1014D01*
X3148Y1014D02*
X3155Y1014D01*
X0Y1013D02*
X7Y1013D01*
X3148Y1013D02*
X3155Y1013D01*
X0Y1012D02*
X7Y1012D01*
X3148Y1012D02*
X3155Y1012D01*
X0Y1011D02*
X7Y1011D01*
X3148Y1011D02*
X3155Y1011D01*
X0Y1010D02*
X7Y1010D01*
X3148Y1010D02*
X3155Y1010D01*
X0Y1009D02*
X7Y1009D01*
X3148Y1009D02*
X3155Y1009D01*
X0Y1008D02*
X7Y1008D01*
X3148Y1008D02*
X3155Y1008D01*
X0Y1007D02*
X7Y1007D01*
X3148Y1007D02*
X3155Y1007D01*
X0Y1006D02*
X7Y1006D01*
X3148Y1006D02*
X3155Y1006D01*
X0Y1005D02*
X7Y1005D01*
X3148Y1005D02*
X3155Y1005D01*
X0Y1004D02*
X7Y1004D01*
X3148Y1004D02*
X3155Y1004D01*
X0Y1003D02*
X7Y1003D01*
X3148Y1003D02*
X3155Y1003D01*
X0Y1002D02*
X7Y1002D01*
X3148Y1002D02*
X3155Y1002D01*
X0Y1001D02*
X7Y1001D01*
X3148Y1001D02*
X3155Y1001D01*
X0Y1000D02*
X7Y1000D01*
X3148Y1000D02*
X3155Y1000D01*
X0Y999D02*
X7Y999D01*
X3148Y999D02*
X3155Y999D01*
X0Y998D02*
X7Y998D01*
X3148Y998D02*
X3155Y998D01*
X0Y997D02*
X7Y997D01*
X3148Y997D02*
X3155Y997D01*
X0Y996D02*
X7Y996D01*
X3148Y996D02*
X3155Y996D01*
X0Y995D02*
X7Y995D01*
X3148Y995D02*
X3155Y995D01*
X0Y994D02*
X7Y994D01*
X3148Y994D02*
X3155Y994D01*
X0Y993D02*
X7Y993D01*
X3148Y993D02*
X3155Y993D01*
X0Y992D02*
X7Y992D01*
X3148Y992D02*
X3155Y992D01*
X0Y991D02*
X7Y991D01*
X3148Y991D02*
X3155Y991D01*
X0Y990D02*
X7Y990D01*
X3148Y990D02*
X3155Y990D01*
X0Y989D02*
X7Y989D01*
X3148Y989D02*
X3155Y989D01*
X0Y988D02*
X7Y988D01*
X3148Y988D02*
X3155Y988D01*
X0Y987D02*
X7Y987D01*
X3148Y987D02*
X3155Y987D01*
X0Y986D02*
X7Y986D01*
X3148Y986D02*
X3155Y986D01*
X0Y985D02*
X7Y985D01*
X3148Y985D02*
X3155Y985D01*
X0Y984D02*
X7Y984D01*
X3148Y984D02*
X3155Y984D01*
X0Y983D02*
X7Y983D01*
X3148Y983D02*
X3155Y983D01*
X0Y982D02*
X7Y982D01*
X3148Y982D02*
X3155Y982D01*
X0Y981D02*
X7Y981D01*
X3148Y981D02*
X3155Y981D01*
X0Y980D02*
X7Y980D01*
X3148Y980D02*
X3155Y980D01*
X0Y979D02*
X7Y979D01*
X3148Y979D02*
X3155Y979D01*
X0Y978D02*
X7Y978D01*
X3148Y978D02*
X3155Y978D01*
X0Y977D02*
X7Y977D01*
X3148Y977D02*
X3155Y977D01*
X0Y976D02*
X7Y976D01*
X3148Y976D02*
X3155Y976D01*
X0Y975D02*
X7Y975D01*
X3148Y975D02*
X3155Y975D01*
X0Y974D02*
X7Y974D01*
X3148Y974D02*
X3155Y974D01*
X0Y973D02*
X7Y973D01*
X3148Y973D02*
X3155Y973D01*
X0Y972D02*
X7Y972D01*
X3148Y972D02*
X3155Y972D01*
X0Y971D02*
X7Y971D01*
X3148Y971D02*
X3155Y971D01*
X0Y970D02*
X7Y970D01*
X3148Y970D02*
X3155Y970D01*
X0Y969D02*
X7Y969D01*
X3148Y969D02*
X3155Y969D01*
X0Y968D02*
X7Y968D01*
X3148Y968D02*
X3155Y968D01*
X0Y967D02*
X7Y967D01*
X3148Y967D02*
X3155Y967D01*
X0Y966D02*
X7Y966D01*
X3148Y966D02*
X3155Y966D01*
X0Y965D02*
X7Y965D01*
X3148Y965D02*
X3155Y965D01*
X0Y964D02*
X7Y964D01*
X3148Y964D02*
X3155Y964D01*
X0Y963D02*
X7Y963D01*
X3148Y963D02*
X3155Y963D01*
X0Y962D02*
X7Y962D01*
X3148Y962D02*
X3155Y962D01*
X0Y961D02*
X7Y961D01*
X3148Y961D02*
X3155Y961D01*
X0Y960D02*
X7Y960D01*
X3148Y960D02*
X3155Y960D01*
X0Y959D02*
X7Y959D01*
X3148Y959D02*
X3155Y959D01*
X0Y958D02*
X7Y958D01*
X3148Y958D02*
X3155Y958D01*
X0Y957D02*
X7Y957D01*
X3148Y957D02*
X3155Y957D01*
X0Y956D02*
X7Y956D01*
X3148Y956D02*
X3155Y956D01*
X0Y955D02*
X7Y955D01*
X3148Y955D02*
X3155Y955D01*
X0Y954D02*
X7Y954D01*
X3148Y954D02*
X3155Y954D01*
X0Y953D02*
X7Y953D01*
X3148Y953D02*
X3155Y953D01*
X0Y952D02*
X7Y952D01*
X3148Y952D02*
X3155Y952D01*
X0Y951D02*
X7Y951D01*
X3148Y951D02*
X3155Y951D01*
X0Y950D02*
X7Y950D01*
X3148Y950D02*
X3155Y950D01*
X0Y949D02*
X7Y949D01*
X3148Y949D02*
X3155Y949D01*
X0Y948D02*
X7Y948D01*
X3148Y948D02*
X3155Y948D01*
X0Y947D02*
X7Y947D01*
X3148Y947D02*
X3155Y947D01*
X0Y946D02*
X7Y946D01*
X3148Y946D02*
X3155Y946D01*
X0Y945D02*
X7Y945D01*
X3148Y945D02*
X3155Y945D01*
X0Y944D02*
X7Y944D01*
X3148Y944D02*
X3155Y944D01*
X0Y943D02*
X7Y943D01*
X3148Y943D02*
X3155Y943D01*
X0Y942D02*
X7Y942D01*
X3148Y942D02*
X3155Y942D01*
X0Y941D02*
X7Y941D01*
X3148Y941D02*
X3155Y941D01*
X0Y940D02*
X7Y940D01*
X3148Y940D02*
X3155Y940D01*
X0Y939D02*
X7Y939D01*
X3148Y939D02*
X3155Y939D01*
X0Y938D02*
X7Y938D01*
X3148Y938D02*
X3155Y938D01*
X0Y937D02*
X7Y937D01*
X3148Y937D02*
X3155Y937D01*
X0Y936D02*
X7Y936D01*
X3148Y936D02*
X3155Y936D01*
X0Y935D02*
X7Y935D01*
X3148Y935D02*
X3155Y935D01*
X0Y934D02*
X7Y934D01*
X3148Y934D02*
X3155Y934D01*
X0Y933D02*
X7Y933D01*
X3148Y933D02*
X3155Y933D01*
X0Y932D02*
X7Y932D01*
X3148Y932D02*
X3155Y932D01*
X0Y931D02*
X7Y931D01*
X3148Y931D02*
X3155Y931D01*
X0Y930D02*
X7Y930D01*
X3148Y930D02*
X3155Y930D01*
X0Y929D02*
X7Y929D01*
X3148Y929D02*
X3155Y929D01*
X0Y928D02*
X7Y928D01*
X3148Y928D02*
X3155Y928D01*
X0Y927D02*
X7Y927D01*
X3148Y927D02*
X3155Y927D01*
X0Y926D02*
X7Y926D01*
X3148Y926D02*
X3155Y926D01*
X0Y925D02*
X7Y925D01*
X3148Y925D02*
X3155Y925D01*
X0Y924D02*
X7Y924D01*
X3148Y924D02*
X3155Y924D01*
X0Y923D02*
X7Y923D01*
X3148Y923D02*
X3155Y923D01*
X0Y922D02*
X7Y922D01*
X3148Y922D02*
X3155Y922D01*
X0Y921D02*
X7Y921D01*
X3148Y921D02*
X3155Y921D01*
X0Y920D02*
X7Y920D01*
X3148Y920D02*
X3155Y920D01*
X0Y919D02*
X7Y919D01*
X3148Y919D02*
X3155Y919D01*
X0Y918D02*
X7Y918D01*
X3148Y918D02*
X3155Y918D01*
X0Y917D02*
X7Y917D01*
X3148Y917D02*
X3155Y917D01*
X0Y916D02*
X7Y916D01*
X3148Y916D02*
X3155Y916D01*
X0Y915D02*
X7Y915D01*
X3148Y915D02*
X3155Y915D01*
X0Y914D02*
X7Y914D01*
X3148Y914D02*
X3155Y914D01*
X0Y913D02*
X7Y913D01*
X3148Y913D02*
X3155Y913D01*
X0Y912D02*
X7Y912D01*
X3148Y912D02*
X3155Y912D01*
X0Y911D02*
X7Y911D01*
X3148Y911D02*
X3155Y911D01*
X0Y910D02*
X7Y910D01*
X3148Y910D02*
X3155Y910D01*
X0Y909D02*
X7Y909D01*
X3148Y909D02*
X3155Y909D01*
X0Y908D02*
X7Y908D01*
X3148Y908D02*
X3155Y908D01*
X0Y907D02*
X7Y907D01*
X3148Y907D02*
X3155Y907D01*
X0Y906D02*
X7Y906D01*
X3148Y906D02*
X3155Y906D01*
X0Y905D02*
X7Y905D01*
X3148Y905D02*
X3155Y905D01*
X0Y904D02*
X7Y904D01*
X3148Y904D02*
X3155Y904D01*
X0Y903D02*
X7Y903D01*
X3148Y903D02*
X3155Y903D01*
X0Y902D02*
X7Y902D01*
X3148Y902D02*
X3155Y902D01*
X0Y901D02*
X7Y901D01*
X3148Y901D02*
X3155Y901D01*
X0Y900D02*
X7Y900D01*
X3148Y900D02*
X3155Y900D01*
X0Y899D02*
X7Y899D01*
X3148Y899D02*
X3155Y899D01*
X0Y898D02*
X7Y898D01*
X3148Y898D02*
X3155Y898D01*
X0Y897D02*
X7Y897D01*
X3148Y897D02*
X3155Y897D01*
X0Y896D02*
X7Y896D01*
X3148Y896D02*
X3155Y896D01*
X0Y895D02*
X7Y895D01*
X3148Y895D02*
X3155Y895D01*
X0Y894D02*
X7Y894D01*
X3148Y894D02*
X3155Y894D01*
X0Y893D02*
X7Y893D01*
X3148Y893D02*
X3155Y893D01*
X0Y892D02*
X7Y892D01*
X3148Y892D02*
X3155Y892D01*
X0Y891D02*
X7Y891D01*
X3148Y891D02*
X3155Y891D01*
X0Y890D02*
X7Y890D01*
X3148Y890D02*
X3155Y890D01*
X0Y889D02*
X7Y889D01*
X3148Y889D02*
X3155Y889D01*
X0Y888D02*
X7Y888D01*
X3148Y888D02*
X3155Y888D01*
X0Y887D02*
X7Y887D01*
X3148Y887D02*
X3155Y887D01*
X0Y886D02*
X7Y886D01*
X3148Y886D02*
X3155Y886D01*
X0Y885D02*
X7Y885D01*
X3148Y885D02*
X3155Y885D01*
X0Y884D02*
X7Y884D01*
X3148Y884D02*
X3155Y884D01*
X0Y883D02*
X7Y883D01*
X3148Y883D02*
X3155Y883D01*
X0Y882D02*
X7Y882D01*
X3148Y882D02*
X3155Y882D01*
X0Y881D02*
X7Y881D01*
X3148Y881D02*
X3155Y881D01*
X0Y880D02*
X7Y880D01*
X3148Y880D02*
X3155Y880D01*
X0Y879D02*
X7Y879D01*
X3148Y879D02*
X3155Y879D01*
X0Y878D02*
X7Y878D01*
X3148Y878D02*
X3155Y878D01*
X0Y877D02*
X7Y877D01*
X3148Y877D02*
X3155Y877D01*
X0Y876D02*
X7Y876D01*
X3148Y876D02*
X3155Y876D01*
X0Y875D02*
X7Y875D01*
X3148Y875D02*
X3155Y875D01*
X0Y874D02*
X7Y874D01*
X3148Y874D02*
X3155Y874D01*
X0Y873D02*
X7Y873D01*
X3148Y873D02*
X3155Y873D01*
X0Y872D02*
X7Y872D01*
X3148Y872D02*
X3155Y872D01*
X0Y871D02*
X7Y871D01*
X3148Y871D02*
X3155Y871D01*
X0Y870D02*
X7Y870D01*
X3148Y870D02*
X3155Y870D01*
X0Y869D02*
X7Y869D01*
X3148Y869D02*
X3155Y869D01*
X0Y868D02*
X7Y868D01*
X3148Y868D02*
X3155Y868D01*
X0Y867D02*
X7Y867D01*
X3148Y867D02*
X3155Y867D01*
X0Y866D02*
X7Y866D01*
X3148Y866D02*
X3155Y866D01*
X0Y865D02*
X7Y865D01*
X3148Y865D02*
X3155Y865D01*
X0Y864D02*
X7Y864D01*
X3148Y864D02*
X3155Y864D01*
X0Y863D02*
X7Y863D01*
X3148Y863D02*
X3155Y863D01*
X0Y862D02*
X7Y862D01*
X3148Y862D02*
X3155Y862D01*
X0Y861D02*
X7Y861D01*
X3148Y861D02*
X3155Y861D01*
X0Y860D02*
X7Y860D01*
X3148Y860D02*
X3155Y860D01*
X0Y859D02*
X7Y859D01*
X3148Y859D02*
X3155Y859D01*
X0Y858D02*
X7Y858D01*
X3148Y858D02*
X3155Y858D01*
X0Y857D02*
X7Y857D01*
X3148Y857D02*
X3155Y857D01*
X0Y856D02*
X7Y856D01*
X3148Y856D02*
X3155Y856D01*
X0Y855D02*
X7Y855D01*
X3148Y855D02*
X3155Y855D01*
X0Y854D02*
X7Y854D01*
X3148Y854D02*
X3155Y854D01*
X0Y853D02*
X7Y853D01*
X3148Y853D02*
X3155Y853D01*
X0Y852D02*
X7Y852D01*
X3148Y852D02*
X3155Y852D01*
X0Y851D02*
X7Y851D01*
X3148Y851D02*
X3155Y851D01*
X0Y850D02*
X7Y850D01*
X3148Y850D02*
X3155Y850D01*
X0Y849D02*
X7Y849D01*
X3148Y849D02*
X3155Y849D01*
X0Y848D02*
X7Y848D01*
X3148Y848D02*
X3155Y848D01*
X0Y847D02*
X7Y847D01*
X3148Y847D02*
X3155Y847D01*
X0Y846D02*
X7Y846D01*
X3148Y846D02*
X3155Y846D01*
X0Y845D02*
X7Y845D01*
X3148Y845D02*
X3155Y845D01*
X0Y844D02*
X7Y844D01*
X3148Y844D02*
X3155Y844D01*
X0Y843D02*
X7Y843D01*
X3148Y843D02*
X3155Y843D01*
X0Y842D02*
X7Y842D01*
X3148Y842D02*
X3155Y842D01*
X0Y841D02*
X7Y841D01*
X3148Y841D02*
X3155Y841D01*
X0Y840D02*
X7Y840D01*
X3148Y840D02*
X3155Y840D01*
X0Y839D02*
X7Y839D01*
X3148Y839D02*
X3155Y839D01*
X0Y838D02*
X7Y838D01*
X3148Y838D02*
X3155Y838D01*
X0Y837D02*
X7Y837D01*
X3148Y837D02*
X3155Y837D01*
X0Y836D02*
X7Y836D01*
X3148Y836D02*
X3155Y836D01*
X0Y835D02*
X7Y835D01*
X3148Y835D02*
X3155Y835D01*
X0Y834D02*
X7Y834D01*
X3148Y834D02*
X3155Y834D01*
X0Y833D02*
X7Y833D01*
X3148Y833D02*
X3155Y833D01*
X0Y832D02*
X7Y832D01*
X3148Y832D02*
X3155Y832D01*
X0Y831D02*
X7Y831D01*
X3148Y831D02*
X3155Y831D01*
X0Y830D02*
X7Y830D01*
X3148Y830D02*
X3155Y830D01*
X0Y829D02*
X7Y829D01*
X3148Y829D02*
X3155Y829D01*
X0Y828D02*
X7Y828D01*
X3148Y828D02*
X3155Y828D01*
X0Y827D02*
X7Y827D01*
X3148Y827D02*
X3155Y827D01*
X0Y826D02*
X7Y826D01*
X3148Y826D02*
X3155Y826D01*
X0Y825D02*
X7Y825D01*
X3148Y825D02*
X3155Y825D01*
X0Y824D02*
X7Y824D01*
X3148Y824D02*
X3155Y824D01*
X0Y823D02*
X7Y823D01*
X3148Y823D02*
X3155Y823D01*
X0Y822D02*
X7Y822D01*
X3148Y822D02*
X3155Y822D01*
X0Y821D02*
X7Y821D01*
X3148Y821D02*
X3155Y821D01*
X0Y820D02*
X7Y820D01*
X3148Y820D02*
X3155Y820D01*
X0Y819D02*
X7Y819D01*
X3148Y819D02*
X3155Y819D01*
X0Y818D02*
X7Y818D01*
X3148Y818D02*
X3155Y818D01*
X0Y817D02*
X7Y817D01*
X3148Y817D02*
X3155Y817D01*
X0Y816D02*
X7Y816D01*
X3148Y816D02*
X3155Y816D01*
X0Y815D02*
X7Y815D01*
X3148Y815D02*
X3155Y815D01*
X0Y814D02*
X7Y814D01*
X3148Y814D02*
X3155Y814D01*
X0Y813D02*
X7Y813D01*
X3148Y813D02*
X3155Y813D01*
X0Y812D02*
X7Y812D01*
X3148Y812D02*
X3155Y812D01*
X0Y811D02*
X7Y811D01*
X3148Y811D02*
X3155Y811D01*
X0Y810D02*
X7Y810D01*
X3148Y810D02*
X3155Y810D01*
X0Y809D02*
X7Y809D01*
X3148Y809D02*
X3155Y809D01*
X0Y808D02*
X7Y808D01*
X3148Y808D02*
X3155Y808D01*
X0Y807D02*
X7Y807D01*
X3148Y807D02*
X3155Y807D01*
X0Y806D02*
X7Y806D01*
X3148Y806D02*
X3155Y806D01*
X0Y805D02*
X7Y805D01*
X3148Y805D02*
X3155Y805D01*
X0Y804D02*
X7Y804D01*
X3148Y804D02*
X3155Y804D01*
X0Y803D02*
X7Y803D01*
X3148Y803D02*
X3155Y803D01*
X0Y802D02*
X7Y802D01*
X3148Y802D02*
X3155Y802D01*
X0Y801D02*
X7Y801D01*
X3148Y801D02*
X3155Y801D01*
X0Y800D02*
X7Y800D01*
X3148Y800D02*
X3155Y800D01*
X0Y799D02*
X7Y799D01*
X3148Y799D02*
X3155Y799D01*
X0Y798D02*
X7Y798D01*
X3148Y798D02*
X3155Y798D01*
X0Y797D02*
X7Y797D01*
X3148Y797D02*
X3155Y797D01*
X0Y796D02*
X7Y796D01*
X3148Y796D02*
X3155Y796D01*
X0Y795D02*
X7Y795D01*
X3148Y795D02*
X3155Y795D01*
X0Y794D02*
X7Y794D01*
X3148Y794D02*
X3155Y794D01*
X0Y793D02*
X7Y793D01*
X3148Y793D02*
X3155Y793D01*
X0Y792D02*
X7Y792D01*
X3148Y792D02*
X3155Y792D01*
X0Y791D02*
X7Y791D01*
X3148Y791D02*
X3155Y791D01*
X0Y790D02*
X7Y790D01*
X3148Y790D02*
X3155Y790D01*
X0Y789D02*
X7Y789D01*
X3148Y789D02*
X3155Y789D01*
X0Y788D02*
X7Y788D01*
X3148Y788D02*
X3155Y788D01*
X0Y787D02*
X7Y787D01*
X3148Y787D02*
X3155Y787D01*
X0Y786D02*
X7Y786D01*
X3148Y786D02*
X3155Y786D01*
X0Y785D02*
X7Y785D01*
X3148Y785D02*
X3155Y785D01*
X0Y784D02*
X7Y784D01*
X3148Y784D02*
X3155Y784D01*
X0Y783D02*
X7Y783D01*
X3148Y783D02*
X3155Y783D01*
X0Y782D02*
X7Y782D01*
X3148Y782D02*
X3155Y782D01*
X0Y781D02*
X7Y781D01*
X3148Y781D02*
X3155Y781D01*
X0Y780D02*
X7Y780D01*
X3148Y780D02*
X3155Y780D01*
X0Y779D02*
X7Y779D01*
X3148Y779D02*
X3155Y779D01*
X0Y778D02*
X7Y778D01*
X3148Y778D02*
X3155Y778D01*
X0Y777D02*
X7Y777D01*
X3148Y777D02*
X3155Y777D01*
X0Y776D02*
X7Y776D01*
X3148Y776D02*
X3155Y776D01*
X0Y775D02*
X7Y775D01*
X3148Y775D02*
X3155Y775D01*
X0Y774D02*
X7Y774D01*
X3148Y774D02*
X3155Y774D01*
X0Y773D02*
X7Y773D01*
X3148Y773D02*
X3155Y773D01*
X0Y772D02*
X7Y772D01*
X3148Y772D02*
X3155Y772D01*
X0Y771D02*
X7Y771D01*
X3148Y771D02*
X3155Y771D01*
X0Y770D02*
X7Y770D01*
X3148Y770D02*
X3155Y770D01*
X0Y769D02*
X7Y769D01*
X3148Y769D02*
X3155Y769D01*
X0Y768D02*
X7Y768D01*
X3148Y768D02*
X3155Y768D01*
X0Y767D02*
X7Y767D01*
X3148Y767D02*
X3155Y767D01*
X0Y766D02*
X7Y766D01*
X3148Y766D02*
X3155Y766D01*
X0Y765D02*
X7Y765D01*
X3148Y765D02*
X3155Y765D01*
X0Y764D02*
X7Y764D01*
X3148Y764D02*
X3155Y764D01*
X0Y763D02*
X7Y763D01*
X3148Y763D02*
X3155Y763D01*
X0Y762D02*
X7Y762D01*
X3148Y762D02*
X3155Y762D01*
X0Y761D02*
X7Y761D01*
X3148Y761D02*
X3155Y761D01*
X0Y760D02*
X7Y760D01*
X3148Y760D02*
X3155Y760D01*
X0Y759D02*
X7Y759D01*
X3148Y759D02*
X3155Y759D01*
X0Y758D02*
X7Y758D01*
X3148Y758D02*
X3155Y758D01*
X0Y757D02*
X7Y757D01*
X3148Y757D02*
X3155Y757D01*
X0Y756D02*
X7Y756D01*
X3148Y756D02*
X3155Y756D01*
X0Y755D02*
X7Y755D01*
X3148Y755D02*
X3155Y755D01*
X0Y754D02*
X7Y754D01*
X3148Y754D02*
X3155Y754D01*
X0Y753D02*
X7Y753D01*
X3148Y753D02*
X3155Y753D01*
X0Y752D02*
X7Y752D01*
X3148Y752D02*
X3155Y752D01*
X0Y751D02*
X7Y751D01*
X3148Y751D02*
X3155Y751D01*
X0Y750D02*
X7Y750D01*
X3148Y750D02*
X3155Y750D01*
X0Y749D02*
X7Y749D01*
X3148Y749D02*
X3155Y749D01*
X0Y748D02*
X7Y748D01*
X3148Y748D02*
X3155Y748D01*
X0Y747D02*
X7Y747D01*
X3148Y747D02*
X3155Y747D01*
X0Y746D02*
X7Y746D01*
X3148Y746D02*
X3155Y746D01*
X0Y745D02*
X7Y745D01*
X3148Y745D02*
X3155Y745D01*
X0Y744D02*
X7Y744D01*
X3148Y744D02*
X3155Y744D01*
X0Y743D02*
X7Y743D01*
X3148Y743D02*
X3155Y743D01*
X0Y742D02*
X7Y742D01*
X1068Y742D02*
X1087Y742D01*
X1106Y742D02*
X1124Y742D01*
X1157Y742D02*
X1187Y742D01*
X3148Y742D02*
X3155Y742D01*
X0Y741D02*
X7Y741D01*
X1068Y741D02*
X1088Y741D01*
X1105Y741D02*
X1126Y741D01*
X1156Y741D02*
X1188Y741D01*
X3148Y741D02*
X3155Y741D01*
X0Y740D02*
X7Y740D01*
X1068Y740D02*
X1088Y740D01*
X1105Y740D02*
X1127Y740D01*
X1155Y740D02*
X1189Y740D01*
X3148Y740D02*
X3155Y740D01*
X0Y739D02*
X7Y739D01*
X1068Y739D02*
X1088Y739D01*
X1105Y739D02*
X1128Y739D01*
X1155Y739D02*
X1189Y739D01*
X3148Y739D02*
X3155Y739D01*
X0Y738D02*
X7Y738D01*
X1068Y738D02*
X1088Y738D01*
X1105Y738D02*
X1129Y738D01*
X1155Y738D02*
X1188Y738D01*
X3148Y738D02*
X3155Y738D01*
X0Y737D02*
X7Y737D01*
X1068Y737D02*
X1087Y737D01*
X1106Y737D02*
X1130Y737D01*
X1156Y737D02*
X1188Y737D01*
X3148Y737D02*
X3155Y737D01*
X0Y736D02*
X7Y736D01*
X1068Y736D02*
X1086Y736D01*
X1107Y736D02*
X1130Y736D01*
X1157Y736D02*
X1186Y736D01*
X3148Y736D02*
X3155Y736D01*
X0Y735D02*
X7Y735D01*
X1068Y735D02*
X1074Y735D01*
X1123Y735D02*
X1131Y735D01*
X1169Y735D02*
X1175Y735D01*
X3148Y735D02*
X3155Y735D01*
X0Y734D02*
X7Y734D01*
X1068Y734D02*
X1074Y734D01*
X1124Y734D02*
X1131Y734D01*
X1169Y734D02*
X1175Y734D01*
X3148Y734D02*
X3155Y734D01*
X0Y733D02*
X7Y733D01*
X1068Y733D02*
X1074Y733D01*
X1125Y733D02*
X1132Y733D01*
X1169Y733D02*
X1175Y733D01*
X3148Y733D02*
X3155Y733D01*
X0Y732D02*
X7Y732D01*
X1068Y732D02*
X1074Y732D01*
X1125Y732D02*
X1132Y732D01*
X1169Y732D02*
X1175Y732D01*
X3148Y732D02*
X3155Y732D01*
X0Y731D02*
X7Y731D01*
X1068Y731D02*
X1074Y731D01*
X1126Y731D02*
X1133Y731D01*
X1169Y731D02*
X1175Y731D01*
X3148Y731D02*
X3155Y731D01*
X0Y730D02*
X7Y730D01*
X1068Y730D02*
X1074Y730D01*
X1126Y730D02*
X1133Y730D01*
X1169Y730D02*
X1175Y730D01*
X3148Y730D02*
X3155Y730D01*
X0Y729D02*
X7Y729D01*
X1068Y729D02*
X1074Y729D01*
X1127Y729D02*
X1134Y729D01*
X1169Y729D02*
X1175Y729D01*
X3148Y729D02*
X3155Y729D01*
X0Y728D02*
X7Y728D01*
X1068Y728D02*
X1074Y728D01*
X1127Y728D02*
X1134Y728D01*
X1169Y728D02*
X1175Y728D01*
X3148Y728D02*
X3155Y728D01*
X0Y727D02*
X7Y727D01*
X1068Y727D02*
X1074Y727D01*
X1128Y727D02*
X1135Y727D01*
X1169Y727D02*
X1175Y727D01*
X3148Y727D02*
X3155Y727D01*
X0Y726D02*
X7Y726D01*
X1068Y726D02*
X1074Y726D01*
X1128Y726D02*
X1135Y726D01*
X1169Y726D02*
X1175Y726D01*
X3148Y726D02*
X3155Y726D01*
X0Y725D02*
X7Y725D01*
X1068Y725D02*
X1074Y725D01*
X1129Y725D02*
X1136Y725D01*
X1169Y725D02*
X1175Y725D01*
X3148Y725D02*
X3155Y725D01*
X0Y724D02*
X7Y724D01*
X1068Y724D02*
X1074Y724D01*
X1129Y724D02*
X1136Y724D01*
X1169Y724D02*
X1175Y724D01*
X3148Y724D02*
X3155Y724D01*
X0Y723D02*
X7Y723D01*
X1068Y723D02*
X1074Y723D01*
X1130Y723D02*
X1137Y723D01*
X1169Y723D02*
X1175Y723D01*
X3148Y723D02*
X3155Y723D01*
X0Y722D02*
X7Y722D01*
X1068Y722D02*
X1074Y722D01*
X1130Y722D02*
X1137Y722D01*
X1169Y722D02*
X1175Y722D01*
X3148Y722D02*
X3155Y722D01*
X0Y721D02*
X7Y721D01*
X1068Y721D02*
X1074Y721D01*
X1131Y721D02*
X1137Y721D01*
X1169Y721D02*
X1175Y721D01*
X3148Y721D02*
X3155Y721D01*
X0Y720D02*
X7Y720D01*
X1068Y720D02*
X1074Y720D01*
X1131Y720D02*
X1138Y720D01*
X1169Y720D02*
X1175Y720D01*
X3148Y720D02*
X3155Y720D01*
X0Y719D02*
X7Y719D01*
X1068Y719D02*
X1074Y719D01*
X1132Y719D02*
X1138Y719D01*
X1169Y719D02*
X1175Y719D01*
X3148Y719D02*
X3155Y719D01*
X0Y718D02*
X7Y718D01*
X1068Y718D02*
X1074Y718D01*
X1132Y718D02*
X1138Y718D01*
X1169Y718D02*
X1175Y718D01*
X3148Y718D02*
X3155Y718D01*
X0Y717D02*
X7Y717D01*
X1068Y717D02*
X1074Y717D01*
X1132Y717D02*
X1138Y717D01*
X1169Y717D02*
X1175Y717D01*
X3148Y717D02*
X3155Y717D01*
X0Y716D02*
X7Y716D01*
X1068Y716D02*
X1074Y716D01*
X1132Y716D02*
X1138Y716D01*
X1169Y716D02*
X1175Y716D01*
X3148Y716D02*
X3155Y716D01*
X0Y715D02*
X7Y715D01*
X1068Y715D02*
X1074Y715D01*
X1132Y715D02*
X1138Y715D01*
X1169Y715D02*
X1175Y715D01*
X3148Y715D02*
X3155Y715D01*
X0Y714D02*
X7Y714D01*
X1068Y714D02*
X1074Y714D01*
X1132Y714D02*
X1138Y714D01*
X1169Y714D02*
X1175Y714D01*
X3148Y714D02*
X3155Y714D01*
X0Y713D02*
X7Y713D01*
X1057Y713D02*
X1059Y713D01*
X1068Y713D02*
X1074Y713D01*
X1132Y713D02*
X1138Y713D01*
X1169Y713D02*
X1175Y713D01*
X3148Y713D02*
X3155Y713D01*
X0Y712D02*
X7Y712D01*
X1056Y712D02*
X1060Y712D01*
X1068Y712D02*
X1074Y712D01*
X1132Y712D02*
X1138Y712D01*
X1169Y712D02*
X1175Y712D01*
X3148Y712D02*
X3155Y712D01*
X0Y711D02*
X7Y711D01*
X1055Y711D02*
X1060Y711D01*
X1068Y711D02*
X1074Y711D01*
X1131Y711D02*
X1138Y711D01*
X1169Y711D02*
X1175Y711D01*
X3148Y711D02*
X3155Y711D01*
X0Y710D02*
X7Y710D01*
X1055Y710D02*
X1061Y710D01*
X1068Y710D02*
X1074Y710D01*
X1131Y710D02*
X1137Y710D01*
X1169Y710D02*
X1175Y710D01*
X3148Y710D02*
X3155Y710D01*
X0Y709D02*
X7Y709D01*
X1055Y709D02*
X1061Y709D01*
X1068Y709D02*
X1074Y709D01*
X1130Y709D02*
X1137Y709D01*
X1169Y709D02*
X1175Y709D01*
X3148Y709D02*
X3155Y709D01*
X0Y708D02*
X7Y708D01*
X1055Y708D02*
X1061Y708D01*
X1068Y708D02*
X1074Y708D01*
X1130Y708D02*
X1136Y708D01*
X1169Y708D02*
X1175Y708D01*
X3148Y708D02*
X3155Y708D01*
X0Y707D02*
X7Y707D01*
X1055Y707D02*
X1061Y707D01*
X1068Y707D02*
X1074Y707D01*
X1129Y707D02*
X1136Y707D01*
X1169Y707D02*
X1175Y707D01*
X3148Y707D02*
X3155Y707D01*
X0Y706D02*
X7Y706D01*
X1055Y706D02*
X1061Y706D01*
X1068Y706D02*
X1074Y706D01*
X1129Y706D02*
X1135Y706D01*
X1169Y706D02*
X1175Y706D01*
X3148Y706D02*
X3155Y706D01*
X0Y705D02*
X7Y705D01*
X1055Y705D02*
X1061Y705D01*
X1068Y705D02*
X1074Y705D01*
X1128Y705D02*
X1135Y705D01*
X1169Y705D02*
X1175Y705D01*
X3148Y705D02*
X3155Y705D01*
X0Y704D02*
X7Y704D01*
X1055Y704D02*
X1061Y704D01*
X1068Y704D02*
X1074Y704D01*
X1128Y704D02*
X1134Y704D01*
X1169Y704D02*
X1175Y704D01*
X3148Y704D02*
X3155Y704D01*
X0Y703D02*
X7Y703D01*
X1055Y703D02*
X1061Y703D01*
X1068Y703D02*
X1074Y703D01*
X1127Y703D02*
X1134Y703D01*
X1169Y703D02*
X1175Y703D01*
X3148Y703D02*
X3155Y703D01*
X0Y702D02*
X7Y702D01*
X1055Y702D02*
X1061Y702D01*
X1068Y702D02*
X1074Y702D01*
X1127Y702D02*
X1133Y702D01*
X1169Y702D02*
X1175Y702D01*
X3148Y702D02*
X3155Y702D01*
X0Y701D02*
X7Y701D01*
X1055Y701D02*
X1061Y701D01*
X1068Y701D02*
X1074Y701D01*
X1126Y701D02*
X1133Y701D01*
X1169Y701D02*
X1175Y701D01*
X3148Y701D02*
X3155Y701D01*
X0Y700D02*
X7Y700D01*
X1055Y700D02*
X1061Y700D01*
X1068Y700D02*
X1074Y700D01*
X1126Y700D02*
X1132Y700D01*
X1169Y700D02*
X1175Y700D01*
X3148Y700D02*
X3155Y700D01*
X0Y699D02*
X7Y699D01*
X1055Y699D02*
X1061Y699D01*
X1068Y699D02*
X1074Y699D01*
X1125Y699D02*
X1132Y699D01*
X1169Y699D02*
X1175Y699D01*
X3148Y699D02*
X3155Y699D01*
X0Y698D02*
X7Y698D01*
X1055Y698D02*
X1061Y698D01*
X1068Y698D02*
X1074Y698D01*
X1125Y698D02*
X1131Y698D01*
X1169Y698D02*
X1175Y698D01*
X3148Y698D02*
X3155Y698D01*
X0Y697D02*
X7Y697D01*
X1055Y697D02*
X1061Y697D01*
X1068Y697D02*
X1074Y697D01*
X1124Y697D02*
X1131Y697D01*
X1169Y697D02*
X1175Y697D01*
X3148Y697D02*
X3155Y697D01*
X0Y696D02*
X7Y696D01*
X1055Y696D02*
X1061Y696D01*
X1068Y696D02*
X1075Y696D01*
X1123Y696D02*
X1130Y696D01*
X1169Y696D02*
X1175Y696D01*
X3148Y696D02*
X3155Y696D01*
X0Y695D02*
X7Y695D01*
X1055Y695D02*
X1087Y695D01*
X1107Y695D02*
X1130Y695D01*
X1157Y695D02*
X1187Y695D01*
X3148Y695D02*
X3155Y695D01*
X0Y694D02*
X7Y694D01*
X1055Y694D02*
X1088Y694D01*
X1105Y694D02*
X1129Y694D01*
X1156Y694D02*
X1188Y694D01*
X3148Y694D02*
X3155Y694D01*
X0Y693D02*
X7Y693D01*
X1055Y693D02*
X1088Y693D01*
X1105Y693D02*
X1129Y693D01*
X1155Y693D02*
X1188Y693D01*
X3148Y693D02*
X3155Y693D01*
X0Y692D02*
X7Y692D01*
X1055Y692D02*
X1088Y692D01*
X1105Y692D02*
X1128Y692D01*
X1155Y692D02*
X1189Y692D01*
X3148Y692D02*
X3155Y692D01*
X0Y691D02*
X7Y691D01*
X1055Y691D02*
X1088Y691D01*
X1105Y691D02*
X1127Y691D01*
X1155Y691D02*
X1188Y691D01*
X3148Y691D02*
X3155Y691D01*
X0Y690D02*
X7Y690D01*
X1055Y690D02*
X1087Y690D01*
X1106Y690D02*
X1125Y690D01*
X1156Y690D02*
X1188Y690D01*
X3148Y690D02*
X3155Y690D01*
X0Y689D02*
X7Y689D01*
X1057Y689D02*
X1086Y689D01*
X1107Y689D02*
X1123Y689D01*
X1157Y689D02*
X1187Y689D01*
X3148Y689D02*
X3155Y689D01*
X0Y688D02*
X7Y688D01*
X3148Y688D02*
X3155Y688D01*
X0Y687D02*
X7Y687D01*
X3148Y687D02*
X3155Y687D01*
X0Y686D02*
X7Y686D01*
X3148Y686D02*
X3155Y686D01*
X0Y685D02*
X7Y685D01*
X3148Y685D02*
X3155Y685D01*
X0Y684D02*
X7Y684D01*
X3148Y684D02*
X3155Y684D01*
X0Y683D02*
X7Y683D01*
X3148Y683D02*
X3155Y683D01*
X0Y682D02*
X7Y682D01*
X3148Y682D02*
X3155Y682D01*
X0Y681D02*
X7Y681D01*
X3148Y681D02*
X3155Y681D01*
X0Y680D02*
X7Y680D01*
X3148Y680D02*
X3155Y680D01*
X0Y679D02*
X7Y679D01*
X3148Y679D02*
X3155Y679D01*
X0Y678D02*
X7Y678D01*
X3148Y678D02*
X3155Y678D01*
X0Y677D02*
X7Y677D01*
X3148Y677D02*
X3155Y677D01*
X0Y676D02*
X7Y676D01*
X3148Y676D02*
X3155Y676D01*
X0Y675D02*
X7Y675D01*
X3148Y675D02*
X3155Y675D01*
X0Y674D02*
X7Y674D01*
X3148Y674D02*
X3155Y674D01*
X0Y673D02*
X7Y673D01*
X3148Y673D02*
X3155Y673D01*
X0Y672D02*
X7Y672D01*
X3148Y672D02*
X3155Y672D01*
X0Y671D02*
X7Y671D01*
X3148Y671D02*
X3155Y671D01*
X0Y670D02*
X7Y670D01*
X3148Y670D02*
X3155Y670D01*
X0Y669D02*
X7Y669D01*
X3148Y669D02*
X3155Y669D01*
X0Y668D02*
X7Y668D01*
X3148Y668D02*
X3155Y668D01*
X0Y667D02*
X7Y667D01*
X3148Y667D02*
X3155Y667D01*
X0Y666D02*
X7Y666D01*
X3148Y666D02*
X3155Y666D01*
X0Y665D02*
X7Y665D01*
X3148Y665D02*
X3155Y665D01*
X0Y664D02*
X7Y664D01*
X3148Y664D02*
X3155Y664D01*
X0Y663D02*
X7Y663D01*
X3148Y663D02*
X3155Y663D01*
X0Y662D02*
X7Y662D01*
X3148Y662D02*
X3155Y662D01*
X0Y661D02*
X7Y661D01*
X3148Y661D02*
X3155Y661D01*
X0Y660D02*
X7Y660D01*
X3148Y660D02*
X3155Y660D01*
X0Y659D02*
X7Y659D01*
X3148Y659D02*
X3155Y659D01*
X0Y658D02*
X7Y658D01*
X3148Y658D02*
X3155Y658D01*
X0Y657D02*
X7Y657D01*
X3148Y657D02*
X3155Y657D01*
X0Y656D02*
X7Y656D01*
X3148Y656D02*
X3155Y656D01*
X0Y655D02*
X7Y655D01*
X3148Y655D02*
X3155Y655D01*
X0Y654D02*
X7Y654D01*
X3148Y654D02*
X3155Y654D01*
X0Y653D02*
X7Y653D01*
X3148Y653D02*
X3155Y653D01*
X0Y652D02*
X7Y652D01*
X3148Y652D02*
X3155Y652D01*
X0Y651D02*
X7Y651D01*
X3148Y651D02*
X3155Y651D01*
X0Y650D02*
X7Y650D01*
X3148Y650D02*
X3155Y650D01*
X0Y649D02*
X7Y649D01*
X3148Y649D02*
X3155Y649D01*
X0Y648D02*
X7Y648D01*
X3148Y648D02*
X3155Y648D01*
X0Y647D02*
X7Y647D01*
X3148Y647D02*
X3155Y647D01*
X0Y646D02*
X7Y646D01*
X3148Y646D02*
X3155Y646D01*
X0Y645D02*
X7Y645D01*
X3148Y645D02*
X3155Y645D01*
X0Y644D02*
X7Y644D01*
X3148Y644D02*
X3155Y644D01*
X0Y643D02*
X7Y643D01*
X3148Y643D02*
X3155Y643D01*
X0Y642D02*
X7Y642D01*
X3148Y642D02*
X3155Y642D01*
X0Y641D02*
X7Y641D01*
X3148Y641D02*
X3155Y641D01*
X0Y640D02*
X7Y640D01*
X3148Y640D02*
X3155Y640D01*
X0Y639D02*
X7Y639D01*
X3148Y639D02*
X3155Y639D01*
X0Y638D02*
X7Y638D01*
X3148Y638D02*
X3155Y638D01*
X0Y637D02*
X7Y637D01*
X3148Y637D02*
X3155Y637D01*
X0Y636D02*
X7Y636D01*
X3148Y636D02*
X3155Y636D01*
X0Y635D02*
X7Y635D01*
X3148Y635D02*
X3155Y635D01*
X0Y634D02*
X7Y634D01*
X3148Y634D02*
X3155Y634D01*
X0Y633D02*
X7Y633D01*
X3148Y633D02*
X3155Y633D01*
X0Y632D02*
X7Y632D01*
X3148Y632D02*
X3155Y632D01*
X0Y631D02*
X7Y631D01*
X3148Y631D02*
X3155Y631D01*
X0Y630D02*
X7Y630D01*
X3148Y630D02*
X3155Y630D01*
X0Y629D02*
X7Y629D01*
X3148Y629D02*
X3155Y629D01*
X0Y628D02*
X7Y628D01*
X3148Y628D02*
X3155Y628D01*
X0Y627D02*
X7Y627D01*
X3148Y627D02*
X3155Y627D01*
X0Y626D02*
X7Y626D01*
X3148Y626D02*
X3155Y626D01*
X0Y625D02*
X7Y625D01*
X3148Y625D02*
X3155Y625D01*
X0Y624D02*
X7Y624D01*
X3148Y624D02*
X3155Y624D01*
X0Y623D02*
X7Y623D01*
X3148Y623D02*
X3155Y623D01*
X0Y622D02*
X7Y622D01*
X3148Y622D02*
X3155Y622D01*
X0Y621D02*
X7Y621D01*
X3148Y621D02*
X3155Y621D01*
X0Y620D02*
X7Y620D01*
X3148Y620D02*
X3155Y620D01*
X0Y619D02*
X7Y619D01*
X3148Y619D02*
X3155Y619D01*
X0Y618D02*
X7Y618D01*
X3148Y618D02*
X3155Y618D01*
X0Y617D02*
X7Y617D01*
X3148Y617D02*
X3155Y617D01*
X0Y616D02*
X7Y616D01*
X3148Y616D02*
X3155Y616D01*
X0Y615D02*
X7Y615D01*
X3148Y615D02*
X3155Y615D01*
X0Y614D02*
X7Y614D01*
X3148Y614D02*
X3155Y614D01*
X0Y613D02*
X7Y613D01*
X3148Y613D02*
X3155Y613D01*
X0Y612D02*
X7Y612D01*
X3148Y612D02*
X3155Y612D01*
X0Y611D02*
X7Y611D01*
X3148Y611D02*
X3155Y611D01*
X0Y610D02*
X7Y610D01*
X3148Y610D02*
X3155Y610D01*
X0Y609D02*
X7Y609D01*
X3148Y609D02*
X3155Y609D01*
X0Y608D02*
X7Y608D01*
X3148Y608D02*
X3155Y608D01*
X0Y607D02*
X7Y607D01*
X3148Y607D02*
X3155Y607D01*
X0Y606D02*
X7Y606D01*
X3148Y606D02*
X3155Y606D01*
X0Y605D02*
X7Y605D01*
X3148Y605D02*
X3155Y605D01*
X0Y604D02*
X7Y604D01*
X3148Y604D02*
X3155Y604D01*
X0Y603D02*
X7Y603D01*
X3148Y603D02*
X3155Y603D01*
X0Y602D02*
X7Y602D01*
X3148Y602D02*
X3155Y602D01*
X0Y601D02*
X7Y601D01*
X3148Y601D02*
X3155Y601D01*
X0Y600D02*
X7Y600D01*
X3148Y600D02*
X3155Y600D01*
X0Y599D02*
X7Y599D01*
X3148Y599D02*
X3155Y599D01*
X0Y598D02*
X7Y598D01*
X3148Y598D02*
X3155Y598D01*
X0Y597D02*
X7Y597D01*
X3148Y597D02*
X3155Y597D01*
X0Y596D02*
X7Y596D01*
X3148Y596D02*
X3155Y596D01*
X0Y595D02*
X7Y595D01*
X3148Y595D02*
X3155Y595D01*
X0Y594D02*
X7Y594D01*
X3148Y594D02*
X3155Y594D01*
X0Y593D02*
X7Y593D01*
X3148Y593D02*
X3155Y593D01*
X0Y592D02*
X7Y592D01*
X3148Y592D02*
X3155Y592D01*
X0Y591D02*
X7Y591D01*
X3148Y591D02*
X3155Y591D01*
X0Y590D02*
X7Y590D01*
X3148Y590D02*
X3155Y590D01*
X0Y589D02*
X7Y589D01*
X3148Y589D02*
X3155Y589D01*
X0Y588D02*
X7Y588D01*
X3148Y588D02*
X3155Y588D01*
X0Y587D02*
X7Y587D01*
X3148Y587D02*
X3155Y587D01*
X0Y586D02*
X7Y586D01*
X3148Y586D02*
X3155Y586D01*
X0Y585D02*
X7Y585D01*
X3148Y585D02*
X3155Y585D01*
X0Y584D02*
X7Y584D01*
X3148Y584D02*
X3155Y584D01*
X0Y583D02*
X7Y583D01*
X3148Y583D02*
X3155Y583D01*
X0Y582D02*
X7Y582D01*
X3148Y582D02*
X3155Y582D01*
X0Y581D02*
X7Y581D01*
X3148Y581D02*
X3155Y581D01*
X0Y580D02*
X7Y580D01*
X3148Y580D02*
X3155Y580D01*
X0Y579D02*
X7Y579D01*
X3148Y579D02*
X3155Y579D01*
X0Y578D02*
X7Y578D01*
X3148Y578D02*
X3155Y578D01*
X0Y577D02*
X7Y577D01*
X3148Y577D02*
X3155Y577D01*
X0Y576D02*
X7Y576D01*
X3148Y576D02*
X3155Y576D01*
X0Y575D02*
X7Y575D01*
X3148Y575D02*
X3155Y575D01*
X0Y574D02*
X7Y574D01*
X3148Y574D02*
X3155Y574D01*
X0Y573D02*
X7Y573D01*
X3148Y573D02*
X3155Y573D01*
X0Y572D02*
X7Y572D01*
X3148Y572D02*
X3155Y572D01*
X0Y571D02*
X7Y571D01*
X3148Y571D02*
X3155Y571D01*
X0Y570D02*
X7Y570D01*
X3148Y570D02*
X3155Y570D01*
X0Y569D02*
X7Y569D01*
X3148Y569D02*
X3155Y569D01*
X0Y568D02*
X7Y568D01*
X3148Y568D02*
X3155Y568D01*
X0Y567D02*
X7Y567D01*
X3148Y567D02*
X3155Y567D01*
X0Y566D02*
X7Y566D01*
X3148Y566D02*
X3155Y566D01*
X0Y565D02*
X7Y565D01*
X3148Y565D02*
X3155Y565D01*
X0Y564D02*
X7Y564D01*
X3148Y564D02*
X3155Y564D01*
X0Y563D02*
X7Y563D01*
X3148Y563D02*
X3155Y563D01*
X0Y562D02*
X7Y562D01*
X3148Y562D02*
X3155Y562D01*
X0Y561D02*
X7Y561D01*
X3148Y561D02*
X3155Y561D01*
X0Y560D02*
X7Y560D01*
X3148Y560D02*
X3155Y560D01*
X0Y559D02*
X7Y559D01*
X3148Y559D02*
X3155Y559D01*
X0Y558D02*
X7Y558D01*
X3148Y558D02*
X3155Y558D01*
X0Y557D02*
X7Y557D01*
X3148Y557D02*
X3155Y557D01*
X0Y556D02*
X7Y556D01*
X3148Y556D02*
X3155Y556D01*
X0Y555D02*
X7Y555D01*
X3148Y555D02*
X3155Y555D01*
X0Y554D02*
X7Y554D01*
X3148Y554D02*
X3155Y554D01*
X0Y553D02*
X7Y553D01*
X3148Y553D02*
X3155Y553D01*
X0Y552D02*
X7Y552D01*
X3148Y552D02*
X3155Y552D01*
X0Y551D02*
X7Y551D01*
X3148Y551D02*
X3155Y551D01*
X0Y550D02*
X7Y550D01*
X3148Y550D02*
X3155Y550D01*
X0Y549D02*
X7Y549D01*
X3148Y549D02*
X3155Y549D01*
X0Y548D02*
X7Y548D01*
X3148Y548D02*
X3155Y548D01*
X0Y547D02*
X7Y547D01*
X3148Y547D02*
X3155Y547D01*
X0Y546D02*
X7Y546D01*
X3148Y546D02*
X3155Y546D01*
X0Y545D02*
X7Y545D01*
X3148Y545D02*
X3155Y545D01*
X0Y544D02*
X7Y544D01*
X3148Y544D02*
X3155Y544D01*
X0Y543D02*
X7Y543D01*
X3148Y543D02*
X3155Y543D01*
X0Y542D02*
X7Y542D01*
X3148Y542D02*
X3155Y542D01*
X0Y541D02*
X7Y541D01*
X3148Y541D02*
X3155Y541D01*
X0Y540D02*
X7Y540D01*
X3148Y540D02*
X3155Y540D01*
X0Y539D02*
X7Y539D01*
X3148Y539D02*
X3155Y539D01*
X0Y538D02*
X7Y538D01*
X3148Y538D02*
X3155Y538D01*
X0Y537D02*
X7Y537D01*
X3148Y537D02*
X3155Y537D01*
X0Y536D02*
X7Y536D01*
X3148Y536D02*
X3155Y536D01*
X0Y535D02*
X7Y535D01*
X3148Y535D02*
X3155Y535D01*
X0Y534D02*
X7Y534D01*
X3148Y534D02*
X3155Y534D01*
X0Y533D02*
X7Y533D01*
X3148Y533D02*
X3155Y533D01*
X0Y532D02*
X7Y532D01*
X3148Y532D02*
X3155Y532D01*
X0Y531D02*
X7Y531D01*
X3148Y531D02*
X3155Y531D01*
X0Y530D02*
X7Y530D01*
X3148Y530D02*
X3155Y530D01*
X0Y529D02*
X7Y529D01*
X3148Y529D02*
X3155Y529D01*
X0Y528D02*
X7Y528D01*
X3148Y528D02*
X3155Y528D01*
X0Y527D02*
X7Y527D01*
X3148Y527D02*
X3155Y527D01*
X0Y526D02*
X7Y526D01*
X3148Y526D02*
X3155Y526D01*
X0Y525D02*
X7Y525D01*
X3148Y525D02*
X3155Y525D01*
X0Y524D02*
X7Y524D01*
X3148Y524D02*
X3155Y524D01*
X0Y523D02*
X7Y523D01*
X3148Y523D02*
X3155Y523D01*
X0Y522D02*
X7Y522D01*
X3148Y522D02*
X3155Y522D01*
X0Y521D02*
X7Y521D01*
X3148Y521D02*
X3155Y521D01*
X0Y520D02*
X7Y520D01*
X3148Y520D02*
X3155Y520D01*
X0Y519D02*
X7Y519D01*
X3148Y519D02*
X3155Y519D01*
X0Y518D02*
X7Y518D01*
X3148Y518D02*
X3155Y518D01*
X0Y517D02*
X7Y517D01*
X3148Y517D02*
X3155Y517D01*
X0Y516D02*
X7Y516D01*
X3148Y516D02*
X3155Y516D01*
X0Y515D02*
X7Y515D01*
X3148Y515D02*
X3155Y515D01*
X0Y514D02*
X7Y514D01*
X3148Y514D02*
X3155Y514D01*
X0Y513D02*
X7Y513D01*
X3148Y513D02*
X3155Y513D01*
X0Y512D02*
X7Y512D01*
X3148Y512D02*
X3155Y512D01*
X0Y511D02*
X7Y511D01*
X3148Y511D02*
X3155Y511D01*
X0Y510D02*
X7Y510D01*
X3148Y510D02*
X3155Y510D01*
X0Y509D02*
X7Y509D01*
X3148Y509D02*
X3155Y509D01*
X0Y508D02*
X7Y508D01*
X3148Y508D02*
X3155Y508D01*
X0Y507D02*
X7Y507D01*
X3148Y507D02*
X3155Y507D01*
X0Y506D02*
X7Y506D01*
X3148Y506D02*
X3155Y506D01*
X0Y505D02*
X7Y505D01*
X3148Y505D02*
X3155Y505D01*
X0Y504D02*
X7Y504D01*
X3148Y504D02*
X3155Y504D01*
X0Y503D02*
X7Y503D01*
X3148Y503D02*
X3155Y503D01*
X0Y502D02*
X7Y502D01*
X3148Y502D02*
X3155Y502D01*
X0Y501D02*
X7Y501D01*
X3148Y501D02*
X3155Y501D01*
X0Y500D02*
X7Y500D01*
X3148Y500D02*
X3155Y500D01*
X0Y499D02*
X7Y499D01*
X3148Y499D02*
X3155Y499D01*
X0Y498D02*
X7Y498D01*
X3148Y498D02*
X3155Y498D01*
X0Y497D02*
X7Y497D01*
X3148Y497D02*
X3155Y497D01*
X0Y496D02*
X7Y496D01*
X3148Y496D02*
X3155Y496D01*
X0Y495D02*
X7Y495D01*
X3148Y495D02*
X3155Y495D01*
X0Y494D02*
X7Y494D01*
X3148Y494D02*
X3155Y494D01*
X0Y493D02*
X7Y493D01*
X3148Y493D02*
X3155Y493D01*
X0Y492D02*
X7Y492D01*
X3148Y492D02*
X3155Y492D01*
X0Y491D02*
X7Y491D01*
X3148Y491D02*
X3155Y491D01*
X0Y490D02*
X7Y490D01*
X3148Y490D02*
X3155Y490D01*
X0Y489D02*
X7Y489D01*
X3148Y489D02*
X3155Y489D01*
X0Y488D02*
X7Y488D01*
X3148Y488D02*
X3155Y488D01*
X0Y487D02*
X7Y487D01*
X3148Y487D02*
X3155Y487D01*
X0Y486D02*
X7Y486D01*
X3148Y486D02*
X3155Y486D01*
X0Y485D02*
X7Y485D01*
X3148Y485D02*
X3155Y485D01*
X0Y484D02*
X7Y484D01*
X3148Y484D02*
X3155Y484D01*
X0Y483D02*
X7Y483D01*
X3148Y483D02*
X3155Y483D01*
X0Y482D02*
X7Y482D01*
X3148Y482D02*
X3155Y482D01*
X0Y481D02*
X7Y481D01*
X3148Y481D02*
X3155Y481D01*
X0Y480D02*
X7Y480D01*
X3148Y480D02*
X3155Y480D01*
X0Y479D02*
X7Y479D01*
X3148Y479D02*
X3155Y479D01*
X0Y478D02*
X7Y478D01*
X3148Y478D02*
X3155Y478D01*
X0Y477D02*
X7Y477D01*
X3148Y477D02*
X3155Y477D01*
X0Y476D02*
X7Y476D01*
X3148Y476D02*
X3155Y476D01*
X0Y475D02*
X7Y475D01*
X3148Y475D02*
X3155Y475D01*
X0Y474D02*
X7Y474D01*
X3148Y474D02*
X3155Y474D01*
X0Y473D02*
X7Y473D01*
X3148Y473D02*
X3155Y473D01*
X0Y472D02*
X7Y472D01*
X3148Y472D02*
X3155Y472D01*
X0Y471D02*
X7Y471D01*
X3148Y471D02*
X3155Y471D01*
X0Y470D02*
X7Y470D01*
X3148Y470D02*
X3155Y470D01*
X0Y469D02*
X7Y469D01*
X3148Y469D02*
X3155Y469D01*
X0Y468D02*
X7Y468D01*
X3148Y468D02*
X3155Y468D01*
X0Y467D02*
X7Y467D01*
X3148Y467D02*
X3155Y467D01*
X0Y466D02*
X7Y466D01*
X3148Y466D02*
X3155Y466D01*
X0Y465D02*
X7Y465D01*
X3148Y465D02*
X3155Y465D01*
X0Y464D02*
X7Y464D01*
X3148Y464D02*
X3155Y464D01*
X0Y463D02*
X7Y463D01*
X3148Y463D02*
X3155Y463D01*
X0Y462D02*
X7Y462D01*
X3148Y462D02*
X3155Y462D01*
X0Y461D02*
X7Y461D01*
X3148Y461D02*
X3155Y461D01*
X0Y460D02*
X7Y460D01*
X752Y460D02*
X762Y460D01*
X3148Y460D02*
X3155Y460D01*
X0Y459D02*
X7Y459D01*
X752Y459D02*
X762Y459D01*
X3148Y459D02*
X3155Y459D01*
X0Y458D02*
X7Y458D01*
X752Y458D02*
X762Y458D01*
X3148Y458D02*
X3155Y458D01*
X0Y457D02*
X7Y457D01*
X752Y457D02*
X762Y457D01*
X3148Y457D02*
X3155Y457D01*
X0Y456D02*
X7Y456D01*
X752Y456D02*
X762Y456D01*
X3148Y456D02*
X3155Y456D01*
X0Y455D02*
X7Y455D01*
X752Y455D02*
X762Y455D01*
X3148Y455D02*
X3155Y455D01*
X0Y454D02*
X7Y454D01*
X752Y454D02*
X762Y454D01*
X3148Y454D02*
X3155Y454D01*
X0Y453D02*
X7Y453D01*
X752Y453D02*
X762Y453D01*
X3148Y453D02*
X3155Y453D01*
X0Y452D02*
X7Y452D01*
X752Y452D02*
X762Y452D01*
X3148Y452D02*
X3155Y452D01*
X0Y451D02*
X7Y451D01*
X752Y451D02*
X762Y451D01*
X3148Y451D02*
X3155Y451D01*
X0Y450D02*
X7Y450D01*
X752Y450D02*
X762Y450D01*
X3148Y450D02*
X3155Y450D01*
X0Y449D02*
X7Y449D01*
X752Y449D02*
X762Y449D01*
X3148Y449D02*
X3155Y449D01*
X0Y448D02*
X7Y448D01*
X752Y448D02*
X762Y448D01*
X3148Y448D02*
X3155Y448D01*
X0Y447D02*
X7Y447D01*
X752Y447D02*
X762Y447D01*
X3148Y447D02*
X3155Y447D01*
X0Y446D02*
X7Y446D01*
X752Y446D02*
X762Y446D01*
X3148Y446D02*
X3155Y446D01*
X0Y445D02*
X7Y445D01*
X752Y445D02*
X762Y445D01*
X3148Y445D02*
X3155Y445D01*
X0Y444D02*
X7Y444D01*
X752Y444D02*
X762Y444D01*
X3148Y444D02*
X3155Y444D01*
X0Y443D02*
X7Y443D01*
X752Y443D02*
X762Y443D01*
X3148Y443D02*
X3155Y443D01*
X0Y442D02*
X7Y442D01*
X752Y442D02*
X762Y442D01*
X3148Y442D02*
X3155Y442D01*
X0Y441D02*
X7Y441D01*
X752Y441D02*
X762Y441D01*
X3148Y441D02*
X3155Y441D01*
X0Y440D02*
X7Y440D01*
X752Y440D02*
X762Y440D01*
X3148Y440D02*
X3155Y440D01*
X0Y439D02*
X7Y439D01*
X752Y439D02*
X762Y439D01*
X3148Y439D02*
X3155Y439D01*
X0Y438D02*
X7Y438D01*
X752Y438D02*
X762Y438D01*
X3148Y438D02*
X3155Y438D01*
X0Y437D02*
X7Y437D01*
X752Y437D02*
X762Y437D01*
X3148Y437D02*
X3155Y437D01*
X0Y436D02*
X7Y436D01*
X752Y436D02*
X762Y436D01*
X3148Y436D02*
X3155Y436D01*
X0Y435D02*
X7Y435D01*
X752Y435D02*
X762Y435D01*
X3148Y435D02*
X3155Y435D01*
X0Y434D02*
X7Y434D01*
X752Y434D02*
X762Y434D01*
X3148Y434D02*
X3155Y434D01*
X0Y433D02*
X7Y433D01*
X752Y433D02*
X762Y433D01*
X3148Y433D02*
X3155Y433D01*
X0Y432D02*
X7Y432D01*
X752Y432D02*
X762Y432D01*
X3148Y432D02*
X3155Y432D01*
X0Y431D02*
X7Y431D01*
X752Y431D02*
X762Y431D01*
X3148Y431D02*
X3155Y431D01*
X0Y430D02*
X7Y430D01*
X752Y430D02*
X762Y430D01*
X3148Y430D02*
X3155Y430D01*
X0Y429D02*
X7Y429D01*
X752Y429D02*
X762Y429D01*
X3148Y429D02*
X3155Y429D01*
X0Y428D02*
X7Y428D01*
X752Y428D02*
X762Y428D01*
X3148Y428D02*
X3155Y428D01*
X0Y427D02*
X7Y427D01*
X752Y427D02*
X762Y427D01*
X3148Y427D02*
X3155Y427D01*
X0Y426D02*
X7Y426D01*
X752Y426D02*
X762Y426D01*
X3148Y426D02*
X3155Y426D01*
X0Y425D02*
X7Y425D01*
X752Y425D02*
X762Y425D01*
X3148Y425D02*
X3155Y425D01*
X0Y424D02*
X7Y424D01*
X752Y424D02*
X762Y424D01*
X3148Y424D02*
X3155Y424D01*
X0Y423D02*
X7Y423D01*
X752Y423D02*
X762Y423D01*
X3148Y423D02*
X3155Y423D01*
X0Y422D02*
X7Y422D01*
X752Y422D02*
X762Y422D01*
X3148Y422D02*
X3155Y422D01*
X0Y421D02*
X7Y421D01*
X752Y421D02*
X762Y421D01*
X3148Y421D02*
X3155Y421D01*
X0Y420D02*
X7Y420D01*
X752Y420D02*
X762Y420D01*
X3148Y420D02*
X3155Y420D01*
X0Y419D02*
X7Y419D01*
X752Y419D02*
X762Y419D01*
X3148Y419D02*
X3155Y419D01*
X0Y418D02*
X7Y418D01*
X752Y418D02*
X762Y418D01*
X3148Y418D02*
X3155Y418D01*
X0Y417D02*
X7Y417D01*
X752Y417D02*
X762Y417D01*
X3148Y417D02*
X3155Y417D01*
X0Y416D02*
X7Y416D01*
X752Y416D02*
X762Y416D01*
X3148Y416D02*
X3155Y416D01*
X0Y415D02*
X7Y415D01*
X752Y415D02*
X762Y415D01*
X3148Y415D02*
X3155Y415D01*
X0Y414D02*
X7Y414D01*
X752Y414D02*
X762Y414D01*
X3148Y414D02*
X3155Y414D01*
X0Y413D02*
X7Y413D01*
X752Y413D02*
X762Y413D01*
X3148Y413D02*
X3155Y413D01*
X0Y412D02*
X7Y412D01*
X752Y412D02*
X762Y412D01*
X3148Y412D02*
X3155Y412D01*
X0Y411D02*
X7Y411D01*
X752Y411D02*
X762Y411D01*
X3148Y411D02*
X3155Y411D01*
X0Y410D02*
X7Y410D01*
X752Y410D02*
X762Y410D01*
X3148Y410D02*
X3155Y410D01*
X0Y409D02*
X7Y409D01*
X752Y409D02*
X762Y409D01*
X3148Y409D02*
X3155Y409D01*
X0Y408D02*
X7Y408D01*
X752Y408D02*
X762Y408D01*
X3148Y408D02*
X3155Y408D01*
X0Y407D02*
X7Y407D01*
X752Y407D02*
X762Y407D01*
X3148Y407D02*
X3155Y407D01*
X0Y406D02*
X7Y406D01*
X752Y406D02*
X762Y406D01*
X3148Y406D02*
X3155Y406D01*
X0Y405D02*
X7Y405D01*
X752Y405D02*
X762Y405D01*
X3148Y405D02*
X3155Y405D01*
X0Y404D02*
X7Y404D01*
X752Y404D02*
X762Y404D01*
X3148Y404D02*
X3155Y404D01*
X0Y403D02*
X7Y403D01*
X752Y403D02*
X762Y403D01*
X3148Y403D02*
X3155Y403D01*
X0Y402D02*
X7Y402D01*
X752Y402D02*
X762Y402D01*
X3148Y402D02*
X3155Y402D01*
X0Y401D02*
X7Y401D01*
X752Y401D02*
X762Y401D01*
X3148Y401D02*
X3155Y401D01*
X0Y400D02*
X7Y400D01*
X752Y400D02*
X762Y400D01*
X3148Y400D02*
X3155Y400D01*
X0Y399D02*
X7Y399D01*
X752Y399D02*
X762Y399D01*
X3148Y399D02*
X3155Y399D01*
X0Y398D02*
X7Y398D01*
X752Y398D02*
X762Y398D01*
X3148Y398D02*
X3155Y398D01*
X0Y397D02*
X7Y397D01*
X752Y397D02*
X762Y397D01*
X3148Y397D02*
X3155Y397D01*
X0Y396D02*
X7Y396D01*
X752Y396D02*
X762Y396D01*
X3148Y396D02*
X3155Y396D01*
X0Y395D02*
X7Y395D01*
X752Y395D02*
X762Y395D01*
X3148Y395D02*
X3155Y395D01*
X0Y394D02*
X7Y394D01*
X752Y394D02*
X762Y394D01*
X3148Y394D02*
X3155Y394D01*
X0Y393D02*
X7Y393D01*
X3148Y393D02*
X3155Y393D01*
X0Y392D02*
X7Y392D01*
X3148Y392D02*
X3155Y392D01*
X0Y391D02*
X7Y391D01*
X3148Y391D02*
X3155Y391D01*
X0Y390D02*
X7Y390D01*
X3148Y390D02*
X3155Y390D01*
X0Y389D02*
X7Y389D01*
X3148Y389D02*
X3155Y389D01*
X0Y388D02*
X7Y388D01*
X3148Y388D02*
X3155Y388D01*
X0Y387D02*
X7Y387D01*
X3148Y387D02*
X3155Y387D01*
X0Y386D02*
X7Y386D01*
X3148Y386D02*
X3155Y386D01*
X0Y385D02*
X7Y385D01*
X3148Y385D02*
X3155Y385D01*
X0Y384D02*
X7Y384D01*
X3148Y384D02*
X3155Y384D01*
X0Y383D02*
X7Y383D01*
X3148Y383D02*
X3155Y383D01*
X0Y382D02*
X7Y382D01*
X3148Y382D02*
X3155Y382D01*
X0Y381D02*
X7Y381D01*
X3148Y381D02*
X3155Y381D01*
X0Y380D02*
X7Y380D01*
X3148Y380D02*
X3155Y380D01*
X0Y379D02*
X7Y379D01*
X3148Y379D02*
X3155Y379D01*
X0Y378D02*
X7Y378D01*
X3148Y378D02*
X3155Y378D01*
X0Y377D02*
X7Y377D01*
X3148Y377D02*
X3155Y377D01*
X0Y376D02*
X7Y376D01*
X3148Y376D02*
X3155Y376D01*
X0Y375D02*
X7Y375D01*
X3148Y375D02*
X3155Y375D01*
X0Y374D02*
X7Y374D01*
X3148Y374D02*
X3155Y374D01*
X0Y373D02*
X7Y373D01*
X3148Y373D02*
X3155Y373D01*
X0Y372D02*
X7Y372D01*
X3148Y372D02*
X3155Y372D01*
X0Y371D02*
X7Y371D01*
X3148Y371D02*
X3155Y371D01*
X0Y370D02*
X7Y370D01*
X3148Y370D02*
X3155Y370D01*
X0Y369D02*
X7Y369D01*
X3148Y369D02*
X3155Y369D01*
X0Y368D02*
X7Y368D01*
X3148Y368D02*
X3155Y368D01*
X0Y367D02*
X7Y367D01*
X3148Y367D02*
X3155Y367D01*
X0Y366D02*
X7Y366D01*
X3148Y366D02*
X3155Y366D01*
X0Y365D02*
X7Y365D01*
X3148Y365D02*
X3155Y365D01*
X0Y364D02*
X7Y364D01*
X3148Y364D02*
X3155Y364D01*
X0Y363D02*
X7Y363D01*
X3148Y363D02*
X3155Y363D01*
X0Y362D02*
X7Y362D01*
X3148Y362D02*
X3155Y362D01*
X0Y361D02*
X7Y361D01*
X3148Y361D02*
X3155Y361D01*
X0Y360D02*
X7Y360D01*
X3148Y360D02*
X3155Y360D01*
X0Y359D02*
X7Y359D01*
X3148Y359D02*
X3155Y359D01*
X0Y358D02*
X7Y358D01*
X3148Y358D02*
X3155Y358D01*
X0Y357D02*
X7Y357D01*
X3148Y357D02*
X3155Y357D01*
X0Y356D02*
X7Y356D01*
X3148Y356D02*
X3155Y356D01*
X0Y355D02*
X7Y355D01*
X3148Y355D02*
X3155Y355D01*
X0Y354D02*
X7Y354D01*
X3148Y354D02*
X3155Y354D01*
X0Y353D02*
X7Y353D01*
X3148Y353D02*
X3155Y353D01*
X0Y352D02*
X7Y352D01*
X3148Y352D02*
X3155Y352D01*
X0Y351D02*
X7Y351D01*
X3148Y351D02*
X3155Y351D01*
X0Y350D02*
X7Y350D01*
X3148Y350D02*
X3155Y350D01*
X0Y349D02*
X7Y349D01*
X3148Y349D02*
X3155Y349D01*
X0Y348D02*
X7Y348D01*
X3148Y348D02*
X3155Y348D01*
X0Y347D02*
X7Y347D01*
X3148Y347D02*
X3155Y347D01*
X0Y346D02*
X7Y346D01*
X3148Y346D02*
X3155Y346D01*
X0Y345D02*
X7Y345D01*
X3148Y345D02*
X3155Y345D01*
X0Y344D02*
X7Y344D01*
X3148Y344D02*
X3155Y344D01*
X0Y343D02*
X7Y343D01*
X3148Y343D02*
X3155Y343D01*
X0Y342D02*
X7Y342D01*
X3148Y342D02*
X3155Y342D01*
X0Y341D02*
X7Y341D01*
X3148Y341D02*
X3155Y341D01*
X0Y340D02*
X7Y340D01*
X3148Y340D02*
X3155Y340D01*
X0Y339D02*
X7Y339D01*
X3148Y339D02*
X3155Y339D01*
X0Y338D02*
X7Y338D01*
X3148Y338D02*
X3155Y338D01*
X0Y337D02*
X7Y337D01*
X3148Y337D02*
X3155Y337D01*
X0Y336D02*
X7Y336D01*
X3148Y336D02*
X3155Y336D01*
X0Y335D02*
X7Y335D01*
X3148Y335D02*
X3155Y335D01*
X0Y334D02*
X7Y334D01*
X3148Y334D02*
X3155Y334D01*
X0Y333D02*
X7Y333D01*
X3148Y333D02*
X3155Y333D01*
X0Y332D02*
X7Y332D01*
X3148Y332D02*
X3155Y332D01*
X0Y331D02*
X7Y331D01*
X3148Y331D02*
X3155Y331D01*
X0Y330D02*
X7Y330D01*
X3148Y330D02*
X3155Y330D01*
X0Y329D02*
X7Y329D01*
X3148Y329D02*
X3155Y329D01*
X0Y328D02*
X7Y328D01*
X3148Y328D02*
X3155Y328D01*
X0Y327D02*
X7Y327D01*
X3148Y327D02*
X3155Y327D01*
X0Y326D02*
X7Y326D01*
X3148Y326D02*
X3155Y326D01*
X0Y325D02*
X7Y325D01*
X3148Y325D02*
X3155Y325D01*
X0Y324D02*
X7Y324D01*
X3148Y324D02*
X3155Y324D01*
X0Y323D02*
X7Y323D01*
X3148Y323D02*
X3155Y323D01*
X0Y322D02*
X7Y322D01*
X3148Y322D02*
X3155Y322D01*
X0Y321D02*
X7Y321D01*
X3148Y321D02*
X3155Y321D01*
X0Y320D02*
X7Y320D01*
X3148Y320D02*
X3155Y320D01*
X0Y319D02*
X7Y319D01*
X3148Y319D02*
X3155Y319D01*
X0Y318D02*
X7Y318D01*
X3148Y318D02*
X3155Y318D01*
X0Y317D02*
X7Y317D01*
X3148Y317D02*
X3155Y317D01*
X0Y316D02*
X7Y316D01*
X3148Y316D02*
X3155Y316D01*
X0Y315D02*
X7Y315D01*
X3148Y315D02*
X3155Y315D01*
X0Y314D02*
X7Y314D01*
X3148Y314D02*
X3155Y314D01*
X0Y313D02*
X7Y313D01*
X3148Y313D02*
X3155Y313D01*
X0Y312D02*
X7Y312D01*
X3148Y312D02*
X3155Y312D01*
X0Y311D02*
X7Y311D01*
X3148Y311D02*
X3155Y311D01*
X0Y310D02*
X7Y310D01*
X3148Y310D02*
X3155Y310D01*
X0Y309D02*
X7Y309D01*
X3148Y309D02*
X3155Y309D01*
X0Y308D02*
X7Y308D01*
X3148Y308D02*
X3155Y308D01*
X0Y307D02*
X7Y307D01*
X3148Y307D02*
X3155Y307D01*
X0Y306D02*
X7Y306D01*
X3148Y306D02*
X3155Y306D01*
X0Y305D02*
X7Y305D01*
X3148Y305D02*
X3155Y305D01*
X0Y304D02*
X7Y304D01*
X3148Y304D02*
X3155Y304D01*
X0Y303D02*
X7Y303D01*
X3148Y303D02*
X3155Y303D01*
X0Y302D02*
X7Y302D01*
X3148Y302D02*
X3155Y302D01*
X0Y301D02*
X7Y301D01*
X3148Y301D02*
X3155Y301D01*
X0Y300D02*
X7Y300D01*
X3148Y300D02*
X3155Y300D01*
X0Y299D02*
X7Y299D01*
X3148Y299D02*
X3155Y299D01*
X0Y298D02*
X7Y298D01*
X3148Y298D02*
X3155Y298D01*
X0Y297D02*
X7Y297D01*
X3148Y297D02*
X3155Y297D01*
X0Y296D02*
X7Y296D01*
X3148Y296D02*
X3155Y296D01*
X0Y295D02*
X7Y295D01*
X3148Y295D02*
X3155Y295D01*
X0Y294D02*
X7Y294D01*
X3148Y294D02*
X3155Y294D01*
X0Y293D02*
X7Y293D01*
X3148Y293D02*
X3155Y293D01*
X0Y292D02*
X7Y292D01*
X3148Y292D02*
X3155Y292D01*
X0Y291D02*
X7Y291D01*
X3148Y291D02*
X3155Y291D01*
X0Y290D02*
X7Y290D01*
X3148Y290D02*
X3155Y290D01*
X0Y289D02*
X7Y289D01*
X3148Y289D02*
X3155Y289D01*
X0Y288D02*
X7Y288D01*
X3148Y288D02*
X3155Y288D01*
X0Y287D02*
X7Y287D01*
X3148Y287D02*
X3155Y287D01*
X0Y286D02*
X7Y286D01*
X3148Y286D02*
X3155Y286D01*
X0Y285D02*
X7Y285D01*
X3148Y285D02*
X3155Y285D01*
X0Y284D02*
X7Y284D01*
X3148Y284D02*
X3155Y284D01*
X0Y283D02*
X7Y283D01*
X3148Y283D02*
X3155Y283D01*
X0Y282D02*
X7Y282D01*
X3148Y282D02*
X3155Y282D01*
X0Y281D02*
X7Y281D01*
X3148Y281D02*
X3155Y281D01*
X0Y280D02*
X7Y280D01*
X3148Y280D02*
X3155Y280D01*
X0Y279D02*
X7Y279D01*
X3148Y279D02*
X3155Y279D01*
X0Y278D02*
X7Y278D01*
X3148Y278D02*
X3155Y278D01*
X0Y277D02*
X7Y277D01*
X3148Y277D02*
X3155Y277D01*
X0Y276D02*
X7Y276D01*
X3148Y276D02*
X3155Y276D01*
X0Y275D02*
X7Y275D01*
X3148Y275D02*
X3155Y275D01*
X0Y274D02*
X7Y274D01*
X3148Y274D02*
X3155Y274D01*
X0Y273D02*
X7Y273D01*
X3148Y273D02*
X3155Y273D01*
X0Y272D02*
X7Y272D01*
X3148Y272D02*
X3155Y272D01*
X0Y271D02*
X7Y271D01*
X3148Y271D02*
X3155Y271D01*
X0Y270D02*
X7Y270D01*
X3148Y270D02*
X3155Y270D01*
X0Y269D02*
X7Y269D01*
X3148Y269D02*
X3155Y269D01*
X0Y268D02*
X7Y268D01*
X3148Y268D02*
X3155Y268D01*
X0Y267D02*
X7Y267D01*
X3148Y267D02*
X3155Y267D01*
X0Y266D02*
X7Y266D01*
X3148Y266D02*
X3155Y266D01*
X0Y265D02*
X7Y265D01*
X3148Y265D02*
X3155Y265D01*
X0Y264D02*
X7Y264D01*
X3148Y264D02*
X3155Y264D01*
X0Y263D02*
X7Y263D01*
X3148Y263D02*
X3155Y263D01*
X0Y262D02*
X7Y262D01*
X3148Y262D02*
X3155Y262D01*
X0Y261D02*
X7Y261D01*
X3148Y261D02*
X3155Y261D01*
X0Y260D02*
X7Y260D01*
X3148Y260D02*
X3155Y260D01*
X0Y259D02*
X7Y259D01*
X3148Y259D02*
X3155Y259D01*
X0Y258D02*
X7Y258D01*
X3148Y258D02*
X3155Y258D01*
X0Y257D02*
X7Y257D01*
X3148Y257D02*
X3155Y257D01*
X0Y256D02*
X7Y256D01*
X3148Y256D02*
X3155Y256D01*
X0Y255D02*
X7Y255D01*
X3148Y255D02*
X3155Y255D01*
X0Y254D02*
X7Y254D01*
X3148Y254D02*
X3155Y254D01*
X0Y253D02*
X7Y253D01*
X3148Y253D02*
X3155Y253D01*
X0Y252D02*
X7Y252D01*
X3148Y252D02*
X3155Y252D01*
X0Y251D02*
X7Y251D01*
X3148Y251D02*
X3155Y251D01*
X0Y250D02*
X7Y250D01*
X3148Y250D02*
X3155Y250D01*
X0Y249D02*
X7Y249D01*
X3148Y249D02*
X3155Y249D01*
X0Y248D02*
X7Y248D01*
X3148Y248D02*
X3155Y248D01*
X0Y247D02*
X7Y247D01*
X3148Y247D02*
X3155Y247D01*
X0Y246D02*
X7Y246D01*
X3148Y246D02*
X3155Y246D01*
X0Y245D02*
X7Y245D01*
X3148Y245D02*
X3155Y245D01*
X0Y244D02*
X7Y244D01*
X3148Y244D02*
X3155Y244D01*
X0Y243D02*
X7Y243D01*
X3148Y243D02*
X3155Y243D01*
X0Y242D02*
X7Y242D01*
X3148Y242D02*
X3155Y242D01*
X0Y241D02*
X7Y241D01*
X3148Y241D02*
X3155Y241D01*
X0Y240D02*
X7Y240D01*
X3148Y240D02*
X3155Y240D01*
X0Y239D02*
X7Y239D01*
X3148Y239D02*
X3155Y239D01*
X0Y238D02*
X7Y238D01*
X3148Y238D02*
X3155Y238D01*
X0Y237D02*
X7Y237D01*
X3148Y237D02*
X3155Y237D01*
X0Y236D02*
X7Y236D01*
X3148Y236D02*
X3155Y236D01*
X0Y235D02*
X7Y235D01*
X3148Y235D02*
X3155Y235D01*
X0Y234D02*
X7Y234D01*
X3148Y234D02*
X3155Y234D01*
X0Y233D02*
X7Y233D01*
X3148Y233D02*
X3155Y233D01*
X0Y232D02*
X7Y232D01*
X3148Y232D02*
X3155Y232D01*
X0Y231D02*
X7Y231D01*
X3148Y231D02*
X3155Y231D01*
X0Y230D02*
X7Y230D01*
X3148Y230D02*
X3155Y230D01*
X0Y229D02*
X7Y229D01*
X3148Y229D02*
X3155Y229D01*
X0Y228D02*
X7Y228D01*
X3148Y228D02*
X3155Y228D01*
X0Y227D02*
X7Y227D01*
X3148Y227D02*
X3155Y227D01*
X0Y226D02*
X7Y226D01*
X3148Y226D02*
X3155Y226D01*
X0Y225D02*
X7Y225D01*
X3148Y225D02*
X3155Y225D01*
X0Y224D02*
X7Y224D01*
X3148Y224D02*
X3155Y224D01*
X0Y223D02*
X7Y223D01*
X3148Y223D02*
X3155Y223D01*
X0Y222D02*
X7Y222D01*
X3148Y222D02*
X3155Y222D01*
X0Y221D02*
X7Y221D01*
X3148Y221D02*
X3155Y221D01*
X0Y220D02*
X7Y220D01*
X3148Y220D02*
X3155Y220D01*
X0Y219D02*
X7Y219D01*
X3148Y219D02*
X3155Y219D01*
X0Y218D02*
X7Y218D01*
X3148Y218D02*
X3155Y218D01*
X0Y217D02*
X7Y217D01*
X3148Y217D02*
X3155Y217D01*
X0Y216D02*
X7Y216D01*
X3148Y216D02*
X3155Y216D01*
X0Y215D02*
X7Y215D01*
X3148Y215D02*
X3155Y215D01*
X0Y214D02*
X7Y214D01*
X3148Y214D02*
X3155Y214D01*
X0Y213D02*
X7Y213D01*
X3148Y213D02*
X3155Y213D01*
X0Y212D02*
X7Y212D01*
X3148Y212D02*
X3155Y212D01*
X0Y211D02*
X7Y211D01*
X3148Y211D02*
X3155Y211D01*
X0Y210D02*
X7Y210D01*
X3148Y210D02*
X3155Y210D01*
X0Y209D02*
X7Y209D01*
X3148Y209D02*
X3155Y209D01*
X0Y208D02*
X7Y208D01*
X3148Y208D02*
X3155Y208D01*
X0Y207D02*
X7Y207D01*
X3148Y207D02*
X3155Y207D01*
X0Y206D02*
X7Y206D01*
X3148Y206D02*
X3155Y206D01*
X0Y205D02*
X7Y205D01*
X3148Y205D02*
X3155Y205D01*
X0Y204D02*
X7Y204D01*
X3148Y204D02*
X3155Y204D01*
X0Y203D02*
X7Y203D01*
X3148Y203D02*
X3155Y203D01*
X0Y202D02*
X7Y202D01*
X3148Y202D02*
X3155Y202D01*
X0Y201D02*
X7Y201D01*
X3148Y201D02*
X3155Y201D01*
X0Y200D02*
X7Y200D01*
X3148Y200D02*
X3155Y200D01*
X0Y199D02*
X7Y199D01*
X3148Y199D02*
X3155Y199D01*
X0Y198D02*
X7Y198D01*
X3148Y198D02*
X3155Y198D01*
X0Y197D02*
X7Y197D01*
X3148Y197D02*
X3155Y197D01*
X0Y196D02*
X7Y196D01*
X3148Y196D02*
X3155Y196D01*
X0Y195D02*
X7Y195D01*
X3148Y195D02*
X3155Y195D01*
X0Y194D02*
X7Y194D01*
X3148Y194D02*
X3155Y194D01*
X0Y193D02*
X7Y193D01*
X753Y193D02*
X761Y193D01*
X3148Y193D02*
X3155Y193D01*
X0Y192D02*
X7Y192D01*
X752Y192D02*
X762Y192D01*
X3148Y192D02*
X3155Y192D01*
X0Y191D02*
X7Y191D01*
X752Y191D02*
X762Y191D01*
X3148Y191D02*
X3155Y191D01*
X0Y190D02*
X7Y190D01*
X752Y190D02*
X762Y190D01*
X3148Y190D02*
X3155Y190D01*
X0Y189D02*
X7Y189D01*
X752Y189D02*
X762Y189D01*
X3148Y189D02*
X3155Y189D01*
X0Y188D02*
X7Y188D01*
X752Y188D02*
X762Y188D01*
X3148Y188D02*
X3155Y188D01*
X0Y187D02*
X7Y187D01*
X752Y187D02*
X762Y187D01*
X3148Y187D02*
X3155Y187D01*
X0Y186D02*
X7Y186D01*
X752Y186D02*
X762Y186D01*
X3148Y186D02*
X3155Y186D01*
X0Y185D02*
X7Y185D01*
X752Y185D02*
X762Y185D01*
X3148Y185D02*
X3155Y185D01*
X0Y184D02*
X7Y184D01*
X752Y184D02*
X762Y184D01*
X3148Y184D02*
X3155Y184D01*
X0Y183D02*
X7Y183D01*
X752Y183D02*
X762Y183D01*
X3148Y183D02*
X3155Y183D01*
X0Y182D02*
X7Y182D01*
X752Y182D02*
X762Y182D01*
X3148Y182D02*
X3155Y182D01*
X0Y181D02*
X7Y181D01*
X752Y181D02*
X762Y181D01*
X3148Y181D02*
X3155Y181D01*
X0Y180D02*
X7Y180D01*
X752Y180D02*
X762Y180D01*
X3148Y180D02*
X3155Y180D01*
X0Y179D02*
X7Y179D01*
X752Y179D02*
X762Y179D01*
X3148Y179D02*
X3155Y179D01*
X0Y178D02*
X7Y178D01*
X752Y178D02*
X762Y178D01*
X3148Y178D02*
X3155Y178D01*
X0Y177D02*
X7Y177D01*
X752Y177D02*
X762Y177D01*
X3148Y177D02*
X3155Y177D01*
X0Y176D02*
X7Y176D01*
X752Y176D02*
X762Y176D01*
X3148Y176D02*
X3155Y176D01*
X0Y175D02*
X7Y175D01*
X752Y175D02*
X762Y175D01*
X3148Y175D02*
X3155Y175D01*
X0Y174D02*
X7Y174D01*
X752Y174D02*
X762Y174D01*
X3148Y174D02*
X3155Y174D01*
X0Y173D02*
X7Y173D01*
X752Y173D02*
X762Y173D01*
X3148Y173D02*
X3155Y173D01*
X0Y172D02*
X7Y172D01*
X752Y172D02*
X762Y172D01*
X3148Y172D02*
X3155Y172D01*
X0Y171D02*
X7Y171D01*
X752Y171D02*
X762Y171D01*
X3148Y171D02*
X3155Y171D01*
X0Y170D02*
X7Y170D01*
X752Y170D02*
X762Y170D01*
X3148Y170D02*
X3155Y170D01*
X0Y169D02*
X7Y169D01*
X752Y169D02*
X762Y169D01*
X3148Y169D02*
X3155Y169D01*
X0Y168D02*
X7Y168D01*
X752Y168D02*
X762Y168D01*
X3148Y168D02*
X3155Y168D01*
X0Y167D02*
X7Y167D01*
X752Y167D02*
X762Y167D01*
X3148Y167D02*
X3155Y167D01*
X0Y166D02*
X7Y166D01*
X752Y166D02*
X762Y166D01*
X3148Y166D02*
X3155Y166D01*
X0Y165D02*
X7Y165D01*
X752Y165D02*
X762Y165D01*
X3148Y165D02*
X3155Y165D01*
X0Y164D02*
X7Y164D01*
X752Y164D02*
X762Y164D01*
X3148Y164D02*
X3155Y164D01*
X0Y163D02*
X7Y163D01*
X752Y163D02*
X762Y163D01*
X3148Y163D02*
X3155Y163D01*
X0Y162D02*
X7Y162D01*
X752Y162D02*
X762Y162D01*
X3148Y162D02*
X3155Y162D01*
X0Y161D02*
X7Y161D01*
X752Y161D02*
X762Y161D01*
X3148Y161D02*
X3155Y161D01*
X0Y160D02*
X7Y160D01*
X752Y160D02*
X762Y160D01*
X3148Y160D02*
X3155Y160D01*
X0Y159D02*
X7Y159D01*
X752Y159D02*
X762Y159D01*
X3148Y159D02*
X3155Y159D01*
X0Y158D02*
X7Y158D01*
X752Y158D02*
X762Y158D01*
X3148Y158D02*
X3155Y158D01*
X0Y157D02*
X7Y157D01*
X752Y157D02*
X762Y157D01*
X3148Y157D02*
X3155Y157D01*
X0Y156D02*
X7Y156D01*
X752Y156D02*
X762Y156D01*
X3148Y156D02*
X3155Y156D01*
X0Y155D02*
X7Y155D01*
X752Y155D02*
X762Y155D01*
X3148Y155D02*
X3155Y155D01*
X0Y154D02*
X7Y154D01*
X752Y154D02*
X762Y154D01*
X3148Y154D02*
X3155Y154D01*
X0Y153D02*
X7Y153D01*
X752Y153D02*
X762Y153D01*
X3148Y153D02*
X3155Y153D01*
X0Y152D02*
X7Y152D01*
X752Y152D02*
X762Y152D01*
X3148Y152D02*
X3155Y152D01*
X0Y151D02*
X7Y151D01*
X752Y151D02*
X762Y151D01*
X3148Y151D02*
X3155Y151D01*
X0Y150D02*
X7Y150D01*
X752Y150D02*
X762Y150D01*
X3148Y150D02*
X3155Y150D01*
X0Y149D02*
X7Y149D01*
X752Y149D02*
X762Y149D01*
X3148Y149D02*
X3155Y149D01*
X0Y148D02*
X7Y148D01*
X752Y148D02*
X762Y148D01*
X3148Y148D02*
X3155Y148D01*
X0Y147D02*
X7Y147D01*
X752Y147D02*
X762Y147D01*
X3148Y147D02*
X3155Y147D01*
X0Y146D02*
X7Y146D01*
X752Y146D02*
X762Y146D01*
X3148Y146D02*
X3155Y146D01*
X0Y145D02*
X7Y145D01*
X3148Y145D02*
X3155Y145D01*
X0Y144D02*
X7Y144D01*
X3148Y144D02*
X3155Y144D01*
X0Y143D02*
X7Y143D01*
X3148Y143D02*
X3155Y143D01*
X0Y142D02*
X7Y142D01*
X3148Y142D02*
X3155Y142D01*
X0Y141D02*
X7Y141D01*
X3148Y141D02*
X3155Y141D01*
X0Y140D02*
X7Y140D01*
X3148Y140D02*
X3155Y140D01*
X0Y139D02*
X7Y139D01*
X3148Y139D02*
X3155Y139D01*
X0Y138D02*
X7Y138D01*
X3148Y138D02*
X3155Y138D01*
X0Y137D02*
X7Y137D01*
X3148Y137D02*
X3155Y137D01*
X0Y136D02*
X7Y136D01*
X3148Y136D02*
X3155Y136D01*
X0Y135D02*
X7Y135D01*
X3148Y135D02*
X3155Y135D01*
X0Y134D02*
X7Y134D01*
X3148Y134D02*
X3155Y134D01*
X0Y133D02*
X7Y133D01*
X3148Y133D02*
X3155Y133D01*
X0Y132D02*
X7Y132D01*
X3148Y132D02*
X3155Y132D01*
X0Y131D02*
X7Y131D01*
X3148Y131D02*
X3155Y131D01*
X0Y130D02*
X7Y130D01*
X3148Y130D02*
X3155Y130D01*
X0Y129D02*
X7Y129D01*
X3148Y129D02*
X3155Y129D01*
X0Y128D02*
X7Y128D01*
X3148Y128D02*
X3155Y128D01*
X0Y127D02*
X7Y127D01*
X3148Y127D02*
X3155Y127D01*
X0Y126D02*
X7Y126D01*
X3148Y126D02*
X3155Y126D01*
X0Y125D02*
X7Y125D01*
X3148Y125D02*
X3155Y125D01*
X0Y124D02*
X7Y124D01*
X3148Y124D02*
X3155Y124D01*
X0Y123D02*
X7Y123D01*
X3148Y123D02*
X3155Y123D01*
X0Y122D02*
X7Y122D01*
X3148Y122D02*
X3155Y122D01*
X0Y121D02*
X7Y121D01*
X3148Y121D02*
X3155Y121D01*
X0Y120D02*
X7Y120D01*
X3148Y120D02*
X3155Y120D01*
X0Y119D02*
X7Y119D01*
X3148Y119D02*
X3155Y119D01*
X0Y118D02*
X7Y118D01*
X3148Y118D02*
X3155Y118D01*
X0Y117D02*
X7Y117D01*
X3148Y117D02*
X3155Y117D01*
X0Y116D02*
X7Y116D01*
X3148Y116D02*
X3155Y116D01*
X0Y115D02*
X7Y115D01*
X3148Y115D02*
X3155Y115D01*
X0Y114D02*
X7Y114D01*
X3148Y114D02*
X3155Y114D01*
X0Y113D02*
X7Y113D01*
X3148Y113D02*
X3155Y113D01*
X0Y112D02*
X7Y112D01*
X3148Y112D02*
X3155Y112D01*
X0Y111D02*
X7Y111D01*
X3148Y111D02*
X3155Y111D01*
X0Y110D02*
X7Y110D01*
X3148Y110D02*
X3155Y110D01*
X0Y109D02*
X7Y109D01*
X3148Y109D02*
X3155Y109D01*
X0Y108D02*
X7Y108D01*
X3148Y108D02*
X3155Y108D01*
X0Y107D02*
X7Y107D01*
X3148Y107D02*
X3155Y107D01*
X0Y106D02*
X7Y106D01*
X3148Y106D02*
X3155Y106D01*
X0Y105D02*
X7Y105D01*
X3148Y105D02*
X3155Y105D01*
X0Y104D02*
X7Y104D01*
X3148Y104D02*
X3155Y104D01*
X0Y103D02*
X7Y103D01*
X3148Y103D02*
X3155Y103D01*
X0Y102D02*
X7Y102D01*
X3148Y102D02*
X3155Y102D01*
X0Y101D02*
X7Y101D01*
X3148Y101D02*
X3155Y101D01*
X0Y100D02*
X7Y100D01*
X3148Y100D02*
X3155Y100D01*
X0Y99D02*
X7Y99D01*
X3148Y99D02*
X3155Y99D01*
X0Y98D02*
X7Y98D01*
X3148Y98D02*
X3155Y98D01*
X0Y97D02*
X7Y97D01*
X3148Y97D02*
X3155Y97D01*
X0Y96D02*
X7Y96D01*
X3148Y96D02*
X3155Y96D01*
X0Y95D02*
X7Y95D01*
X3148Y95D02*
X3155Y95D01*
X0Y94D02*
X7Y94D01*
X3148Y94D02*
X3155Y94D01*
X0Y93D02*
X7Y93D01*
X3148Y93D02*
X3155Y93D01*
X0Y92D02*
X7Y92D01*
X3148Y92D02*
X3155Y92D01*
X0Y91D02*
X7Y91D01*
X3148Y91D02*
X3155Y91D01*
X0Y90D02*
X7Y90D01*
X3148Y90D02*
X3155Y90D01*
X0Y89D02*
X7Y89D01*
X3148Y89D02*
X3155Y89D01*
X0Y88D02*
X7Y88D01*
X3148Y88D02*
X3155Y88D01*
X0Y87D02*
X7Y87D01*
X3148Y87D02*
X3155Y87D01*
X0Y86D02*
X7Y86D01*
X3148Y86D02*
X3155Y86D01*
X0Y85D02*
X7Y85D01*
X3148Y85D02*
X3155Y85D01*
X0Y84D02*
X7Y84D01*
X3148Y84D02*
X3155Y84D01*
X0Y83D02*
X7Y83D01*
X3148Y83D02*
X3155Y83D01*
X0Y82D02*
X7Y82D01*
X3148Y82D02*
X3155Y82D01*
X0Y81D02*
X7Y81D01*
X3148Y81D02*
X3155Y81D01*
X0Y80D02*
X7Y80D01*
X3148Y80D02*
X3155Y80D01*
X0Y79D02*
X7Y79D01*
X3148Y79D02*
X3155Y79D01*
X0Y78D02*
X7Y78D01*
X3148Y78D02*
X3155Y78D01*
X0Y77D02*
X7Y77D01*
X3148Y77D02*
X3155Y77D01*
X0Y76D02*
X7Y76D01*
X3148Y76D02*
X3155Y76D01*
X0Y75D02*
X7Y75D01*
X3148Y75D02*
X3155Y75D01*
X0Y74D02*
X7Y74D01*
X3148Y74D02*
X3155Y74D01*
X0Y73D02*
X7Y73D01*
X3148Y73D02*
X3155Y73D01*
X0Y72D02*
X7Y72D01*
X3148Y72D02*
X3155Y72D01*
X0Y71D02*
X7Y71D01*
X3148Y71D02*
X3155Y71D01*
X0Y70D02*
X7Y70D01*
X3148Y70D02*
X3155Y70D01*
X0Y69D02*
X7Y69D01*
X3148Y69D02*
X3155Y69D01*
X0Y68D02*
X7Y68D01*
X3148Y68D02*
X3155Y68D01*
X0Y67D02*
X7Y67D01*
X3148Y67D02*
X3155Y67D01*
X0Y66D02*
X7Y66D01*
X3148Y66D02*
X3155Y66D01*
X0Y65D02*
X7Y65D01*
X3148Y65D02*
X3155Y65D01*
X0Y64D02*
X7Y64D01*
X3148Y64D02*
X3155Y64D01*
X0Y63D02*
X7Y63D01*
X3148Y63D02*
X3155Y63D01*
X0Y62D02*
X7Y62D01*
X3148Y62D02*
X3155Y62D01*
X0Y61D02*
X7Y61D01*
X3148Y61D02*
X3155Y61D01*
X0Y60D02*
X7Y60D01*
X3148Y60D02*
X3155Y60D01*
X0Y59D02*
X7Y59D01*
X3148Y59D02*
X3155Y59D01*
X0Y58D02*
X7Y58D01*
X3148Y58D02*
X3155Y58D01*
X0Y57D02*
X7Y57D01*
X635Y57D02*
X686Y57D01*
X3148Y57D02*
X3155Y57D01*
X0Y56D02*
X7Y56D01*
X635Y56D02*
X687Y56D01*
X3148Y56D02*
X3155Y56D01*
X0Y55D02*
X7Y55D01*
X635Y55D02*
X688Y55D01*
X3148Y55D02*
X3155Y55D01*
X0Y54D02*
X7Y54D01*
X635Y54D02*
X688Y54D01*
X3148Y54D02*
X3155Y54D01*
X0Y53D02*
X7Y53D01*
X635Y53D02*
X688Y53D01*
X3148Y53D02*
X3155Y53D01*
X0Y52D02*
X7Y52D01*
X635Y52D02*
X687Y52D01*
X3148Y52D02*
X3155Y52D01*
X0Y51D02*
X7Y51D01*
X635Y51D02*
X686Y51D01*
X3148Y51D02*
X3155Y51D01*
X0Y50D02*
X7Y50D01*
X635Y50D02*
X641Y50D01*
X652Y50D02*
X658Y50D01*
X3148Y50D02*
X3155Y50D01*
X0Y49D02*
X7Y49D01*
X635Y49D02*
X641Y49D01*
X652Y49D02*
X658Y49D01*
X3148Y49D02*
X3155Y49D01*
X0Y48D02*
X7Y48D01*
X635Y48D02*
X641Y48D01*
X652Y48D02*
X658Y48D01*
X3148Y48D02*
X3155Y48D01*
X0Y47D02*
X7Y47D01*
X635Y47D02*
X641Y47D01*
X652Y47D02*
X658Y47D01*
X3148Y47D02*
X3155Y47D01*
X0Y46D02*
X7Y46D01*
X635Y46D02*
X641Y46D01*
X652Y46D02*
X658Y46D01*
X3148Y46D02*
X3155Y46D01*
X0Y45D02*
X7Y45D01*
X635Y45D02*
X641Y45D01*
X652Y45D02*
X660Y45D01*
X3148Y45D02*
X3155Y45D01*
X0Y44D02*
X7Y44D01*
X635Y44D02*
X641Y44D01*
X652Y44D02*
X661Y44D01*
X3148Y44D02*
X3155Y44D01*
X0Y43D02*
X7Y43D01*
X635Y43D02*
X641Y43D01*
X652Y43D02*
X663Y43D01*
X3148Y43D02*
X3155Y43D01*
X0Y42D02*
X7Y42D01*
X635Y42D02*
X641Y42D01*
X652Y42D02*
X665Y42D01*
X3148Y42D02*
X3155Y42D01*
X0Y41D02*
X7Y41D01*
X635Y41D02*
X641Y41D01*
X652Y41D02*
X667Y41D01*
X3148Y41D02*
X3155Y41D01*
X0Y40D02*
X7Y40D01*
X635Y40D02*
X641Y40D01*
X652Y40D02*
X668Y40D01*
X3148Y40D02*
X3155Y40D01*
X0Y39D02*
X7Y39D01*
X635Y39D02*
X641Y39D01*
X652Y39D02*
X670Y39D01*
X3148Y39D02*
X3155Y39D01*
X0Y38D02*
X7Y38D01*
X635Y38D02*
X641Y38D01*
X652Y38D02*
X672Y38D01*
X3148Y38D02*
X3155Y38D01*
X0Y37D02*
X7Y37D01*
X635Y37D02*
X641Y37D01*
X652Y37D02*
X658Y37D01*
X660Y37D02*
X673Y37D01*
X3148Y37D02*
X3155Y37D01*
X0Y36D02*
X7Y36D01*
X635Y36D02*
X641Y36D01*
X652Y36D02*
X658Y36D01*
X662Y36D02*
X675Y36D01*
X3148Y36D02*
X3155Y36D01*
X0Y35D02*
X7Y35D01*
X635Y35D02*
X641Y35D01*
X652Y35D02*
X658Y35D01*
X664Y35D02*
X677Y35D01*
X3148Y35D02*
X3155Y35D01*
X0Y34D02*
X7Y34D01*
X635Y34D02*
X641Y34D01*
X652Y34D02*
X658Y34D01*
X665Y34D02*
X678Y34D01*
X3148Y34D02*
X3155Y34D01*
X0Y33D02*
X7Y33D01*
X635Y33D02*
X641Y33D01*
X652Y33D02*
X658Y33D01*
X667Y33D02*
X680Y33D01*
X3148Y33D02*
X3155Y33D01*
X0Y32D02*
X7Y32D01*
X635Y32D02*
X641Y32D01*
X652Y32D02*
X658Y32D01*
X669Y32D02*
X682Y32D01*
X3148Y32D02*
X3155Y32D01*
X0Y31D02*
X7Y31D01*
X635Y31D02*
X642Y31D01*
X651Y31D02*
X658Y31D01*
X671Y31D02*
X684Y31D01*
X3148Y31D02*
X3155Y31D01*
X0Y30D02*
X7Y30D01*
X635Y30D02*
X644Y30D01*
X649Y30D02*
X658Y30D01*
X672Y30D02*
X685Y30D01*
X3148Y30D02*
X3155Y30D01*
X0Y29D02*
X7Y29D01*
X636Y29D02*
X657Y29D01*
X674Y29D02*
X687Y29D01*
X3148Y29D02*
X3155Y29D01*
X0Y28D02*
X7Y28D01*
X636Y28D02*
X657Y28D01*
X676Y28D02*
X687Y28D01*
X3148Y28D02*
X3155Y28D01*
X0Y27D02*
X7Y27D01*
X637Y27D02*
X656Y27D01*
X677Y27D02*
X688Y27D01*
X3148Y27D02*
X3155Y27D01*
X0Y26D02*
X7Y26D01*
X638Y26D02*
X655Y26D01*
X679Y26D02*
X688Y26D01*
X3148Y26D02*
X3155Y26D01*
X0Y25D02*
X7Y25D01*
X639Y25D02*
X654Y25D01*
X681Y25D02*
X687Y25D01*
X3148Y25D02*
X3155Y25D01*
X0Y24D02*
X7Y24D01*
X641Y24D02*
X652Y24D01*
X683Y24D02*
X687Y24D01*
X3148Y24D02*
X3155Y24D01*
X0Y23D02*
X7Y23D01*
X645Y23D02*
X648Y23D01*
X3148Y23D02*
X3155Y23D01*
X0Y22D02*
X7Y22D01*
X3148Y22D02*
X3155Y22D01*
X0Y21D02*
X7Y21D01*
X3148Y21D02*
X3155Y21D01*
X0Y20D02*
X7Y20D01*
X3148Y20D02*
X3155Y20D01*
X0Y19D02*
X7Y19D01*
X3148Y19D02*
X3155Y19D01*
X0Y18D02*
X7Y18D01*
X3148Y18D02*
X3155Y18D01*
X0Y17D02*
X7Y17D01*
X3148Y17D02*
X3155Y17D01*
X0Y16D02*
X7Y16D01*
X3148Y16D02*
X3155Y16D01*
X0Y15D02*
X7Y15D01*
X3148Y15D02*
X3155Y15D01*
X0Y14D02*
X7Y14D01*
X3148Y14D02*
X3155Y14D01*
X0Y13D02*
X7Y13D01*
X3148Y13D02*
X3155Y13D01*
X0Y12D02*
X7Y12D01*
X3148Y12D02*
X3155Y12D01*
X0Y11D02*
X7Y11D01*
X3148Y11D02*
X3155Y11D01*
X0Y10D02*
X7Y10D01*
X3148Y10D02*
X3155Y10D01*
X0Y9D02*
X7Y9D01*
X3148Y9D02*
X3155Y9D01*
X0Y8D02*
X3155Y8D01*
X0Y7D02*
X3155Y7D01*
X0Y6D02*
X3155Y6D01*
X0Y5D02*
X3155Y5D01*
X0Y4D02*
X3155Y4D01*
X0Y3D02*
X3155Y3D01*
X0Y2D02*
X3155Y2D01*
X0Y1D02*
X3155Y1D01*
X635Y0D02*
X641Y0D01*
X682Y0D02*
X688Y0D01*
X635Y-1D02*
X641Y-1D01*
X682Y-1D02*
X688Y-1D01*
D02*
G04 End of Silk0*
M02*